<?xml version="1.0" encoding="UTF-8"?>
<svg id="Layer_2" data-name="Layer 2" xmlns="http://www.w3.org/2000/svg" viewBox="0 0 313.92 409.44">
  <defs>
    <style>
      .cls-1 {
        fill: #fdfdfd;
      }
    </style>
  </defs>
  <g id="Layer_1-2" data-name="Layer 1">
    <path class="cls-1" d="M313.92,409.44H0V0H313.92V409.44ZM49.97,72.49c-1.15,1.42-2.82,2.08-4.06,3.23-5.86,5.42-8.76,12.45-10.91,19.98-1.83,6.41-2.35,12.95-3.14,19.51-1.19,9.87-1.62,19.79-2.61,29.67-.8,8.03-1.39,16.09-1.97,24.14-.46,6.42-.98,12.86-1.08,19.29-.12,8.26,.39,16.52,.23,24.78-.3,15.74,0,31.47-.42,47.21-.23,8.34-.16,16.7-.46,25.04-.39,10.92-.19,21.85,.03,32.76,.21,10.27,1.08,20.53,1.79,30.78,.45,6.57,1.87,12.86,5.62,18.48,5.78,8.66,14.3,13.82,23.35,18.1,8.06,3.82,16.81,5.66,25.5,7.61,8.78,1.97,17.72,2.89,26.62,3.82,5.84,.61,11.73,.98,17.6,1.38,3.24,.22,6.49,.28,9.74,.57,2.6,.24,5.27-.21,7.9-.28,6.61-.16,13.22,.55,19.8,.45,16.31-.25,32.63,.51,48.93-.08,9.93-.36,19.91,.47,29.79-1.42,8.72-1.67,17.56-2.22,25.6-7.02,7.15-4.27,12.65-9.83,17.31-16.47,.57-.81,1.22-1.63,1.49-2.69,1.52-6.09,2.32-12.31,2.69-18.55,.55-9.3,.75-18.62,1.01-27.93,.31-10.58,.29-21.18,.88-31.75,.28-5.11,.43-10.23,.77-15.33,.77-11.42,.67-22.86,.61-34.29-.05-10.27-.63-20.54-.2-30.81,.52-12.5,.62-25.02,.85-37.53,.26-14.19-.81-28.41,.6-42.57,1.14-11.39,1.16-22.68-1.03-33.99-1.36-7.06-3.45-13.43-10.25-17.11-2.18-1.18-4.36-2.38-6.61-3.62,2.08-1.81,2.96-5.51,2.24-7.94-.94-3.19-3.56-4.62-6.24-5.99,.89-1.8,2.15-3.21,1.81-5.26-.31-1.89-1.68-3.16-2.58-4.81,2.6-1.96,3.3-4.81,2.03-7.3-1.38-2.7-1.17-4.9-.6-7.7,.83-4.06-3.4-8.24-8.27-8.65-7.63-.63-15.27-.42-22.91,.14-7.35,.54-14.71,1.14-22.08,.96-11.44-.28-22.89-.69-34.33-1.04-7.79-.24-15.6-.21-23.36-.83-6.11-.48-12.25,.08-18.32-.74-4.6-.62-9.23-.05-13.82-.67-14.98-2.05-30.06-2.04-45.11-1.51-7.76,.27-15.47,1.72-23.22,2.49-5.56,.56-7.81,3.88-5.83,8.9,.27,.68,.35,1.38,.21,2.09-3.11,1.64-3.93,3.93-2.29,7.03,.71,1.35,.49,1.99-.71,2.93-2.42,1.89-3.1,5.14-1.43,7.16,1.31,1.58,.6,2.6-.4,3.65-.71,.74-1.76,1.14-2.47,1.87-1.77,1.84-3.27,4.31-2.32,6.52,.75,1.76,2.68,2.08,4.01,3.33Z"/>
  </g>
</svg>