<?xml version="1.0" encoding="utf-8"?>
<!-- Generator: Adobe Illustrator 26.5.0, SVG Export Plug-In . SVG Version: 6.00 Build 0)  -->
<svg version="1.1" id="Layer_2_00000151509358210899685870000013520916120049251501_"
	 xmlns="http://www.w3.org/2000/svg" xmlns:xlink="http://www.w3.org/1999/xlink" x="0px" y="0px" viewBox="0 0 313.9 409.4"
	 style="enable-background:new 0 0 313.9 409.4;" xml:space="preserve">
<style type="text/css">
	.st0{fill:#181919;}
	.st1{fill:#FDFDFD;}
	.st2{fill:#9ACBDA;}
	.st3{fill:#92CBDA;}
</style>
<g id="Layer_1-2">
	<g>
		<path class="st0" d="M50,72.5c-1.3-1.2-3.3-1.6-4-3.3c-0.9-2.2,0.5-4.7,2.3-6.5c0.7-0.7,1.8-1.1,2.5-1.9c1-1,1.7-2.1,0.4-3.7
			c-1.7-2-1-5.3,1.4-7.2c1.2-0.9,1.4-1.6,0.7-2.9c-1.6-3.1-0.8-5.4,2.3-7c0.1-0.7,0-1.4-0.2-2.1c-2-5,0.3-8.4,5.8-8.9
			c7.8-0.8,15.5-2.2,23.2-2.5C99.5,26,114.6,26,129.5,28c4.6,0.6,9.2,0,13.8,0.7c6.1,0.8,12.2,0.2,18.3,0.7
			c7.8,0.6,15.6,0.6,23.4,0.8c11.4,0.4,22.9,0.8,34.3,1c7.4,0.2,14.7-0.4,22.1-1c7.6-0.6,15.3-0.8,22.9-0.1c4.9,0.4,9.1,4.6,8.3,8.7
			c-0.6,2.8-0.8,5,0.6,7.7c1.3,2.5,0.6,5.3-2,7.3c0.9,1.7,2.3,2.9,2.6,4.8c0.3,2-0.9,3.5-1.8,5.3c2.7,1.4,5.3,2.8,6.2,6
			c0.7,2.4-0.2,6.1-2.2,7.9c2.3,1.2,4.4,2.4,6.6,3.6c6.8,3.7,8.9,10.1,10.2,17.1c2.2,11.3,2.2,22.6,1,34
			c-1.4,14.2-0.3,28.4-0.6,42.6c-0.2,12.5-0.3,25-0.9,37.5c-0.4,10.3,0.1,20.5,0.2,30.8c0,11.4,0.1,22.9-0.6,34.3
			c-0.3,5.1-0.5,10.2-0.8,15.3c-0.6,10.6-0.6,21.2-0.9,31.8c-0.3,9.3-0.5,18.6-1,27.9c-0.4,6.2-1.2,12.5-2.7,18.5
			c-0.3,1.1-0.9,1.9-1.5,2.7c-4.7,6.6-10.2,12.2-17.3,16.5c-8,4.8-16.9,5.4-25.6,7c-9.9,1.9-19.9,1-29.8,1.4
			c-16.3,0.6-32.6-0.2-48.9,0.1c-6.6,0.1-13.2-0.6-19.8-0.5c-2.6,0.1-5.3,0.5-7.9,0.3c-3.2-0.3-6.5-0.4-9.7-0.6
			c-5.9-0.4-11.8-0.8-17.6-1.4c-8.9-0.9-17.8-1.9-26.6-3.8c-8.7-2-17.4-3.8-25.5-7.6c-9-4.3-17.6-9.4-23.3-18.1
			c-3.8-5.6-5.2-11.9-5.6-18.5c-0.7-10.2-1.6-20.5-1.8-30.8c-0.2-10.9-0.4-21.8,0-32.8c0.3-8.3,0.2-16.7,0.5-25
			c0.4-15.7,0.1-31.5,0.4-47.2c0.2-8.2-0.4-16.5-0.2-24.8c0.1-6.4,0.6-12.9,1.1-19.3c0.6-8.1,1.2-16.1,2-24.1
			c1-9.9,1.4-19.8,2.6-29.7c0.8-6.6,1.3-13.1,3.1-19.5c2.2-7.5,5-14.6,10.9-20C47.2,74.6,48.8,73.9,50,72.5L50,72.5z M141.5,362.1
			c0.4,0,0.8,0,0.9-0.5c0.2-0.1,0.4-0.1,0.7-0.2c3.1-1.5,6.3-2.4,10.2-2.3c-2-2.1-2.9-4.4-4.1-6.8c-1.4,3.7-3.8,6.3-6.5,8.6
			c-0.3,0-0.5,0.1-0.5,0.5c-0.4,0-0.8,0-0.9,0.5c-0.2,0.1-0.4,0.1-0.7,0.2c-3.5,1.8-7.2,2.5-11.6,2.2c2.3,2.6,3.9,5.2,5,8.4
			c1.3-4.5,3.9-7.5,7-10.2C141.2,362.5,141.5,362.4,141.5,362.1L141.5,362.1z M97.2,219.2c0.1,0.2,0.2,0.4,0.2,0.6
			c4.2,8.7,2.4,16.4-4.6,23.5c9.3-2.9,16.6-0.2,22.7,6.8c-4.2-8.2-3.1-15.6,2.6-22.9c-3.5,0.7-6.6,0.7-9.6-0.1
			c-4.5-1.2-7.8-4.1-10.7-7.6c-0.1-0.2-0.2-0.4-0.3-0.6c-0.2-0.3-0.3-0.6-0.5-1c-1.6-3.2-2.4-6.6-2.2-10.7c-2.1,2-4.3,2.9-6.5,4.4
			c3.7,1.5,6.1,4,8.3,6.7C96.8,218.6,97,218.9,97.2,219.2L97.2,219.2z M221.5,170.5c-0.1,0-0.2,0-0.4,0.1c0.1,0,0.1,0.1,0.1,0.1
			C221.4,170.6,221.5,170.5,221.5,170.5c-0.1,2.2,1.8,3.5,2,5.8c1.5-1.8,2.8-3.4,4.3-5.1C225.6,171.2,223.5,171.2,221.5,170.5
			L221.5,170.5z M223.9,330.8c-2.5,0.1-4.9,0.7-7.5,0.6c1.9,1.5,3.2,3.4,4.9,5.4C221.6,334.5,223.1,332.8,223.9,330.8
			c0.1-0.1,0.2-0.2,0.3-0.3c-0.1,0-0.2-0.1-0.2,0C223.7,330.6,223.7,330.7,223.9,330.8L223.9,330.8z M147.1,229.2v-0.3
			c-0.1,0-0.1,0-0.2,0C147,229,147.1,229.1,147.1,229.2c0.8,1.9,2.2,3.6,2.6,6.1c2-3.2,4.7-5.1,7.4-7
			C153.8,229.2,150.4,229.2,147.1,229.2L147.1,229.2z M135.2,221.5c0,0.1,0,0.2,0,0.3l0.2,0C135.3,221.7,135.2,221.6,135.2,221.5
			c-1.5-2.7-2.6-5.6-3.7-9c-0.8,3.8-2.5,6.7-4.4,9.5C129.8,221.1,132.6,221.8,135.2,221.5L135.2,221.5z M116.1,250.6
			c-0.1-0.2-0.2-0.6-0.6-0.4c-0.3,0.3,0.1,0.5,0.1,0.8c1.9,3.5,3,7.2,2.7,11.7c2.5-2.2,4.9-3.6,8-4.5
			C121.9,256.6,118.8,253.9,116.1,250.6L116.1,250.6z M86.3,273.7c0,0.1,0,0.2,0,0.3c0.1,0,0.2-0.1,0.3-0.1L86.3,273.7
			c-1.9-2.8-4.1-5.4-4.9-9.4c-1.2,4-2.9,6.9-6.1,9.8C79.4,273,82.9,273.2,86.3,273.7L86.3,273.7z M30.7,220.4
			c-0.1,0-0.1-0.1-0.2-0.1C30.6,220.3,30.7,220.3,30.7,220.4c-0.5,4.9,0.1,9.9-0.1,14.9c0,1.2,0.5,2,1.5,2.5c-1.2,0.4-1.5,1-1.6,2.4
			c-0.2,12.2-0.5,24.4-0.7,36.6c0,1.8,0,3.6,0,5.4c5.5-7.1,12.4-9.4,21.1-7.8c-8.4-9.4-8.6-18.8-0.5-28.5c-2.1,0.5-3.9,0.7-5.6,0.6
			c-4.5-0.3-8.4-2.1-11.8-5.1c-1-0.9-0.9-1.8-0.6-2.8c0.2-0.7,0.6-0.1,0.9,0c3.5,5.1,11.1,7.2,17.8,5c8.9-2.9,13.5-13.4,9.8-22.3
			c-4-9.6-14.5-12.1-22.8-8.3c-2.5,1.1-4,3.3-6.1,4.9c-1.4-1.1-0.4-2.1,0.3-2.9c1.9-2.1,4.3-3.6,7.3-4.9c-3.9-1.8-6.7-4.4-9.1-7.7
			c0.1,6-0.5,11.9,0.6,17.7C31,220.1,30.9,220.3,30.7,220.4L30.7,220.4z M180.2,333.2c0-0.6-0.4-0.2-0.9-0.2
			C179.8,333.1,180,333.2,180.2,333.2c0,0.8,0.6,1.1,1,1.5c4.6,5.5,5.9,11.6,3.5,18.5c-0.9,2.5-2.4,4.6-4.5,7.1
			c4.1-1.2,7.7-1.7,11.7-0.7c-5.8-7.4-6.9-15-2.2-22.8c4.1-6.7,10.3-9.5,18.8-8.6c-3.3-2.5-5.4-5.2-7-8.7c-1.3,4-3.2,7-6.1,9.4
			C191,332.6,185.8,333.5,180.2,333.2L180.2,333.2z M233.8,323.6c1.4,0.4,2.8-0.4,4.2-0.5c5.2-0.2,9.8,1.6,14,5.1
			c0.4-4.7,2.1-8.6,5.4-12.5c-8.1,1.9-14.5-0.1-20.4-6C237.8,315.2,236.2,319.5,233.8,323.6c0,0.1-0.1,0.2-0.2,0.2
			c0.1,0,0.2,0,0.3,0.1L233.8,323.6L233.8,323.6z M208.7,231.4c0.2,0,0.5,0.1,0.6,0.1c0.2-0.2,0-0.4-0.2-0.4c-2.3-2.9-4.3-6-5-9.9
			c-6.6,8.4-12.5,11.6-19.7,10.3c-8.4-1.5-13.7-6.6-15.9-15.3c-2.1,5.3-5.3,9.1-10.1,11.6c12.2-2.9,20.6,1.4,25.4,13
			c0.7-1.1,1.3-2.2,2-3.2C189.9,231.5,198.8,227.1,208.7,231.4L208.7,231.4z M257.5,193.3c0.3-0.2,0.7-0.4,1-0.6
			c7.2-5.8,16.7-5.7,23.6,0.3c3.3,2.9,5.2,6.5,6.4,10.8c0.8-9.3,0.9-18.6,0.6-27.9c-5.6,12.2-19.4,15.9-30.4,7.5
			c0.4,3.5-0.5,6.6-1.5,9.7c-0.1,0.2-0.2,0.5-0.2,0.5C257.3,193.7,257.4,193.5,257.5,193.3L257.5,193.3z M253,198.9
			c-5.4,4.4-11.5,5.9-19,4.1c5.7,5.1,7.6,10.9,7,17.9c4.7-2.5,9.4-3.3,14.6-2.1c-4.4-6.4-5.1-12.8-2.3-19.6c0.2-0.2,0.4-0.4,0.1-0.7
			C253.3,198.5,253.1,198.7,253,198.9L253,198.9z M214.5,234.6c-0.4-0.2-0.7-0.3-1.2,0.1c0.4,0.1,0.6,0.2,0.9,0.3
			c4.8,5.9,7,12.4,4.2,20.2c5-4.7,10.8-7.1,18.1-6.2c-3.6-4.8-4.9-9.7-4.4-15.4C226.1,237,220.3,237.1,214.5,234.6L214.5,234.6z
			 M95.6,180c-0.4-0.2-0.7-0.3-1.2,0.1c0.4,0.1,0.6,0.2,0.9,0.2c3.5,4.3,5.7,9.1,5.3,15.1c6-5,12.4-6.3,19.4-3.9l0.6,0.1
			c-0.1-0.2-0.1-0.3-0.2-0.5c-5.1-5.3-7-11.6-5.5-19C109.8,178.5,103.5,181.1,95.6,180L95.6,180z M67.7,359.7
			c5.1-4.8,11-6.9,18.7-5.2c-6.2-5.8-8.4-12.2-6.8-20c-5,5.6-11.3,7.5-18.8,6.9c5.5,5.2,7.6,11.1,6.5,18c0,0.2-0.1,0.5-0.1,0.5
			C67.5,360.1,67.6,359.9,67.7,359.7L67.7,359.7z M240.2,379.7c0.5-0.1,0.7-0.4,0.4-0.7c-0.2-0.4-0.6-0.3-0.9,0c-0.2,0-0.3,0-0.5,0
			c-10.5,1.2-20.8,4.5-31.6,4.2c-0.6,0-1,0.4-1,0.4c3.2,4.5,5.8,9.4,11.1,10.8c5,1.2,10.2,1.1,14.9-1.2c0.8,0.5,0,1.3,0.8,1.6
			c3.9-0.5,7.9-1,11.9-1.5c3.8-0.5,7.7-0.9,11.1-2.8c1,0.2,2.2-0.4,2.9-0.6c4.9-1.6,10-2.9,12.2-8.8c1.9-4.9,2.8-9.5,0.9-14.5
			c-1-2.5-2.7-4.5-4.5-6.6c0.6-0.1,1-0.2,1.4-0.4c0.4-0.2,0.7-0.1,1,0.2c4,4.5,5.9,9.8,5,15.9c-0.1,0.5-0.1,1.2-0.4,1.6
			c-0.9,1.1-0.7,2.4-1,3.7c4.6-3.7,8.1-8.2,9.5-14c1.5-6.4,1.8-13.1,2.1-19.6c0.1-2.4,0.3-4.7-0.2-7.8c-3.1,5.2-7.8,7.1-12.9,7.7
			c-5.5,0.6-10.2-1.4-14.6-4.9c-0.3,4.5-1.8,8.2-4.3,11.8c2.6,0,4.9-0.1,7.1,0.3c1.5,0.2,2.8,2.4,4.2,1.1c1-1,1.2-2.9,1.8-4.4
			c0.4-0.9,0.7-2,2-1.6c1.2,0.3,1.4,1.4,1.1,2.5c-0.6,2.1-1.2,4.3-1.8,6.4c-2.1,1.6-3.3,4-4.9,6c-3.5,4.1-7.1,8-12.1,10.5
			c-3.2,1.5-6.4,2.9-10,3.9c3.1,5.4,7,9.4,13.2,10.5c0.8,0.1,1.8,0,2,1.2c-6.4,1-10.7-2.5-14.6-7c-2.8,7.2-5.7,10.2-8.8,8.9
			C237.2,389.2,239.4,384.8,240.2,379.7L240.2,379.7z M46,373.8c-0.3,0.3-0.3,0.6,0,0.8c4.8,2.9,9.4,6.1,14.7,8.3
			c2.2,0.9,4.3,1.9,7.4,2.4c-4.7-5.2-6-10.8-4.7-17.2c-1.3,1.1-2.3,2.1-3.5,2.9c-4.1,2.7-8.4,4.5-13.4,3.1c-0.3-1.5,0.7-1.5,1.7-1.4
			c2.8,0.2,5.5-0.5,8.1-1.7c6.4-3.2,10.2-10.2,9.4-16.9c-1-7.4-6.2-13-13.6-14.5c-6.7-1.4-13.6,1.7-17.5,8c-1,1.7-2.2,3.3-2.1,5.4
			c0.3,6.2,2.9,11.4,6.9,16.1c1.7,2,4.6,2.8,5.7,5.4C45.1,374.5,45.7,374.1,46,373.8L46,373.8z M32.2,184.2L32.2,184.2
			c-0.9,0.6-0.5,1.6-0.9,2.3c-1.8,4.3-1.7,8.7,0.2,12.7c5.5,12,20.3,13.8,28.4,3.6c5-6.4,4.3-16.3-1.6-22.1c-6.2-6-15.4-6.3-22-0.9
			c-1.3,1.1-2.4,2.4-3.7,3.9c-0.7-1.4-0.6-2.3,0.3-3.2c2.2-2.5,4.9-4.3,8-5.4c3.1-1.1,6.3-1.1,9.6-0.8c-7.8-12.5-6.6-23.4,3.2-29.4
			c4.3-2.6,9-3.7,14-2.5c6.8,1.6,11.4,6,13.9,12.6c4.7-10.7,15.4-14,23.6-11.1c4.7,1.7,8.3,4.7,10.6,9.2c2.2,4.4,2.8,9,1.5,13.9
			c5.7-6.7,12.6-9.8,21.3-7.5c-0.1-1.1-0.8-1.5-1.3-2.1c-6.2-8.2-4.1-20.4,4.6-26.2c8.8-5.9,21.1-3.1,26.2,6
			c4.5,8,3.2,16.1-3.8,23.3c-0.3,0.1-0.5,0.2-0.9,0.3c0.5,0.4,0.8,0.3,1.2,0.1c5-1.5,9.8-1,14.4,1.4c4.6,2.4,7.6,6.3,9.3,11.5
			c5-9.1,12.3-12.7,22.3-10.9c-4.8-12-2.9-20.8,5.4-26.2c7.4-4.8,17.4-3.8,23.5,2.5c3.7,3.8,5.6,8.5,5.4,13.9
			c-0.2,5.3-2.6,9.7-6.6,13.7c5.5-0.3,9.9,1.4,14.1,4.4c0.9-4.8,0.9-9.5,4-13.3c3.2-3.9,7.1-6.3,12-7.2c8.4-1.6,14.8,2.4,21.1,13.4
			c0-1.2,0-1.9,0-2.7c-0.3-12.1-0.4-24.3,1.1-36.3c1.3-10.7-0.7-20.9-2.8-31.2c-0.5-2.2-1.4-4.6-3.3-6c-3.6-2.6-6.9-6-11.9-6.1
			c-0.4,0-0.9-0.2-1.1-0.5c-1.2-2.3-3-1.4-4.7-0.9c-1,0.3-2.1,0.7-3.2,0.8c-9.1,1.1-18.2,2.2-27.3,2.6c-11.3,0.5-22.6,0.8-33.9,1.2
			c-6.8,0.2-13.7,0.6-20.5,0.3c-5.4-0.2-10.8-0.3-16.2-0.4c-6.1,0-12.3-0.2-18.4-0.3c-8.3-0.1-16.5-1.4-24.7-1.8
			c-8.1-0.4-16.2-0.7-24.3-1.4C92.3,81,86.2,79.9,80,79.2c-9-0.9-17.6-2.9-26.3-6.1c0.1,1.6-0.9,2.3-2,3.1c-3.3,2.6-6.6,5.2-8.6,9.1
			c-5.7,11.3-6.9,23.6-8.1,36c-0.4,4.5-0.6,9-0.8,13.5c-0.3,7.4-1.2,14.8-1.8,22.1c-0.6,7.9-1.6,15.9-1.8,23.8c0,1.7,0,3.3,0,5.1
			C31.7,185.5,30.5,183.7,32.2,184.2L32.2,184.2z M270.5,59c-1.5-1.7-2.2-4.1-4.8-4c-2.6,0-5.3,0.1-7.8,0.5
			c-8.5,1.3-17,0.2-25.5,0.3c-1.6,0-2.7-0.8-2.6-2.4c0.1-1.8,1.6-1.1,2.6-1.2c6.4-0.4,12.7,0.9,19.1,0.2c5.5-0.6,11.1-0.5,16.7-1.2
			c1.2-0.2,1.9-0.6,2.1-1.8c0.5-2.6-2.6-5.6-5.2-4.9c-2.4,0.6-4.7,1.6-7.1,1.9c-6.7,0.8-13.5,1.3-20.2,1.4c-1.7,0-3.3,0-5,0
			c-1.2,0-1.6-0.9-1.6-2c0-0.9,0.4-1.5,1.2-1.4c3.1,0.3,6-0.4,9.1-0.4c8.9,0,17.8-1,26.4-3.7c1.9-0.6,2.5-2.8,1-4.1
			c-1.4-1.3-3.1-2.2-5.1-2.3c-6.3-0.2-12.6-0.2-18.9,0c-7.3,0.3-14.6,1.4-22,1.2c-14.1-0.3-28.2-0.8-42.3-1.3
			c-9.5-0.3-18.9-1-28.4-1.4c-9.9-0.3-19.7-0.5-29.6-1.5C111.2,30,100,30.3,88.8,30c-4.5-0.1-8.9,0.6-13.3,1.2
			c-4.8,0.6-9.7,1.1-14.5,2.5c0.8,0.7,1.6,0.8,2.5,0.8c4.4,0.4,8.8,0.4,13,1.5c3.8,1,7.6,0.6,11.4,1.5c3.2,0.8,6.8,0.2,10.2,0.5
			c9.9,0.8,19.8,1.7,29.7,2.5c6.8,0.5,13.5,1.2,20.3,1.5c8.7,0.3,17.4,0.5,26,0.8c8.2,0.4,16.5,1.1,24.8-0.5
			c1.4-0.3,2.1,0.5,2.4,1.7c0.3,1.3-0.5,1.8-1.7,2c-5.9,1.2-11.8,0.5-17.6,0.5c-7.6,0-15.1-1-22.7-0.9c-9.3,0.1-18.6-0.5-27.9-1.3
			c-9.9-0.8-19.8-2.1-29.7-2.6c-10.2-0.6-20.3-1.4-30.4-2.9c-4-0.6-8.1-0.8-12.3-1.2c0.8,3.5,0.8,3.5,2.2,3.8
			c3.3,0.7,6.5,1.9,10,2.4c6.2,0.8,12.4,2.4,18.6,3.1c10.5,1.3,21.1,2.3,31.6,3.1c8.1,0.6,16.2,0.6,24.4,0.8
			c7.8,0.1,15.6-0.1,23.4,0c7.7,0.2,15.4,0.6,23.2,0.1c1.2-0.1,2.4-0.2,3.6-0.2c1.6,0,2.1,1.3,2.2,2.3c0.1,1-1,1.4-2.1,1.3
			c-4.7-0.2-9.3,0.6-14,0.3c-15.6-0.9-31.2,0.1-46.8-0.6c-8.2-0.4-16.5-0.4-24.7-1.4c-9.4-1.2-18.9-1.5-28.2-3.4
			c-6-1.3-12.1-1.8-18-3.6c-2.5-0.8-5.3-0.9-8.6-1.4c1.4,1.6,2.1,2.8,2.2,4.3c0.1,1.5,0.9,2.2,2.5,2.5c9.8,1.3,19.3,3.8,29.1,5.2
			c7.2,1,14.4,2.3,21.7,3c10,0.9,20,1.8,30.1,1.6c7.1-0.1,14.1,1,21.2,0.4c3.6-0.3,7.2-0.8,10.7-0.6c7.3,0.4,14.5,0.3,21.7-0.8
			c3.2-0.5,3.7-0.1,3.2,3.7c-48.2,2.9-96.1,1.4-143.5-10.3c0.2,1.4,0.4,2.5,0.5,3.6c0.1,0.4,0,0.8,0.2,1.2c0.3,0.9,0.8,1.5,1.8,1.9
			c11.2,4.4,23,5.9,34.8,7.5c4.6,0.6,9.4,0.8,14.1,1.1c13.1,0.8,26.3,0.5,39.4,1.2c7.5,0.4,14.9,0.4,22.4,0.4
			c5.8,0,11.6-0.2,17.5-0.3c4-0.1,8.1-0.8,12.2-0.4v3.2c-5.9,0.9-11.7,0.8-17.5,1c-19.8,0.6-39.5-0.5-59.3-0.9
			c-15.4-0.2-30.7-1.8-45.9-4.3c-6.8-1.1-13.2-3.6-19.9-5.6c-0.6,1.2-2,1-3.2,1.4c-1,0.4-2.1,0.8-2.1,2c0,1.1,1.1,1.5,1.9,1.9
			c3,1.1,5.9,2.2,9,3.2c9.3,3,19,3.9,28.7,5.2c8.3,1.1,16.6,1.7,25,2c5.4,0.2,10.9,0.2,16.2,1.1c5.4,0.8,10.8,1.1,16.2,1.3
			c11.7,0.4,23.4,0.5,35.2,0.7c11.5,0.2,22.9-0.5,34.4-0.9c9.9-0.3,19.9-0.2,29.8-1.4c4.5-0.6,9-0.8,13.5-1.3
			c4.5-0.6,9-1.4,13.2-3.2c3.2-1.3,3.7-3.4,1.7-5.6c-5.1,1.1-10.1,2.2-15.3,2.2c-9,0.1-18,0.7-27,1.1c-2.3,0.1-4.2-0.8-3.9-2.4
			c0.3-2,2.1-1.6,3.4-1.6c9.6,0.2,19.1-0.7,28.7-0.9c2.9-0.1,5.7-0.3,9.2-1.4c-2.4-0.2-1.1-1.8-2.1-2.6c-0.3,0-0.7-0.1-1.1,0
			c-10.7,1.3-21.5,0.3-32.2,0.6c-1.7,0-2.1-0.8-2.1-2.1c0-1.2,0.8-1.7,2.1-1.7c4.3,0.1,8.6,0.2,12.9,0.2
			C254.8,60.5,262.6,61.6,270.5,59L270.5,59z M253.3,167.2c1.3,0.2,1.2,1,1.2,1.8c-0.1,3.1,1.2,5.7,2.3,8.4
			c3.2,7.4,15.5,12.6,25,4.8c3.1-2.6,5-5.8,5.9-9.8c0.2-1.1,1.5-2.5,1.2-3.2c-0.8-1.6-0.9-3.4-1.6-5.1c-3-7.1-8.9-11.7-16.2-11.6
			c-7.2,0.1-13.3,4.6-15.7,11.8C255,165.3,254.6,166.3,253.3,167.2L253.3,167.2z M63.8,143.9c-9.1,0-16.8,7.6-16.8,16.7
			c0,9.1,7.6,16.8,16.7,16.9c9.1,0,16.8-7.6,16.8-16.7C80.5,151.6,72.9,143.9,63.8,143.9z M116,161.7c0.1-9.1-7.5-16.8-16.6-16.9
			c-9.1-0.1-16.8,7.5-16.9,16.6c-0.1,9.1,7.5,16.8,16.6,16.9C108.2,178.4,115.9,170.8,116,161.7z M167.2,210.6
			c0-9.1-7.6-16.8-16.7-16.8c-9.1,0-16.8,7.6-16.8,16.7c0,9.1,7.6,16.8,16.7,16.8C159.5,227.3,167.2,219.7,167.2,210.6z
			 M222.4,181.3c0-9.1-7.6-16.8-16.7-16.9c-9.1,0-16.8,7.6-16.9,16.7c0,9.1,7.6,16.8,16.6,16.9C214.6,198,222.3,190.4,222.4,181.3
			L222.4,181.3z M182.1,245.6c0-9.1-7.6-16.8-16.7-16.8c-9.1,0-16.8,7.6-16.8,16.7c0,9.1,7.6,16.8,16.7,16.8
			C174.4,262.3,182.1,254.7,182.1,245.6z M200.9,231.6c-9.1-0.1-16.8,7.5-16.9,16.6c-0.1,9.1,7.5,16.8,16.6,16.9
			c9.1,0,16.8-7.5,16.9-16.6C217.6,239.4,210,231.7,200.9,231.6L200.9,231.6z M149.7,297.8c-9.1-0.1-16.8,7.5-16.9,16.6
			c-0.1,9.1,7.5,16.9,16.6,16.9c9.1,0.1,16.9-7.5,16.9-16.6C166.3,305.5,158.8,297.8,149.7,297.8L149.7,297.8z M81.4,322.7
			c0.1-9.8-8.3-16.5-16.8-16.7c-9-0.2-16.6,7.5-16.7,16.6c-0.1,9.2,7.5,16.9,16.7,16.9C73.7,339.5,81.4,331.8,81.4,322.7L81.4,322.7
			z M243,152.6c0.1-9.1-7.5-16.9-16.6-16.9c-9.1-0.1-16.7,7.5-16.9,16.5c-0.1,9.1,7.4,16.9,16.5,17.1
			C235.1,169.3,242.9,161.7,243,152.6L243,152.6z M133.2,194.2c9.1,0,16.8-7.6,16.8-16.8c0-9-7.6-16.7-16.6-16.8
			c-9.1-0.1-16.9,7.5-16.9,16.6C116.4,186.4,124.1,194.1,133.2,194.2L133.2,194.2z M222.2,234.4c9.1,0.1,16.9-7.5,17-16.6
			c0.1-9.1-7.4-16.8-16.4-16.9c-9.2-0.1-17,7.4-17.1,16.5C205.5,226.5,213.1,234.3,222.2,234.4L222.2,234.4z M249.7,267.7
			c0.1-9.1-7.6-16.9-16.7-16.9c-9,0-16.7,7.5-16.8,16.5c-0.1,9.1,7.5,16.9,16.6,17C241.9,284.4,249.6,276.8,249.7,267.7z
			 M130.4,307.4c0-9.1-7.6-16.8-16.8-16.8c-9,0-16.7,7.6-16.8,16.6c-0.1,9.1,7.5,16.9,16.7,16.9
			C122.6,324.1,130.3,316.5,130.4,307.4L130.4,307.4z M63.1,276.6c9.1,0,16.8-7.6,16.9-16.7c0-9-7.5-16.7-16.5-16.8
			c-9.2-0.1-16.9,7.5-17,16.6C46.4,268.8,54,276.5,63.1,276.6z M81.4,212.4c-9.5-0.3-16.9,6.6-17.2,15.7
			c-0.3,9.2,7.1,17.1,16.2,17.4c9.2,0.2,17.1-7.2,17.3-16.2C98,219.8,91,212.6,81.4,212.4L81.4,212.4z M168.7,377.9
			c-0.2-10.5-7.9-16-16.8-16.7c-9-0.6-16.7,7.4-16.7,16.4c0,4.6,1.7,8.5,4.8,11.9c4.8,5.4,10.8,5.4,17.4,4.7
			C161.8,393.7,168.7,384.3,168.7,377.9L168.7,377.9z M130.3,328.9c-2,0-5.2,1-8,3c-2.7,2-5.3,4.3-5.8,7.8c-0.3,2-0.5,4-1.1,5.9
			c-0.2,0.8-0.4,1.5-0.2,2.3c1.3,8.8,9.5,15.3,18.2,14.4c8.8-0.9,15.6-8.7,15.1-17.6C148.1,336.1,140.5,328.9,130.3,328.9
			L130.3,328.9z M249.8,220.1c-4.2,0.6-9.1,1.4-11.4,7c-0.6,1.4-1.7,2.5-2.7,3.6c-0.8,0.9-1.2,1.8-1.5,2.9
			c-2,9.1,4.6,18.3,14.2,19.8c9.1,1.5,18.3-6,19-15.4C268,228.5,260.3,220.1,249.8,220.1L249.8,220.1z M237.9,325c-2,0-5.2,1-8,2.9
			c-5.4,3.5-7.7,9-6.4,15.3c0.2,1.2,0.3,2.5,0.3,3.8c0,1,0.2,1.9,0.7,2.7c3.8,7.2,12.2,10.5,20.3,7.8c7.2-2.4,12.2-10.5,11.1-17.9
			C254.5,331.3,247.5,325.1,237.9,325L237.9,325z M132.8,377.9c0-6.7-4.3-13.1-10.4-15.6c-6.3-2.5-13.3-1.1-18.1,3.7
			c-4.8,4.8-6.5,12.2-3.5,18.3c2.1,4.3,4.4,8.6,10.3,8.7c3.4,0.1,6.8,0.5,10.3,0.7c0.4,0,0.8,0,1.1-0.1
			C128.1,391.4,132.7,384.3,132.8,377.9L132.8,377.9z M200.3,314.7c0.1-7.3-4.7-13.9-11.7-16.1c-7.2-2.2-14.9,0.3-18.9,6.5
			c-1.1,1.6-2.4,3.3-1.9,5.5c0.6,2.6,0.6,5.2,0,7.8c-0.2,0.9,0,1.7,0.4,2.6c2.9,6.9,10.9,11.4,18,10
			C194.5,329.4,200.3,322.7,200.3,314.7L200.3,314.7z M167.2,363.4c9.1,0,16.8-7.5,16.8-16.4c0-9-7.5-16.6-16.6-16.6
			c-9.2-0.1-16.9,7.5-16.9,16.5C150.5,355.8,158.2,363.4,167.2,363.4z M235.3,312.5c0-9.1-7.6-16.7-16.5-16.7s-16.5,7.6-16.5,16.7
			c0,9.2,7.6,16.9,16.6,16.8C227.9,329.3,235.4,321.6,235.3,312.5L235.3,312.5z M170.2,162c-9.1,0-16.7,7.5-16.8,16.5
			c0,9,7.6,16.5,16.6,16.6c9.2,0.1,16.9-7.5,16.9-16.6C186.9,169.5,179.3,162,170.2,162L170.2,162z M97.8,291.9
			c0-9.1-7.6-16.7-16.6-16.7c-8.9,0-16.5,7.6-16.5,16.7c0,9.2,7.6,16.9,16.7,16.8C90.3,308.6,97.8,301,97.8,291.9z M221.9,346.8
			c0.1-9.1-7.3-16.9-16.2-17c-9-0.1-16.6,7.4-16.8,16.4c-0.1,9.2,7.3,17,16.4,17.1C214.2,363.4,221.8,355.9,221.9,346.8z
			 M251.5,314.5c9.1,0.1,16.8-7.4,16.9-16.4c0.1-9-7.5-16.5-16.6-16.7c-9.9-0.2-16.8,8.1-16.9,16.4
			C234.8,306.8,242.4,314.4,251.5,314.5L251.5,314.5z M114.6,276.1c0,9.1,7.4,16.8,16.4,16.9c9,0.1,16.6-7.5,16.7-16.6
			c0.1-9.2-7.4-17-16.5-17C122.2,259.4,114.6,267,114.6,276.1L114.6,276.1z M129.9,209.1c0-9.1-7.5-16.9-16.4-16.8
			c-9.7,0.1-16.3,7.7-16.5,16.7c-0.3,9.1,7.4,16.8,16.4,16.8C122.3,225.8,129.9,218.2,129.9,209.1L129.9,209.1z M270,223.9
			c10.9-0.4,16.7-8.6,16.8-17.8c0-3.9-2.1-8.1-5.3-11.1c-3.2-3-7-4.7-11.4-4.7c-9-0.1-16.5,7.6-16.5,16.7
			C253.6,216.2,261.1,223.8,270,223.9z M270,250.3c-9,0-16.5,7.7-16.5,16.8c0,9.1,7.6,17,16.5,16.7c10.9-0.4,16-7.8,16.9-16.9
			C287.8,258.6,278.7,250.2,270,250.3L270,250.3z M29.7,292.1c-0.5,4.4,0.7,8,3.5,11.2c4.6,5.3,11.7,7.3,18.4,4.8
			c6.3-2.3,10.7-9,10.6-15.9c-0.1-6.8-4.7-13.3-11-15.5c-7.4-2.5-14.8-0.1-19.5,6.7c-0.6,0.9-2.2,1.1-2,2.3
			C30.2,287.9,29.1,290,29.7,292.1L29.7,292.1z M97.7,356.2c9.1,0,16.8-7.5,16.9-16.4c0.1-9-7.6-16.6-16.6-16.6
			c-9.1,0-16.8,7.5-16.9,16.4C81,348.6,88.6,356.2,97.7,356.2z M98.7,193.8c0.1-9.1-7.4-16.8-16.4-16.9c-9-0.1-16.6,7.6-16.6,16.7
			c-0.1,9.1,7.5,16.8,16.4,16.9C91.1,210.5,98.7,202.9,98.7,193.8z M131.5,257c6.1-0.3,11.3-2.4,14.1-7.6c2.1-3.9,2.7-8.9,2.2-13.3
			c-0.6-5.9-5.2-9.4-10.4-11.5c-6.2-2.5-13.3-0.7-17.7,4.3c-4.8,5.3-6,11.4-3.2,18C119.3,253.3,124.7,256.5,131.5,257z M99.6,277.1
			c9.1,0,16.8-7.5,16.8-16.5c0-9-7.6-16.6-16.7-16.6c-9.1,0-16.8,7.5-16.8,16.5S90.6,277.1,99.6,277.1z M203.7,213.1
			c0-9-7.7-16.5-16.8-16.5c-9.1,0-16.7,7.6-16.7,16.6c0,9,7.7,16.5,16.8,16.5C196,229.6,203.7,222,203.7,213.1z M240.1,201.8
			c9.1,0,16.8-7.5,16.8-16.5c0-9-7.6-16.9-16.7-16.4c-11.1,0.6-16.5,6.6-16.5,18.1C223.6,195,231,201.7,240.1,201.8L240.1,201.8z
			 M163.7,297.7c7,0.1,13.7-4.6,15.9-11c2.5-7.2,0.3-14.5-5.8-19.2c-5.4-4.2-13.5-4.4-19.3-0.4c-3.1,2.2-5.8,4.7-5.1,9.2
			c0.4,2.3-0.5,4.6-1.3,6.7c-0.5,1.1-0.4,2.1-0.1,3.2C150.2,292.8,156.7,297.6,163.7,297.7L163.7,297.7z M200.4,299.2
			c5.9-0.4,11.2-3.4,14.2-9.8c2.9-6.3,1.7-12.2-2.6-17.6c-4.7-5.8-11.2-5.7-17.3-4.7c-7.9,1.3-13.1,9.8-12,17.5
			C183.9,292.9,191,299.1,200.4,299.2L200.4,299.2z M80.5,355.8c-4.1,0.2-8.3,1.9-11.5,5.6c-5.4,6.2-5.9,15-1,21.7
			c1.1,1.5,2.3,3.5,4.7,3.9c2.6,0.4,5.2,0.9,7.7,1.7c3.7,1.1,6.8,0.1,9.8-2c6.3-4.4,8.9-11.8,6.6-19.1
			C94.8,360.6,88.3,355.8,80.5,355.8z M205.9,378.1c-2.3-0.9-1.8-2.5-2.1-3.8c-1.8-7.2-7.4-12.4-14.6-13.2c-6.7-0.8-13.4,3-16.7,9.3
			c-3.1,6.1-2,13.4,2.7,18.7c3,3.4,7.1,5.1,11.3,5.7c2.8,0.4,6.1-0.5,8.9-2.2c3.8-2.3,6.4-5.5,8.1-9.5c-2.4-0.8-5.5,1.3-7-2.1
			C198.9,378.3,202.6,380.1,205.9,378.1L205.9,378.1z M152.2,163c8.9,0,16.5-7.5,16.5-16.5c0-8.9-7.5-16.5-16.4-16.6
			c-9.1-0.1-16.7,7.5-16.6,16.6C135.7,155.5,143.2,163,152.2,163L152.2,163z M286.1,325c1.1-3.3-0.8-4.7-2.1-6.4
			c-7.1-8.7-19.6-8.8-26.4,0.1c-3.4,4.5-5.3,9.5-1.7,15c0.7,1.1,1.1,2.5,1.4,3.8c0.3,1.3,1.1,2.3,2,3.2c5.8,5.2,13.7,6.2,20.3,1.9
			c2.9-1.8,6.4-3.5,6.5-7.9C286.1,331.2,286.1,327.7,286.1,325L286.1,325z M288.2,263.2c1.2-17.9-0.4-35.7,0.4-54.1
			c-4.5,13.5-10,17.3-23.1,16.4c5.2,7.9,5.1,15.6-0.6,23.6c5.5-1.5,10.4-0.6,14.9,2.1C284.2,254,286.9,258,288.2,263.2L288.2,263.2z
			 M265.2,310.9c8.9-1.9,15.8,0.6,21.2,7.5c1.5-15.6,2.1-44.4,1.1-46.4c-0.9,5-3.8,8.5-8,11.1c-4.3,2.6-9,3.3-14.1,2.2
			C272.8,295.1,271,303.6,265.2,310.9L265.2,310.9z M31.8,348c4.2-8.5,11.5-11.5,20.7-11c-7.8-8.5-8.6-17.1-2.4-26.3
			c-8.8,1.4-15.5-1.5-20.7-9.4C30.2,317.3,30.4,332.6,31.8,348L31.8,348z M238.4,375.1c-0.5-2.1,0-3.9-1.1-5.5
			c-5.2-8.1-16.9-9.9-24.4-3.9c-4.3,3.4-6,8-6.6,13.1C217.3,379.7,227.6,376,238.4,375.1L238.4,375.1z M238.7,374.6
			c10.4-1.5,24.9-12.5,24.7-18.1c-1.1-0.1-2.3-0.2-3.4-0.4c-9.8-1.8-19,5.2-19.8,15.2C240.1,372.4,240.1,373.5,238.7,374.6
			L238.7,374.6z M82.8,328.1c4.9-5,10.7-7.5,18.3-6.8c-4.6-4.9-6.6-10.2-6.1-16.8c-4.6,4.5-9.7,6.5-15.9,6.1
			C82.9,316,84.5,321.6,82.8,328.1z M117.6,289c-3.7-4.6-5.2-9.4-4.9-15c-5.5,4.6-11.4,6-18.8,4.3c4.4,5,6.3,10.1,5.6,16.5
			C104.6,290,110.3,287.8,117.6,289L117.6,289z M237.7,285.6c-8.2,1.8-14.4-1-20-6.8c1.1,6.2-0.5,11.1-3.9,15.7
			c7.7-1.7,13.9,0.4,19.3,6.2C232.5,295.1,233.9,290.3,237.7,285.6L237.7,285.6z M64.4,198.5c-2.2,5.6-5.8,9.6-11.5,11.9
			c5.2,2.6,8.7,6.4,10.5,11.6c3.5-6.3,3.8-6.6,11.3-11.3C69.5,208.2,66.1,204.2,64.4,198.5L64.4,198.5z M192.9,265.3
			c-5.1-2.7-8.5-6.7-10.2-12.6c-2.6,5.5-6.5,8.9-12,10.8c5.6,2.5,9.4,6.5,11.3,12.5C184.3,270.8,187.8,267.4,192.9,265.3
			L192.9,265.3z M158.7,263c-5.8-2.5-9.5-6.5-11.4-12.4c-2.8,3.8-6.1,6.3-10.8,7.6c5.9,2.2,9.8,6.2,12.1,12
			C151.3,266.6,154.5,264.4,158.7,263L158.7,263z M130.8,314.8c-2.1,4.1-4.7,7-8.4,9c-3.7,2-7.6,2.5-12.1,2.2
			c2.9,2.9,4.7,5.9,5.8,9.7c4.8-6.9,11.4-9.2,19.4-8.6c-1.4-2.1-2.6-3.7-3.3-5.6C131.5,319.5,130.9,317.5,130.8,314.8L130.8,314.8z
			 M92.7,357.7c3.6,3,5.6,6.8,6.8,11.3c4.5-7.2,10.8-10.4,19.3-9.9c-2.7-2.9-4.3-5.9-5.3-9.4c-2.6,3.5-5.6,5.9-9.3,7.3
			C100.4,358.4,96.6,358.4,92.7,357.7z M146.1,286.9c-2.3,3.2-5,5.2-8.2,6.6c-3.3,1.4-6.7,1.4-10.5,1.4c3.2,3.5,4.4,7.4,5,12.1
			c2.1-3.9,4.6-6.8,8.2-8.8c3.6-2,7.5-2.5,12-2.2C149.4,293.3,147.6,290.5,146.1,286.9L146.1,286.9z M205.3,209.7
			c5.1-8.7,12.5-12,22.8-10.1c-3-2.9-5-5.7-6-9.4c-5.7,8.4-13.3,11.4-23.7,8.5C202.3,201.8,204.2,205.4,205.3,209.7L205.3,209.7z
			 M187.6,185.8c-6,10.2-14.5,13.4-25.5,9.8c3.7,3.1,5.8,7,6.9,11.6c5-10.5,13-14.4,24.6-11.7C190.6,192.7,188.6,189.8,187.6,185.8
			L187.6,185.8z M238.8,368c0.7-3,2.2-5.2,3.6-7.6c-8.3,0.9-14.6-2.2-19.4-8.8c-0.8,3.6-2.9,6.2-5.3,9.2
			C226.4,358.9,233.2,361.2,238.8,368z M166.5,306.7c4.2-7.8,10.7-11.2,19.7-10.9c-2.3-2.5-3.8-5-4.9-8.1
			c-4.1,8.7-11,12.4-20.6,11.9C163.5,301.8,165.1,304.1,166.5,306.7L166.5,306.7z M64.5,187.8c5-11.2,14-13.9,22.1-12.4
			c-2.4-2.5-4.1-5.1-5.2-8.2c-4.6,9.4-11.9,13.3-22.3,11.7C61.7,181.3,63.5,184.2,64.5,187.8L64.5,187.8z M179.2,394.8
			c-4.2-2.6-7.6-5.9-9.5-11c-2.1,4.8-4.8,8.5-9.3,10.6C166.6,395.3,172.9,394.7,179.2,394.8z M193.4,394c1.4,1.3,17.9,1.4,20.5,0.4
			c-4.3-2.6-7.2-6.1-8.8-11.5C203.7,388.9,197.7,395.1,193.4,394L193.4,394z M125.1,394c6.1,0.6,12.2,0.9,18.8,0.5
			c-5.1-2.6-8.2-6.3-9.9-11.5C132.3,387.8,129.6,391.6,125.1,394L125.1,394z M88,389.9c5.3,1.1,10.2,1.7,15.8,2.2
			c-3.3-3.4-5.3-6.6-6.2-10.9C95.4,385.2,92.3,387.9,88,389.9L88,389.9z M131.8,206.7c1.6-4.5,3.8-8.5,7.6-11.5
			c-4.8,1.8-9.5,0.9-14.7-0.8C128.8,198,131,201.8,131.8,206.7L131.8,206.7z M151.6,181.2c-1.4,4.9-3.8,8.6-7.4,11.5
			c4.7-1.6,9.2-1.1,13.8,0.4C154.9,189.9,152.6,186.2,151.6,181.2L151.6,181.2z M157.5,164.5c-3.6,0.8-7.1,0.4-11.1-0.1
			c3.1,3,4.4,6.2,5.4,10.3C153,170.6,154.9,167.4,157.5,164.5L157.5,164.5z M68.4,278.1c-3.6,0.8-7.1,0.4-11.2-0.2
			c3.4,2.6,4.9,5.6,6.3,9C64.4,283.5,66.3,280.8,68.4,278.1z M257,280.2c-2.9-3.1-4.3-6.4-5.3-10c-0.9,3.6-2.3,6.9-5,9.9
			C250.2,279.3,253.3,279.4,257,280.2L257,280.2z M76.9,247.3c2.7,2.6,3.6,5.4,4.8,8.6c1-3.9,3.1-6.6,5.5-9.4
			C84,247.6,80.7,247.4,76.9,247.3L76.9,247.3z M207.2,265.9c2.9,1.2,4.8,3.1,7.2,5.3c-0.3-3.9,0.1-7.1,0.7-10.4
			C212.7,262.9,210.4,264.6,207.2,265.9z M247.2,255.4c2.2,2.9,3.5,5.8,4.4,8.9c0.6-3.4,2.2-6.2,4.2-9.6
			C252.8,255.7,250.2,255.6,247.2,255.4L247.2,255.4z M205.4,373.3c1.1-3.6,3-5.9,5.3-8.7c-3.5,0.9-6.4,0.9-9.9,0.3
			C203.1,367.4,204.6,369.8,205.4,373.3z M149.8,340.4c1.2-3,3-5.2,4.9-7.6c-2.9,0.7-5.9,0.3-9.1,0.5
			C147.7,335.4,148.7,337.7,149.8,340.4L149.8,340.4z M66.8,241.1c-1.5-2.2-2.7-4.3-3.7-6.8c-1.2,2.8-2.8,5.1-4.6,7.4
			C61.1,240.8,63.8,241.4,66.8,241.1z M171,328.6c-1.9-2.3-3.3-4.1-4.5-6.3c-1.3,2.5-2.8,4.6-5.2,6.6
			C164.6,328.7,167.5,328.2,171,328.6L171,328.6z M173.9,364.5c-2.6,0.4-5.1,1-8.1,0.9c1.8,2,2.7,4.1,3.9,6.2
			C170.8,368.9,172.2,366.7,173.9,364.5L173.9,364.5z M196.6,301c2,2.1,3.2,4.2,4.5,6.7c0.5-2.9,2.1-4.7,3.2-7.4
			C201.7,301.2,199.4,301.1,196.6,301L196.6,301z M67.1,304c-1.6-2.2-2.6-4.2-3.5-6.6c-0.7,2.7-2,4.8-3.5,7.1
			C62.4,304,64.5,303.9,67.1,304L67.1,304z M79.8,333.8c-0.1,0-0.1,0.1-0.2,0.2c0.1,0,0.1,0.1,0.2,0.2c0.1-0.1,0.1-0.2,0.2-0.2
			C79.9,333.9,79.8,333.8,79.8,333.8L79.8,333.8z"/>
		<path class="st1" d="M164.3,160.5c6.9-7.2,8.2-15.3,3.8-23.3c-5.1-9.1-17.4-11.9-26.2-6c-8.6,5.8-10.8,18-4.6,26.2
			c0.5,0.6,1.2,1.1,1.3,2.1c-8.8-2.3-15.6,0.8-21.3,7.5c1.3-4.9,0.7-9.5-1.5-13.9c-2.3-4.5-5.9-7.4-10.6-9.2
			c-8.1-3-18.9,0.4-23.6,11.1c-2.6-6.6-7.1-11-13.9-12.6c-5-1.2-9.7-0.1-14,2.5c-9.8,6-11,16.9-3.2,29.4c-3.4-0.4-6.6-0.3-9.6,0.8
			c-3.1,1.1-5.8,2.9-8,5.4c-0.8,1-1,1.9-0.3,3.2c1.3-1.4,2.3-2.8,3.7-3.9c6.5-5.4,15.8-5.1,22,0.9c6,5.8,6.7,15.7,1.6,22.1
			c-8.1,10.2-22.8,8.4-28.4-3.6c-1.9-4.1-2-8.5-0.2-12.7c0.3-0.8,0-1.8,0.8-2.4c0.2-0.1,0.3-0.2,0.5-0.3c-0.1-0.1-0.2-0.1-0.3-0.2
			c0,0.2-0.1,0.4-0.1,0.6c-1.7-0.5-0.5,1.3-1.5,1.6c0-1.8,0-3.4,0-5.1c0.2-8,1.2-15.9,1.8-23.8c0.6-7.4,1.5-14.8,1.8-22.1
			c0.2-4.5,0.3-9,0.8-13.5c1.2-12.3,2.4-24.6,8.1-36c2-3.9,5.2-6.6,8.6-9.1c1-0.8,2.1-1.4,2-3.1c8.7,3.1,17.3,5.1,26.3,6.1
			c6.2,0.7,12.3,1.8,18.4,2.3c8.1,0.7,16.2,1.1,24.3,1.4c8.3,0.4,16.4,1.7,24.7,1.8c6.1,0.1,12.3,0.2,18.4,0.3
			c5.4,0,10.8,0.2,16.2,0.4c6.8,0.2,13.7-0.1,20.5-0.3c11.3-0.3,22.6-0.7,33.9-1.2c9.1-0.4,18.2-1.4,27.3-2.6
			c1.1-0.1,2.1-0.5,3.2-0.8c1.7-0.5,3.5-1.4,4.7,0.9c0.1,0.3,0.7,0.5,1.1,0.5c4.9,0.1,8.2,3.5,11.9,6.1c1.9,1.4,2.8,3.8,3.3,6
			c2.1,10.3,4.1,20.5,2.8,31.2c-1.5,12-1.4,24.2-1.1,36.3c0,0.7,0,1.5,0,2.7c-6.3-11-12.7-15-21.1-13.4c-4.9,0.9-8.9,3.3-12,7.2
			c-3.1,3.8-3.1,8.5-4,13.3c-4.1-3-8.6-4.7-14.1-4.4c4-4,6.4-8.4,6.6-13.7c0.2-5.4-1.7-10-5.4-13.9c-6.1-6.3-16.1-7.3-23.5-2.5
			c-8.3,5.4-10.2,14.2-5.4,26.2c-9.9-1.8-17.3,1.8-22.3,10.9c-1.7-5.2-4.6-9.1-9.3-11.5c-4.6-2.4-9.4-2.9-14.4-1.4L164.3,160.5
			L164.3,160.5z"/>
		<path class="st1" d="M270.5,59c-7.9,2.6-15.8,1.5-23.6,1.6c-4.3,0.1-8.6-0.1-12.9-0.2c-1.3,0-2.1,0.5-2.1,1.7
			c0,1.3,0.4,2.2,2.1,2.1c10.8-0.2,21.5,0.8,32.2-0.6c0.4,0,0.8,0,1.1,0c1,0.8-0.3,2.3,2.1,2.6c-3.6,1.1-6.4,1.3-9.2,1.4
			c-9.6,0.2-19.1,1-28.7,0.9c-1.3,0-3.1-0.4-3.4,1.6c-0.2,1.6,1.7,2.5,3.9,2.4c9-0.4,18-1,27-1.1c5.2-0.1,10.2-1.1,15.3-2.2
			c2.1,2.1,1.5,4.3-1.7,5.6c-4.2,1.7-8.7,2.6-13.2,3.2c-4.5,0.6-9,0.8-13.5,1.3c-9.9,1.2-19.9,1.1-29.8,1.4
			c-11.5,0.4-22.9,1.1-34.4,0.9c-11.7-0.2-23.5-0.3-35.2-0.7c-5.4-0.2-10.8-0.4-16.2-1.3c-5.3-0.8-10.8-0.9-16.2-1.1
			c-8.4-0.2-16.7-0.9-25-2c-9.7-1.2-19.4-2.2-28.7-5.2c-3-1-6-2.1-9-3.2c-0.8-0.3-2-0.7-1.9-1.9c0-1.2,1.1-1.7,2.1-2
			c1.2-0.4,2.5-0.3,3.2-1.5c6.6,2,13,4.5,19.9,5.6c15.2,2.5,30.5,4.1,45.9,4.3c19.8,0.3,39.5,1.4,59.3,0.9c5.8-0.2,11.6-0.1,17.5-1
			v-3.2c-4.1-0.4-8.1,0.3-12.2,0.4c-5.8,0.1-11.6,0.3-17.5,0.3c-7.5,0-15-0.1-22.4-0.4c-13.1-0.7-26.3-0.4-39.4-1.2
			c-4.7-0.3-9.4-0.5-14.1-1.1c-11.8-1.6-23.6-3.1-34.8-7.5c-1-0.4-1.5-1-1.8-1.9c-0.1-0.4-0.1-0.8-0.2-1.2c-0.2-1.1-0.3-2.2-0.5-3.6
			c47.4,11.7,95.3,13.2,143.5,10.3c0.4-3.9,0-4.2-3.2-3.7c-7.2,1.1-14.4,1.1-21.7,0.8c-3.6-0.2-7.1,0.3-10.7,0.6
			c-7.1,0.6-14.1-0.5-21.2-0.4c-10,0.2-20.1-0.7-30.1-1.6c-7.3-0.7-14.5-1.9-21.7-3c-9.8-1.4-19.3-3.9-29.1-5.2
			c-1.7-0.2-2.5-0.9-2.5-2.5c-0.1-1.5-0.7-2.8-2.2-4.3c3.3,0.5,6,0.6,8.6,1.4c5.9,1.8,12,2.4,18,3.6c9.3,2,18.8,2.2,28.2,3.4
			c8.2,1,16.5,1,24.7,1.4c15.6,0.8,31.2-0.3,46.8,0.6c4.7,0.3,9.4-0.5,14-0.3c1.1,0,2.2-0.4,2.1-1.3c-0.1-1.1-0.6-2.4-2.2-2.3
			c-1.2,0-2.4,0.2-3.6,0.2c-7.7,0.5-15.4,0.1-23.2-0.1c-7.8-0.2-15.6,0.1-23.4,0c-8.1-0.1-16.3-0.2-24.4-0.8
			c-10.6-0.8-21.1-1.8-31.6-3.1c-6.2-0.8-12.4-2.3-18.6-3.1c-3.4-0.4-6.6-1.7-10-2.4c-1.3-0.3-1.3-0.4-2.2-3.8
			c4.2,0.4,8.3,0.6,12.3,1.2c10.1,1.5,20.2,2.3,30.4,2.9c9.9,0.6,19.8,1.8,29.7,2.6c9.3,0.8,18.6,1.4,27.9,1.3
			c7.6-0.1,15.1,0.9,22.7,0.9c5.9,0,11.8,0.8,17.6-0.5c1.2-0.3,2-0.7,1.7-2c-0.3-1.2-0.9-2-2.4-1.7c-8.2,1.6-16.5,0.9-24.8,0.5
			c-8.7-0.4-17.4-0.5-26-0.8c-6.8-0.2-13.5-0.9-20.3-1.5c-9.9-0.8-19.8-1.6-29.7-2.5c-3.4-0.3-7,0.2-10.2-0.5
			c-3.8-0.9-7.6-0.5-11.4-1.5c-4.2-1.1-8.7-1.1-13-1.5c-0.9-0.1-1.7-0.2-2.5-0.8c4.8-1.4,9.7-1.8,14.5-2.5c4.4-0.6,8.8-1.3,13.3-1.2
			c11.2,0.2,22.4,0,33.6,1.1c9.8,1,19.7,1.2,29.6,1.5c9.5,0.3,18.9,1,28.4,1.4c14.1,0.5,28.2,0.9,42.3,1.3c7.4,0.2,14.6-1,22-1.2
			c6.3-0.2,12.6-0.2,18.9,0c2,0.1,3.7,1,5.1,2.3c1.5,1.3,0.9,3.5-1,4.1c-8.6,2.7-17.4,3.6-26.4,3.7c-3,0-6,0.7-9.1,0.4
			c-0.9-0.1-1.3,0.5-1.2,1.4c0,1.1,0.4,1.9,1.6,2c1.7,0.1,3.3,0,5,0c6.8-0.1,13.5-0.5,20.2-1.4c2.4-0.3,4.7-1.3,7.1-1.9
			c2.6-0.7,5.7,2.3,5.2,4.9c-0.2,1.2-0.9,1.6-2.1,1.8c-5.5,0.8-11.1,0.6-16.7,1.2c-6.4,0.7-12.7-0.6-19.1-0.2
			c-1,0.1-2.5-0.6-2.6,1.2c0,1.6,1,2.4,2.6,2.4c8.5-0.1,17,1,25.5-0.3c2.6-0.4,5.2-0.4,7.8-0.5C268.3,55,269,57.4,270.5,59L270.5,59
			z"/>
		<path class="st1" d="M253.3,167.2c1.2-0.9,1.7-1.9,2-2.9c2.5-7.2,8.6-11.8,15.7-11.8c7.3-0.1,13.2,4.5,16.2,11.6
			c0.7,1.7,0.8,3.4,1.6,5.1c0.3,0.7-0.9,2.1-1.2,3.2c-0.8,4-2.8,7.2-5.9,9.8c-9.5,7.8-21.7,2.6-25-4.8c-1.2-2.7-2.5-5.3-2.4-8.4
			C254.5,168.2,254.6,167.3,253.3,167.2L253.3,167.2z"/>
		<path class="st2" d="M63.8,143.9c9.1,0,16.7,7.7,16.7,16.9c0,9.1-7.7,16.7-16.8,16.7c-9.1,0-16.7-7.7-16.7-16.9
			C47,151.4,54.7,143.8,63.8,143.9z"/>
		<path class="st1" d="M116,161.7c-0.1,9.1-7.8,16.7-16.9,16.6c-9.1-0.1-16.7-7.8-16.6-16.9c0.1-9.1,7.8-16.7,16.9-16.6
			C108.4,144.9,116,152.6,116,161.7z"/>
		<path class="st2" d="M167.2,210.6c0,9.1-7.7,16.7-16.8,16.7c-9.1,0-16.7-7.7-16.7-16.8c0-9.1,7.7-16.7,16.8-16.7
			C159.7,193.7,167.3,201.4,167.2,210.6L167.2,210.6z"/>
		<path class="st1" d="M222.4,181.3c0,9.1-7.7,16.7-16.9,16.7c-9.1,0-16.7-7.7-16.6-16.9c0-9.1,7.7-16.7,16.9-16.7
			C214.8,164.5,222.4,172.2,222.4,181.3L222.4,181.3z"/>
		<path class="st2" d="M182.1,245.6c0,9.1-7.7,16.7-16.8,16.7c-9.1,0-16.7-7.7-16.7-16.8c0-9.1,7.7-16.7,16.8-16.7
			C174.5,228.7,182.1,236.4,182.1,245.6L182.1,245.6z"/>
		<path class="st2" d="M200.9,231.6c9.1,0.1,16.7,7.8,16.6,16.9c-0.1,9.1-7.8,16.7-16.9,16.6c-9.1,0-16.7-7.8-16.6-16.9
			C184.1,239.1,191.8,231.5,200.9,231.6z"/>
		<path class="st2" d="M149.7,297.8c9.1,0.1,16.7,7.8,16.6,16.9c-0.1,9.1-7.8,16.7-16.9,16.6c-9.1-0.1-16.7-7.8-16.6-16.9
			C132.8,305.3,140.5,297.7,149.7,297.8z"/>
		<path class="st2" d="M81.5,322.7c0,9.1-7.7,16.8-16.8,16.7c-9.1,0-16.7-7.7-16.7-16.9c0.1-9,7.7-16.8,16.7-16.6
			C73.2,306.2,81.5,312.9,81.5,322.7L81.5,322.7z"/>
		<path class="st3" d="M243,152.6c-0.1,9.1-7.8,16.7-17,16.6c-9.1-0.1-16.6-7.9-16.5-17.1c0.1-9,7.8-16.5,16.9-16.5
			C235.4,135.8,243,143.5,243,152.6L243,152.6z"/>
		<path class="st3" d="M133.2,194.1c-9.1,0-16.8-7.8-16.7-16.9c0.1-9.1,7.8-16.7,17-16.6c9,0.1,16.6,7.7,16.6,16.8
			C150,186.5,142.3,194.2,133.2,194.1z"/>
		<path class="st3" d="M222.2,234.4c-9.1-0.1-16.7-7.9-16.5-17c0.1-9.1,7.9-16.6,17.1-16.5c9,0.1,16.5,7.9,16.4,16.9
			C239.1,226.9,231.3,234.5,222.2,234.4L222.2,234.4z"/>
		<path class="st3" d="M249.7,267.7c-0.1,9.1-7.8,16.7-16.9,16.6c-9.1-0.1-16.7-7.9-16.6-17c0.1-9,7.8-16.5,16.8-16.5
			C242.1,250.8,249.7,258.5,249.7,267.7z"/>
		<path class="st3" d="M130.3,307.4c0,9.1-7.7,16.8-16.9,16.7c-9.1,0-16.7-7.8-16.7-16.9c0.1-9,7.7-16.6,16.8-16.6
			C122.7,290.6,130.4,298.2,130.3,307.4L130.3,307.4z"/>
		<path class="st3" d="M63.1,276.6c-9.1,0-16.7-7.8-16.6-17c0.1-9.1,7.8-16.7,17-16.6c9,0.1,16.5,7.8,16.5,16.8
			C80,269,72.3,276.7,63.1,276.6L63.1,276.6z"/>
		<path class="st1" d="M81.4,212.4c9.6,0.3,16.6,7.4,16.3,16.8c-0.2,9.1-8.1,16.5-17.3,16.2c-9.1-0.2-16.5-8.1-16.2-17.4
			C64.5,218.9,71.9,212.1,81.4,212.4L81.4,212.4z"/>
		<path class="st3" d="M168.7,377.9c0,6.5-6.9,15.8-11.3,16.3c-6.5,0.8-12.6,0.7-17.4-4.7c-3.1-3.4-4.8-7.3-4.8-11.9
			c0-9,7.7-17.1,16.7-16.4C160.7,361.8,168.5,367.3,168.7,377.9L168.7,377.9z"/>
		<path class="st2" d="M130.3,328.9c10.2,0,17.8,7.2,18.2,15.8c0.4,8.9-6.3,16.8-15.1,17.6c-8.7,0.9-16.9-5.6-18.2-14.4
			c-0.1-0.8,0-1.6,0.2-2.3c0.6-1.9,0.8-3.9,1.1-5.9c0.5-3.6,3.1-5.9,5.8-7.8C125.1,329.9,128.3,329,130.3,328.9L130.3,328.9z"/>
		<path class="st1" d="M249.8,220.1c10.4,0,18.2,8.4,17.6,18c-0.6,9.4-9.8,16.9-18.9,15.4c-9.6-1.6-16.2-10.8-14.2-19.8
			c0.2-1.1,0.7-2.1,1.5-2.9c1-1.1,2.1-2.3,2.7-3.6C240.7,221.5,245.6,220.7,249.8,220.1L249.8,220.1z"/>
		<path class="st3" d="M237.9,325.1c9.6,0.1,16.6,6.3,17.9,14.6c1.1,7.4-3.9,15.5-11.1,17.9c-8,2.7-16.5-0.6-20.3-7.8
			c-0.5-0.9-0.7-1.7-0.7-2.7c0-1.3-0.1-2.6-0.3-3.8c-1.3-6.3,1-11.8,6.4-15.3C232.8,326.1,235.9,325.1,237.9,325.1L237.9,325.1z"/>
		<path class="st2" d="M132.7,377.9c0,6.5-4.7,13.5-10.4,15.8c-0.3,0.1-0.8,0.1-1.1,0.1c-3.4-0.2-6.8-0.6-10.3-0.7
			c-5.8-0.1-8.2-4.4-10.3-8.7c-2.9-6.1-1.3-13.5,3.5-18.3c4.8-4.8,11.8-6.2,18.1-3.7C128.5,364.8,132.8,371.2,132.7,377.9
			L132.7,377.9z"/>
		<path class="st3" d="M200.3,314.7c-0.1,8-5.9,14.7-14.1,16.3c-7.1,1.4-15.2-3.1-18-10c-0.3-0.8-0.6-1.7-0.4-2.6
			c0.6-2.6,0.6-5.2,0-7.8c-0.5-2.2,0.9-3.9,1.9-5.5c4.1-6.2,11.7-8.8,18.9-6.5C195.6,300.8,200.4,307.4,200.3,314.7L200.3,314.7z"/>
		<path class="st2" d="M167.2,363.4c-9.1,0-16.7-7.5-16.7-16.5c0-9.1,7.7-16.6,16.9-16.5c9.1,0.1,16.6,7.6,16.6,16.6
			C184,355.9,176.3,363.4,167.2,363.4z"/>
		<path class="st1" d="M235.3,312.5c0,9.1-7.5,16.8-16.4,16.8c-9.1,0-16.7-7.6-16.6-16.8c0-9.1,7.6-16.7,16.5-16.7
			S235.3,303.5,235.3,312.5L235.3,312.5z"/>
		<path class="st2" d="M170.1,162.1c9.1,0,16.7,7.5,16.8,16.5c0,9.1-7.7,16.6-16.9,16.6c-9.1-0.1-16.7-7.6-16.6-16.6
			S161,162.1,170.1,162.1L170.1,162.1z"/>
		<path class="st2" d="M97.8,291.9c0,9.1-7.4,16.8-16.4,16.9c-9.1,0.1-16.7-7.6-16.7-16.8c0-9.1,7.5-16.7,16.5-16.7
			C90.1,275.2,97.7,282.8,97.8,291.9z"/>
		<path class="st1" d="M221.9,346.9c-0.1,9.1-7.7,16.6-16.7,16.5c-9-0.1-16.5-7.9-16.4-17.1c0.1-9,7.8-16.5,16.8-16.4
			C214.6,330,222,337.7,221.9,346.9z"/>
		<path class="st3" d="M251.5,314.5c-9.1-0.1-16.7-7.7-16.6-16.6c0.1-8.3,7-16.6,16.9-16.4c9.1,0.1,16.7,7.7,16.6,16.7
			C268.3,307.1,260.6,314.5,251.5,314.5L251.5,314.5z"/>
		<path class="st2" d="M114.6,276.1c0-9.1,7.6-16.7,16.5-16.7c9,0,16.6,7.8,16.5,17c-0.1,9.1-7.7,16.6-16.7,16.6
			C122,292.9,114.5,285.2,114.6,276.1L114.6,276.1z"/>
		<path class="st2" d="M129.9,209.1c0,9.1-7.6,16.7-16.6,16.7c-9,0-16.7-7.7-16.4-16.8c0.2-8.9,6.8-16.6,16.5-16.7
			C122.4,192.2,129.9,200,129.9,209.1z"/>
		<path class="st3" d="M270,223.9c-9,0-16.5-7.7-16.5-16.8c0-9.1,7.6-16.8,16.5-16.7c4.4,0,8.2,1.7,11.4,4.7c3.3,3,5.4,7.1,5.3,11.1
			C286.7,215.3,280.9,223.4,270,223.9L270,223.9z"/>
		<path class="st3" d="M270,250.3c8.6,0,17.8,8.4,17,16.5c-0.9,9.2-6,16.5-16.9,16.9c-9,0.3-16.5-7.6-16.5-16.7
			C253.5,258,261,250.3,270,250.3L270,250.3z"/>
		<path class="st3" d="M29.7,292.1c-0.6-2,0.5-4.1,0.1-6.4c-0.2-1.2,1.4-1.4,2-2.3c4.7-6.7,12.1-9.2,19.5-6.7
			c6.2,2.1,10.9,8.7,11,15.5c0.1,6.9-4.3,13.6-10.6,15.9c-6.7,2.5-13.8,0.5-18.4-4.8C30.4,300,29.2,296.4,29.7,292.1L29.7,292.1z"/>
		<path class="st3" d="M97.7,356.2c-9.1,0-16.7-7.6-16.6-16.6c0.1-9,7.8-16.5,16.9-16.4c9.1,0,16.7,7.6,16.6,16.6
			C114.5,348.8,106.8,356.2,97.7,356.2z"/>
		<path class="st3" d="M98.7,193.8c0,9.1-7.6,16.7-16.6,16.7c-9-0.1-16.5-7.8-16.4-16.9c0.1-9.1,7.7-16.7,16.6-16.7
			C91.3,177,98.8,184.7,98.7,193.8z"/>
		<path class="st3" d="M131.5,257c-6.8-0.5-12.2-3.7-15-10.2c-2.8-6.6-1.6-12.7,3.2-18c4.4-4.9,11.6-6.8,17.7-4.3
			c5.2,2.1,9.8,5.7,10.4,11.5c0.5,4.4-0.2,9.4-2.2,13.3C142.9,254.6,137.6,256.8,131.5,257z"/>
		<path class="st3" d="M99.6,277.1c-9.1,0-16.7-7.6-16.7-16.6s7.7-16.5,16.8-16.5c9.1,0,16.7,7.6,16.7,16.6S108.7,277.1,99.6,277.1z
			"/>
		<path class="st3" d="M203.7,213.1c0,9-7.6,16.5-16.7,16.6c-9.1,0-16.8-7.5-16.8-16.5c0-9,7.6-16.5,16.7-16.6
			C196,196.6,203.7,204.1,203.7,213.1L203.7,213.1z"/>
		<path class="st3" d="M45.9,373.8c-0.2,0.4-0.8,0.8-0.9,0.5c-1.1-2.7-4-3.4-5.7-5.4c-4-4.7-6.5-9.9-6.9-16.1
			c-0.1-2.1,1-3.7,2.1-5.4c3.9-6.3,10.8-9.4,17.5-8c7.4,1.6,12.6,7.2,13.6,14.5c0.9,6.7-2.9,13.6-9.4,16.9c-2.5,1.3-5.2,1.9-8.1,1.7
			c-1-0.1-2-0.1-1.7,1.4C46.3,373.9,46.1,373.8,45.9,373.8L45.9,373.8z"/>
		<path class="st2" d="M240.1,201.8c-9.1-0.2-16.5-6.9-16.5-14.8c0.1-11.5,5.4-17.6,16.5-18.1c9.1-0.4,16.7,7.5,16.7,16.4
			C256.9,194.3,249.2,201.8,240.1,201.8z"/>
		<path class="st3" d="M163.7,297.7c-6.9-0.1-13.5-4.9-15.6-11.4c-0.4-1.1-0.4-2.1,0.1-3.2c0.9-2.1,1.7-4.4,1.3-6.7
			c-0.8-4.5,1.9-7,5.1-9.2c5.8-4.1,13.8-3.8,19.3,0.4c6.1,4.7,8.3,12,5.8,19.2C177.4,293.1,170.6,297.8,163.7,297.7L163.7,297.7z"/>
		<path class="st2" d="M200.4,299.1c-9.4,0-16.5-6.2-17.7-14.6c-1.1-7.6,4.1-16.1,12-17.5c6-1,12.6-1.1,17.3,4.7
			c4.4,5.4,5.6,11.3,2.6,17.6C211.6,295.8,206.3,298.8,200.4,299.1z"/>
		<path class="st3" d="M80.5,355.8c7.8,0,14.2,4.8,16.3,11.6c2.3,7.4-0.3,14.7-6.6,19.1c-3,2.1-6.1,3.1-9.8,2
			c-2.5-0.7-5.1-1.2-7.7-1.7c-2.4-0.4-3.6-2.4-4.7-3.9c-4.9-6.6-4.4-15.5,1-21.7C72.2,357.7,76.4,356,80.5,355.8z"/>
		<path class="st3" d="M205.9,378.1c-3.2,2-7,0.2-9.5,2.9c1.5,3.4,4.6,1.4,7,2.1c-1.8,4-4.4,7.1-8.1,9.5c-2.8,1.7-6.1,2.6-8.9,2.2
			c-4.1-0.5-8.2-2.3-11.3-5.7c-4.7-5.3-5.8-12.6-2.7-18.7c3.2-6.3,10-10.1,16.7-9.3c7.2,0.8,12.9,6,14.6,13.2
			C204.1,375.6,203.6,377.3,205.9,378.1L205.9,378.1z"/>
		<path class="st3" d="M152.2,163c-8.9,0-16.5-7.5-16.5-16.5c0-9.1,7.6-16.6,16.6-16.6c8.9,0.1,16.4,7.6,16.4,16.6
			C168.7,155.5,161.1,163,152.2,163L152.2,163z"/>
		<path class="st1" d="M286.1,325c0,2.7,0,6.2,0,9.7c0,4.3-3.6,6-6.5,7.9c-6.6,4.2-14.5,3.3-20.3-1.9c-1-0.9-1.7-1.8-2-3.2
			c-0.3-1.3-0.7-2.7-1.4-3.8c-3.6-5.5-1.7-10.5,1.7-15c6.8-8.9,19.4-8.8,26.4-0.1C285.3,320.2,287.1,321.7,286.1,325L286.1,325z"/>
		<path class="st3" d="M32.2,237.8c-1-0.6-1.6-1.3-1.5-2.5c0.1-5-0.4-10,0.1-14.9v0.1c0.1-0.1,0.3-0.3,0.4-0.4
			c0.3-0.7,0.6-1.4,0.9-2.2c2.1-1.6,3.6-3.8,6.1-4.9c8.2-3.8,18.7-1.4,22.8,8.3c3.7,8.9-0.9,19.4-9.8,22.3c-6.7,2.2-14.3,0.1-17.8-5
			C33.4,237.7,32.4,238.4,32.2,237.8L32.2,237.8z"/>
		<path class="st1" d="M288.2,263.2c-1.2-5.2-3.9-9.2-8.4-12c-4.5-2.8-9.3-3.6-14.9-2.1c5.7-8,5.9-15.8,0.6-23.6
			c13,0.9,18.5-2.9,23.1-16.4C287.8,227.6,289.3,245.4,288.2,263.2L288.2,263.2z"/>
		<path class="st1" d="M265.2,310.9c5.8-7.3,7.6-15.8,0.2-25.7c5.1,1.1,9.8,0.5,14.1-2.2c4.2-2.6,7.1-6.1,8-11.1
			c1,2,0.4,30.8-1.1,46.4C280.9,311.5,274,308.9,265.2,310.9L265.2,310.9z"/>
		<path class="st1" d="M31.8,348c-1.3-15.5-1.6-30.8-2.3-46.7c5.1,7.9,11.9,10.8,20.7,9.4c-6.2,9.2-5.4,17.9,2.4,26.3
			C43.2,336.6,36,339.5,31.8,348L31.8,348z"/>
		<path class="st3" d="M256.1,390.3c-0.1-1.2-1.2-1.1-2-1.2c-6.2-1.1-10.2-5.1-13.2-10.5c3.5-1,6.8-2.4,10-3.9
			c5-2.4,8.6-6.3,12.1-10.5c1.7-2,2.8-4.4,4.9-6c0.9-0.1,1.3,0.4,1.4,1.2c-0.4,0.1-0.8,0.2-1.4,0.4c1.8,2.1,3.5,4.1,4.5,6.6
			c1.9,5,1,9.6-0.9,14.5c-2.3,5.9-7.3,7.1-12.2,8.8c-0.8,0.2-1.9,0.8-2.9,0.6l-0.1,0.1L256.1,390.3L256.1,390.3z"/>
		<path class="st1" d="M32.2,237.8c0.2,0.6,1.2-0.1,1.2,0.7c-0.3,0-0.7-0.7-0.9,0c-0.3,1-0.4,1.9,0.6,2.8c3.4,3.1,7.3,4.8,11.8,5.1
			c1.8,0.1,3.5-0.1,5.6-0.6c-8.1,9.7-7.9,19.1,0.5,28.5c-8.7-1.6-15.6,0.7-21.1,7.8c0-1.8,0-3.6,0-5.4c0.2-12.2,0.5-24.4,0.7-36.6
			C30.6,238.8,31,238.1,32.2,237.8L32.2,237.8z"/>
		<path class="st1" d="M269.4,359.4c-0.1-0.8-0.5-1.3-1.4-1.2c0.6-2.1,1.2-4.3,1.8-6.4c0.3-1.1,0.1-2.2-1.1-2.5
			c-1.2-0.3-1.6,0.7-2,1.6c-0.6,1.5-0.8,3.3-1.8,4.4c-1.4,1.4-2.7-0.8-4.2-1.1c-2.3-0.4-4.5-0.3-7.1-0.3c2.5-3.6,4.1-7.2,4.3-11.8
			c4.4,3.5,9.1,5.5,14.6,4.9c5.1-0.6,9.8-2.5,12.9-7.7c0.5,3.1,0.3,5.4,0.2,7.8c-0.3,6.6-0.6,13.2-2.1,19.6
			c-1.4,5.8-4.9,10.3-9.5,14c0.3-1.3,0.1-2.6,1-3.7c0.3-0.4,0.3-1,0.4-1.6c0.9-6.1-0.9-11.3-5-15.9
			C270.1,359.3,269.8,359.1,269.4,359.4L269.4,359.4z"/>
		<path class="st1" d="M256.1,390.3l0.1,0.1l0.1-0.1c-3.4,2-7.3,2.4-11.1,2.8c-4,0.5-8,1-11.9,1.5c-0.8-0.3,0-1.1-0.8-1.6
			c-4.7,2.3-9.9,2.5-14.9,1.2c-5.2-1.3-7.8-6.2-11.1-10.8c0,0,0.4-0.4,1-0.4c10.8,0.3,21-2.9,31.6-4.2c0.2,0,0.3,0,0.5,0
			c-0.1,0.4,0.2,0.6,0.6,0.8c-0.9,5.1-3,9.5-7.6,12.5c3.1,1.4,6-1.7,8.8-8.9C245.3,387.8,249.7,391.3,256.1,390.3L256.1,390.3z"/>
		<path class="st1" d="M238.4,375c-10.9,0.9-21.2,4.7-32.1,3.6c0.6-5.1,2.3-9.7,6.6-13.1c7.6-6,19.2-4.2,24.4,3.9
			C238.5,371.1,238,372.9,238.4,375L238.4,375z"/>
		<path class="st1" d="M97.9,219.5c2.9,3.5,6.2,6.4,10.7,7.6c3.1,0.9,6.1,0.8,9.6,0.1c-5.7,7.2-6.8,14.7-2.6,22.9
			c-6.1-7-13.4-9.6-22.7-6.8c7-7.1,8.8-14.7,4.6-23.5C97.6,219.7,97.7,219.6,97.9,219.5L97.9,219.5z"/>
		<path class="st1" d="M67.3,359.4c1-7-1-12.9-6.5-18c7.4,0.6,13.7-1.3,18.7-6.9c-1.7,7.8,0.6,14.2,6.8,20
			c-7.7-1.7-13.6,0.5-18.7,5.2C67.5,359.6,67.4,359.5,67.3,359.4L67.3,359.4z"/>
		<path class="st1" d="M95.6,180c7.9,1.1,14.2-1.6,19.3-7.9c-1.5,7.4,0.5,13.7,5.5,19c-0.1,0.1-0.2,0.3-0.4,0.4
			c-7-2.5-13.4-1.2-19.4,3.8c0.4-6-1.8-10.8-5.3-15.1C95.4,180.2,95.5,180.1,95.6,180L95.6,180z"/>
		<path class="st3" d="M238.7,374.6c1.4-1.1,1.4-2.2,1.5-3.3c0.9-10,10-17,19.8-15.2c1.1,0.2,2.3,0.3,3.4,0.4
			C263.6,362.1,249.2,373.1,238.7,374.6L238.7,374.6z"/>
		<path class="st1" d="M214.5,234.6c5.9,2.5,11.6,2.3,17.6-1c-0.6,5.7,0.7,10.6,4.4,15.4c-7.3-0.9-13.1,1.5-18.1,6.2
			c2.8-7.8,0.6-14.3-4.2-20.2C214.2,234.9,214.4,234.8,214.5,234.6L214.5,234.6z"/>
		<path class="st1" d="M82.8,328.1c1.7-6.5,0.2-12.1-3.6-17.5c6.2,0.4,11.3-1.6,15.9-6.1c-0.6,6.6,1.4,11.9,6.1,16.8
			C93.5,320.6,87.7,323.1,82.8,328.1z"/>
		<path class="st1" d="M253.3,199.2c-2.8,6.8-2.1,13.2,2.3,19.6c-5.2-1.2-9.9-0.5-14.6,2.1c0.6-7-1.3-12.7-7-17.9
			c7.5,1.8,13.6,0.3,19-4.1C253.1,199,253.2,199.1,253.3,199.2z"/>
		<path class="st1" d="M117.6,289c-7.3-1.1-13,1.1-18.1,5.8c0.7-6.4-1.2-11.6-5.6-16.5c7.3,1.7,13.3,0.2,18.8-4.3
			C112.3,279.6,113.8,284.3,117.6,289L117.6,289z"/>
		<path class="st1" d="M237.7,285.6c-3.7,4.6-5.2,9.4-4.7,15c-5.4-5.8-11.6-7.8-19.3-6.2c3.4-4.6,5-9.5,3.9-15.7
			C223.3,284.6,229.5,287.4,237.7,285.6L237.7,285.6z"/>
		<path class="st1" d="M257.2,193c1-3.1,2-6.2,1.5-9.7c11,8.4,24.8,4.7,30.4-7.5c0.3,9.3,0.2,18.6-0.6,27.9
			c-1.2-4.2-3.1-7.9-6.4-10.8c-7-6-16.5-6.1-23.6-0.3c-0.3,0.2-0.7,0.4-1,0.6C257.4,193.2,257.3,193.1,257.2,193L257.2,193z"/>
		<path class="st1" d="M208.7,231.4c-9.9-4.3-18.8,0.1-23.1,6.1c-0.7,1-1.3,2.1-2,3.2c-4.8-11.7-13.1-15.9-25.4-13
			c4.8-2.5,8-6.3,10.1-11.6c2.2,8.7,7.5,13.8,15.9,15.3c7.2,1.3,13.2-1.9,19.7-10.3c0.7,3.9,2.7,7,5,9.9
			C208.9,231.1,208.8,231.2,208.7,231.4L208.7,231.4z"/>
		<path class="st1" d="M64.4,198.5c1.8,5.8,5.1,9.8,10.3,12.3c-7.6,4.7-7.8,4.9-11.3,11.3c-1.9-5.3-5.3-9.1-10.5-11.6
			C58.6,208.1,62.2,204.1,64.4,198.5L64.4,198.5z"/>
		<path class="st1" d="M192.9,265.3c-5.1,2.1-8.6,5.5-10.9,10.6c-1.9-6-5.7-10-11.3-12.5c5.5-1.9,9.4-5.2,12-10.8
			C184.3,258.6,187.7,262.6,192.9,265.3L192.9,265.3z"/>
		<path class="st1" d="M233.9,323.6c2.3-4.1,3.9-8.5,3.1-13.9c5.8,5.8,12.2,7.9,20.4,6c-3.3,3.9-5,7.8-5.4,12.5
			c-4.2-3.5-8.7-5.3-14-5.1C236.6,323.2,235.3,324,233.9,323.6L233.9,323.6L233.9,323.6z"/>
		<path class="st1" d="M180.2,333.2c5.6,0.4,10.8-0.6,15.2-4.3c2.9-2.4,4.9-5.4,6.1-9.4c1.6,3.5,3.7,6.2,7,8.7
			c-8.5-0.9-14.7,2-18.8,8.6c-4.7,7.8-3.6,15.3,2.2,22.8c-4-1-7.6-0.5-11.7,0.7c2.1-2.5,3.6-4.6,4.5-7.1c2.4-6.9,1.1-13-3.5-18.5
			C180.9,334.3,180.2,333.9,180.2,333.2L180.2,333.2L180.2,333.2z"/>
		<path class="st1" d="M158.7,263c-4.2,1.4-7.4,3.6-10.1,7.2c-2.2-5.8-6.1-9.7-12.1-12c4.6-1.3,8-3.9,10.8-7.6
			C149.3,256.5,153,260.5,158.7,263L158.7,263z"/>
		<path class="st1" d="M130.8,314.8c0.2,2.7,0.7,4.7,1.5,6.7c0.7,1.9,1.8,3.5,3.3,5.6c-8.1-0.5-14.6,1.7-19.4,8.6
			c-1.1-3.8-2.8-6.8-5.8-9.7c4.5,0.4,8.4-0.2,12.1-2.2C126,321.8,128.6,318.9,130.8,314.8z"/>
		<path class="st1" d="M92.7,357.7c3.9,0.8,7.8,0.7,11.5-0.7c3.8-1.4,6.8-3.8,9.3-7.3c1,3.5,2.6,6.5,5.3,9.4
			c-8.5-0.5-14.9,2.6-19.3,9.9C98.3,364.5,96.2,360.7,92.7,357.7z"/>
		<path class="st1" d="M146.1,286.9c1.5,3.6,3.3,6.4,6.6,9c-4.5-0.2-8.4,0.3-12,2.2s-6.2,4.9-8.2,8.8c-0.6-4.6-1.8-8.5-5-12.1
			c3.8,0.1,7.2,0,10.5-1.4C141.2,292.1,143.8,290.1,146.1,286.9L146.1,286.9z"/>
		<path class="st1" d="M45.9,373.8c0.2,0,0.3,0.1,0.5,0.2c5,1.4,9.3-0.5,13.4-3.1C61,370,62,369,63.3,368c-1.3,6.4,0,12,4.7,17.2
			c-3-0.5-5.2-1.5-7.4-2.4c-5.2-2.1-9.8-5.4-14.7-8.3C45.7,374.4,45.6,374,45.9,373.8L45.9,373.8z"/>
		<path class="st1" d="M205.3,209.7c-1.1-4.3-3-7.9-6.9-11c10.4,3,18,0,23.7-8.5c1,3.6,3,6.4,6,9.4
			C217.8,197.7,210.4,201,205.3,209.7L205.3,209.7z"/>
		<path class="st1" d="M187.6,185.8c1,4,3.1,6.9,6,9.8c-11.6-2.7-19.6,1.2-24.6,11.7c-1.1-4.7-3.1-8.5-6.9-11.6
			C173.1,199.2,181.5,196.1,187.6,185.8L187.6,185.8z"/>
		<path class="st1" d="M238.8,368c-5.6-6.8-12.4-9.1-21.1-7.3c2.4-2.9,4.5-5.5,5.3-9.2c4.8,6.6,11,9.7,19.4,8.8
			C241,362.8,239.5,365,238.8,368z"/>
		<path class="st1" d="M166.6,306.7c-1.4-2.6-3.1-4.9-5.7-7c9.6,0.5,16.5-3.2,20.6-11.9c1,3,2.6,5.5,4.9,8.1
			C177.3,295.4,170.7,298.9,166.6,306.7L166.6,306.7z"/>
		<path class="st1" d="M64.5,187.8c-1-3.6-2.8-6.4-5.4-8.9c10.3,1.6,17.7-2.3,22.3-11.7c1.1,3.1,2.8,5.7,5.2,8.2
			C78.5,173.9,69.4,176.6,64.5,187.8L64.5,187.8z"/>
		<path class="st1" d="M179.2,394.8c-6.3-0.1-12.6,0.5-18.8-0.3c4.6-2.2,7.2-5.9,9.3-10.6C171.5,388.9,175,392.2,179.2,394.8z"/>
		<path class="st1" d="M193.4,394c4.2,1.1,10.3-5.1,11.8-11.1c1.5,5.3,4.5,8.9,8.8,11.5C211.3,395.4,194.8,395.3,193.4,394
			L193.4,394z"/>
		<path class="st1" d="M125.1,394c4.5-2.4,7.2-6.2,8.9-11c1.7,5.1,4.7,8.9,9.9,11.5C137.2,394.9,131.2,394.6,125.1,394L125.1,394z"
			/>
		<path class="st1" d="M32.1,217.8c-0.3,0.7-0.6,1.4-0.9,2.2c-1.1-5.8-0.6-11.7-0.6-17.7c2.4,3.2,5.2,5.9,9.1,7.7
			c-2.9,1.4-5.4,2.8-7.3,4.9C31.6,215.8,30.6,216.7,32.1,217.8L32.1,217.8z"/>
		<path class="st1" d="M88,389.9c4.3-2,7.4-4.7,9.6-8.7c0.9,4.3,3,7.6,6.2,10.9C98.2,391.6,93.3,391,88,389.9L88,389.9z"/>
		<path class="st1" d="M131.8,206.7c-0.8-4.8-3-8.7-7.1-12.3c5.2,1.7,9.9,2.6,14.7,0.8C135.6,198.2,133.4,202.2,131.8,206.7
			L131.8,206.7z"/>
		<path class="st1" d="M151.6,181.2c0.9,5,3.2,8.7,6.5,11.9c-4.6-1.5-9.2-2-13.8-0.4C147.9,189.8,150.2,186.1,151.6,181.2
			L151.6,181.2z"/>
		<path class="st1" d="M157.6,164.5c-2.6,2.9-4.5,6-5.7,10.2c-1-4.1-2.3-7.3-5.4-10.3C150.4,164.9,154,165.3,157.6,164.5z"/>
		<path class="st1" d="M141,362.5c-3.1,2.7-5.7,5.7-7,10.2c-1.1-3.2-2.7-5.8-5-8.4c4.4,0.4,8.1-0.4,11.6-2.2
			C140.8,362.3,140.9,362.4,141,362.5L141,362.5z"/>
		<path class="st1" d="M68.4,278.1c-2.1,2.7-4,5.3-4.9,8.8c-1.5-3.3-3-6.4-6.3-9C61.3,278.5,64.8,278.9,68.4,278.1z"/>
		<path class="st1" d="M86.3,273.7c-3.4-0.5-6.9-0.7-11,0.4c3.1-2.9,4.9-5.8,6.1-9.8C82.2,268.3,84.4,271,86.3,273.7L86.3,273.7
			L86.3,273.7z"/>
		<path class="st1" d="M257,280.2c-3.7-0.8-6.7-0.9-10.3,0c2.7-3.1,4-6.4,5-9.9C252.6,273.8,254.1,277,257,280.2L257,280.2z"/>
		<path class="st1" d="M116.1,250.6c2.7,3.3,5.8,6,10.2,7.5c-3.1,0.9-5.5,2.3-8,4.5c0.3-4.4-0.7-8.2-2.7-11.6
			C115.8,250.9,116,250.7,116.1,250.6L116.1,250.6z"/>
		<path class="st1" d="M76.9,247.3c3.8,0.1,7.1,0.3,10.3-0.9c-2.3,2.8-4.5,5.5-5.5,9.4C80.5,252.7,79.6,249.9,76.9,247.3L76.9,247.3
			z"/>
		<path class="st1" d="M207.2,266c3.2-1.3,5.5-3.1,7.9-5c-0.6,3.3-1.1,6.5-0.7,10.4C212,269,210.1,267.2,207.2,266z"/>
		<path class="st1" d="M247.2,255.4c3,0.2,5.6,0.3,8.6-0.6c-2,3.3-3.6,6.2-4.2,9.6C250.7,261.2,249.4,258.3,247.2,255.4L247.2,255.4
			z"/>
		<path class="st1" d="M135.2,221.5c-2.7,0.3-5.4-0.4-8.2,0.6c1.9-2.9,3.6-5.7,4.4-9.5C132.6,215.9,133.7,218.8,135.2,221.5
			L135.2,221.5L135.2,221.5z"/>
		<path class="st1" d="M96.7,218.3c-2.3-2.7-4.7-5.2-8.3-6.7c2.3-1.4,4.5-2.3,6.5-4.4c-0.2,4.1,0.6,7.5,2.2,10.7
			C97,218,96.8,218.1,96.7,218.3L96.7,218.3z"/>
		<path class="st1" d="M142.8,361c2.7-2.4,5.1-5,6.5-8.6c1.2,2.4,2.1,4.6,4.1,6.8c-3.9-0.1-7.2,0.7-10.2,2.3
			C143,361.2,142.9,361.1,142.8,361L142.8,361z"/>
		<path class="st1" d="M205.4,373.3c-0.9-3.4-2.4-5.9-4.6-8.4c3.4,0.6,6.4,0.6,9.9-0.3C208.4,367.4,206.6,369.7,205.4,373.3z"/>
		<path class="st1" d="M149.8,340.4c-1-2.7-2.1-5-4.1-7.1c3.2-0.1,6.1,0.2,9.1-0.5C152.8,335.1,151,337.4,149.8,340.4L149.8,340.4z"
			/>
		<path class="st1" d="M147.1,229.2c3.3,0,6.7,0,10-0.9c-2.7,1.9-5.3,3.8-7.4,7C149.2,232.8,147.9,231.1,147.1,229.2L147.1,229.2
			L147.1,229.2z"/>
		<path class="st1" d="M66.8,241.1c-2.9,0.3-5.7-0.3-8.3,0.6c1.8-2.3,3.4-4.5,4.6-7.4C64.1,236.8,65.3,238.8,66.8,241.1z"/>
		<path class="st1" d="M171,328.6c-3.5-0.5-6.4,0-9.7,0.4c2.4-2,3.9-4.1,5.2-6.6C167.7,324.5,169.1,326.3,171,328.6L171,328.6z"/>
		<path class="st1" d="M173.9,364.5c-1.7,2.2-3.1,4.4-4.2,7.1c-1.2-2.1-2.1-4.2-3.9-6.2C168.8,365.5,171.3,364.9,173.9,364.5
			L173.9,364.5z"/>
		<path class="st1" d="M196.6,301c2.8,0.1,5.1,0.1,7.8-0.7c-1.1,2.6-2.8,4.5-3.2,7.4C199.8,305.3,198.6,303.2,196.6,301L196.6,301z"
			/>
		<path class="st1" d="M223.8,330.8c-0.7,2-2.2,3.7-2.6,6.1c-1.6-2-2.9-3.9-4.9-5.4C219,331.5,221.4,331,223.8,330.8L223.8,330.8
			L223.8,330.8z"/>
		<path class="st1" d="M67.1,304c-2.6-0.1-4.7,0-7.1,0.5c1.5-2.3,2.8-4.4,3.5-7.1C64.4,299.8,65.5,301.8,67.1,304L67.1,304z"/>
		<path class="st1" d="M221.6,170.5c2,0.7,4,0.7,6.3,0.7c-1.4,1.8-2.7,3.3-4.3,5.1C223.3,174,221.4,172.6,221.6,170.5L221.6,170.5z"
			/>
		<path class="st3" d="M240.2,379.7c-0.4-0.1-0.6-0.3-0.6-0.8c0.3-0.3,0.7-0.4,0.9,0C240.9,379.3,240.7,379.6,240.2,379.7
			L240.2,379.7z"/>
		<path class="st1" d="M95.3,180.3c-0.3-0.1-0.6-0.1-0.9-0.2c0.5-0.4,0.8-0.3,1.2-0.1C95.5,180.1,95.4,180.2,95.3,180.3z"/>
		<path class="st1" d="M97.1,217.9c0.2,0.3,0.3,0.6,0.5,1c-0.1,0.1-0.3,0.2-0.4,0.3c-0.2-0.3-0.3-0.6-0.5-0.9
			C96.8,218.2,97,218,97.1,217.9L97.1,217.9z"/>
		<path class="st1" d="M164.6,161c-0.4,0.2-0.7,0.2-1.2-0.1c0.3-0.1,0.6-0.2,0.9-0.3C164.4,160.6,164.5,160.8,164.6,161z"/>
		<path class="st1" d="M142.4,361.5c-0.1,0.5-0.6,0.5-0.9,0.5l-0.1-0.1c0.1-0.5,0.6-0.5,0.9-0.5L142.4,361.5L142.4,361.5z"/>
		<path class="st1" d="M180.2,333.2c-0.2-0.1-0.4-0.1-0.8-0.3C179.9,333,180.2,332.6,180.2,333.2L180.2,333.2L180.2,333.2z"/>
		<path class="st1" d="M214.1,235c-0.3-0.1-0.5-0.2-0.9-0.3c0.5-0.4,0.9-0.3,1.2-0.1C214.4,234.8,214.2,234.9,214.1,235L214.1,235z"
			/>
		<path class="st1" d="M252.9,198.9c0.1-0.1,0.4-0.4,0.4-0.3c0.4,0.2,0.1,0.4-0.1,0.7C253.2,199.1,253.1,199,252.9,198.9
			L252.9,198.9z"/>
		<path class="st1" d="M147.1,229.2c-0.1-0.1-0.2-0.2-0.3-0.3c0.1,0,0.1,0,0.2,0C147.1,229,147.1,229.1,147.1,229.2L147.1,229.2
			L147.1,229.2z"/>
		<path class="st1" d="M233.8,323.6l0,0.3c-0.1,0-0.2,0-0.3-0.1C233.7,323.8,233.8,323.7,233.8,323.6L233.8,323.6L233.8,323.6z"/>
		<path class="st1" d="M141.5,362c0,0.3-0.2,0.4-0.5,0.5c-0.1-0.1-0.2-0.2-0.3-0.4c0.2-0.1,0.4-0.1,0.7-0.2L141.5,362L141.5,362z"/>
		<path class="st1" d="M79.8,333.8c0.1,0,0.1,0,0.2,0.1c-0.1,0.1-0.1,0.2-0.2,0.2c-0.1,0-0.1-0.1-0.2-0.2
			C79.6,333.9,79.7,333.8,79.8,333.8L79.8,333.8z"/>
		<path class="st1" d="M257.5,193.3c-0.1,0.2-0.2,0.4-0.5,0.2c0,0,0.1-0.3,0.2-0.5C257.3,193.1,257.4,193.2,257.5,193.3z"/>
		<path class="st1" d="M86.2,273.8c0.1,0,0.2,0.1,0.4,0.2c-0.1,0-0.2,0.1-0.3,0.1C86.3,274,86.3,273.8,86.2,273.8L86.2,273.8
			L86.2,273.8z"/>
		<path class="st1" d="M120.4,191.1c0.1,0.2,0.1,0.3,0.2,0.5c-0.2,0-0.4-0.1-0.6-0.1C120.2,191.4,120.3,191.3,120.4,191.1
			L120.4,191.1z"/>
		<path class="st1" d="M209.1,231c0.2,0.1,0.4,0.2,0.2,0.4c-0.1,0.1-0.4,0-0.6-0.1C208.8,231.2,209,231.1,209.1,231L209.1,231z"/>
		<path class="st1" d="M221.6,170.4c-0.1,0.1-0.2,0.2-0.2,0.3c0,0-0.1-0.1-0.1-0.1C221.3,170.5,221.4,170.5,221.6,170.4
			C221.5,170.5,221.6,170.4,221.6,170.4L221.6,170.4z"/>
		<path class="st1" d="M135.1,221.5c0.1,0.1,0.2,0.2,0.3,0.3l-0.2,0C135.2,221.7,135.2,221.6,135.1,221.5L135.1,221.5L135.1,221.5z"
			/>
		<path class="st1" d="M115.7,251c-0.1-0.2-0.5-0.5-0.1-0.8c0.4-0.3,0.5,0.1,0.6,0.4C116,250.7,115.8,250.8,115.7,251L115.7,251z"/>
		<path class="st1" d="M30.7,220.4L30.7,220.4c-0.1-0.1-0.1-0.1-0.2-0.1C30.6,220.3,30.7,220.3,30.7,220.4L30.7,220.4z"/>
		<path class="st1" d="M97.4,219.8c-0.1-0.2-0.2-0.4-0.2-0.6c0.1-0.1,0.3-0.2,0.4-0.3c0.1,0.2,0.2,0.4,0.3,0.6
			C97.7,219.6,97.6,219.7,97.4,219.8L97.4,219.8z"/>
		<path class="st1" d="M223.9,330.8c-0.2-0.1-0.2-0.3,0-0.3c0.1,0,0.1,0,0.2,0C224,330.6,223.9,330.7,223.9,330.8L223.9,330.8
			L223.9,330.8z"/>
		<path class="st1" d="M67.7,359.7c-0.1,0.2-0.2,0.4-0.4,0.2c-0.1-0.1,0-0.4,0.1-0.5C67.4,359.5,67.6,359.6,67.7,359.7z"/>
		<path class="st1" d="M142.2,361.4c0-0.3,0.2-0.4,0.5-0.5c0.1,0.1,0.2,0.2,0.3,0.4c-0.2,0.1-0.4,0.1-0.7,0.2L142.2,361.4
			L142.2,361.4z"/>
		<path class="st0" d="M32.2,184.2c0-0.2,0.1-0.4,0.1-0.6c0.1,0.1,0.2,0.1,0.3,0.2C32.4,183.9,32.3,184,32.2,184.2
			C32.1,184.1,32.2,184.2,32.2,184.2z"/>
	</g>
</g>
</svg>
