<?xml version="1.0" encoding="utf-8"?>
<!-- Generator: Adobe Illustrator 26.5.0, SVG Export Plug-In . SVG Version: 6.00 Build 0)  -->
<svg version="1.1"
	 id="svg2" xmlns:cc="http://creativecommons.org/ns#" xmlns:dc="http://purl.org/dc/elements/1.1/" xmlns:sodipodi="http://sodipodi.sourceforge.net/DTD/sodipodi-0.dtd" xmlns:rdf="http://www.w3.org/1999/02/22-rdf-syntax-ns#" xmlns:inkscape="http://www.inkscape.org/namespaces/inkscape" xmlns:svg="http://www.w3.org/2000/svg" xmlns:ns1="http://sozi.baierouge.fr" inkscape:output_extension="org.inkscape.output.svg.inkscape" inkscape:version="0.46"
	 xmlns="http://www.w3.org/2000/svg" xmlns:xlink="http://www.w3.org/1999/xlink" x="0px" y="0px" width="551px" height="480px" viewBox="0 0 551 480"
	 style="enable-background:new 0 0 551 480;" xml:space="preserve">
<style type="text/css">
	.st0{fill:#FFFFFF;stroke:#000000;stroke-width:1.9744;}
	.st1{fill:#DE0000;}
	.st2{fill:#FF0000;}
	.st3{fill:url(#path4333_00000100363265865753864090000018172767410190018956_);}
	.st4{fill:none;stroke:#000000;stroke-width:0.7897;}
	.st5{fill:#FF6D6D;}
</style>
<sodipodi:namedview  bordercolor="#666666" borderopacity="1.0" gridtolerance="10000" guidetolerance="10" id="base" inkscape:current-layer="layer1" inkscape:cx="227.41427" inkscape:cy="544.30856" inkscape:document-units="px" inkscape:pageopacity="0.0" inkscape:pageshadow="2" inkscape:window-height="712" inkscape:window-width="1024" inkscape:window-x="-4" inkscape:window-y="-4" inkscape:zoom="0.49497475" objecttolerance="10" pagecolor="#ffffff" showgrid="false">
	</sodipodi:namedview>
<g id="layer1" inkscape:groupmode="layer" inkscape:label="Layer 1">
	
		<path id="path4323" inkscape:export-filename="C:\Documents and Settings\kmacphail1f\bookworm.png" inkscape:export-xdpi="90" inkscape:export-ydpi="90" class="st0" d="
		M45,8.8c-10.2,0.6-20,3.9-28.2,9.2L276,127.2v4.9c3.3-19.6-8.2-39.5-29.9-48.2L70.4,13.1C62.1,9.7,53.5,8.4,45,8.8L45,8.8z"/>
	
		<path id="path4325" inkscape:export-filename="C:\Documents and Settings\kmacphail1f\bookworm.png" inkscape:export-xdpi="90" inkscape:export-ydpi="90" class="st0" d="
		M505.9,9.3c10.2,0.6,20,3.9,28.2,9.2L274.9,127.7v4.9c-3.3-19.6,8.2-39.5,29.9-48.2l175.8-70.8C488.8,10.2,497.5,8.8,505.9,9.3z"/>
	
		<g id="g4327" transform="matrix(3.9488 0 0 3.9488 -1608.8 -235.07)" inkscape:export-filename="C:\Documents and Settings\kmacphail1f\bookworm.png" inkscape:export-xdpi="90" inkscape:export-ydpi="90">
		<path id="path4329" class="st1" d="M409.3,62.4L477,91.3v87.3l-67.7-28.9V62.4z"/>
		<path id="path4331" class="st2" d="M545,62.4l-67.7,28.9v87.3l67.7-28.9V62.4z"/>
	</g>
	
		<linearGradient id="path4333_00000066502181629550317580000005613985609425325193_" gradientUnits="userSpaceOnUse" x1="32.6381" y1="929.7748" x2="45.0114" y2="929.7748" gradientTransform="matrix(3.9488 0 0 -3.9488 122.1456 3965.2998)">
		<stop  offset="0" style="stop-color:#BE0000"/>
		<stop  offset="0.5" style="stop-color:#FF0000"/>
		<stop  offset="1" style="stop-color:#BE0000"/>
	</linearGradient>
	
		<path id="path4333" inkscape:export-filename="C:\Documents and Settings\kmacphail1f\bookworm.png" inkscape:export-xdpi="90" inkscape:export-ydpi="90" sodipodi:nodetypes="czcczcc" style="fill:url(#path4333_00000066502181629550317580000005613985609425325193_);" d="
		M251.1,115.6c0,0,12.6,4.5,24.5,4.7c12,0.3,24.4-4.6,24.4-4.6v345.4c0,0-7.6,11-24.4,11c-16.6,0-24.4-11.7-24.4-11.7L251.1,115.6
		L251.1,115.6z"/>
	
		<path id="path4335" inkscape:export-filename="C:\Documents and Settings\kmacphail1f\bookworm.png" inkscape:export-xdpi="90" inkscape:export-ydpi="90" sodipodi:nodetypes="cc" class="st4" d="
		M285.1,98.3L499.9,9.7"/>
	
		<path id="path4337" inkscape:export-filename="C:\Documents and Settings\kmacphail1f\bookworm.png" inkscape:export-xdpi="90" inkscape:export-ydpi="90" sodipodi:nodetypes="cc" class="st4" d="
		M280.7,104l225.6-93.9"/>
	
		<path id="path4339" inkscape:export-filename="C:\Documents and Settings\kmacphail1f\bookworm.png" inkscape:export-xdpi="90" inkscape:export-ydpi="90" sodipodi:nodetypes="cc" class="st4" d="
		M278.3,108.7l234-98.1"/>
	
		<path id="path4341" inkscape:export-filename="C:\Documents and Settings\kmacphail1f\bookworm.png" inkscape:export-xdpi="90" inkscape:export-ydpi="90" sodipodi:nodetypes="cc" class="st4" d="
		M276.8,112.2L516.3,11.6"/>
	
		<path id="path4343" inkscape:export-filename="C:\Documents and Settings\kmacphail1f\bookworm.png" inkscape:export-xdpi="90" inkscape:export-ydpi="90" sodipodi:nodetypes="cc" class="st4" d="
		M275.8,115.7l244.6-103"/>
	
		<path id="path4345" inkscape:export-filename="C:\Documents and Settings\kmacphail1f\bookworm.png" inkscape:export-xdpi="90" inkscape:export-ydpi="90" sodipodi:nodetypes="cc" class="st4" d="
		M275.8,118.7L524,14.3"/>
	
		<path id="path4347" inkscape:export-filename="C:\Documents and Settings\kmacphail1f\bookworm.png" inkscape:export-xdpi="90" inkscape:export-ydpi="90" sodipodi:nodetypes="cc" class="st4" d="
		M280.7,120L528.5,15.5"/>
	
		<path id="path4349" inkscape:export-filename="C:\Documents and Settings\kmacphail1f\bookworm.png" inkscape:export-xdpi="90" inkscape:export-ydpi="90" sodipodi:nodetypes="cc" class="st4" d="
		M265,97.6L50.2,9"/>
	
		<path id="path4351" inkscape:export-filename="C:\Documents and Settings\kmacphail1f\bookworm.png" inkscape:export-xdpi="90" inkscape:export-ydpi="90" sodipodi:nodetypes="cc" class="st4" d="
		M269.3,103.4L43.7,9.4"/>
	
		<path id="path4353" inkscape:export-filename="C:\Documents and Settings\kmacphail1f\bookworm.png" inkscape:export-xdpi="90" inkscape:export-ydpi="90" sodipodi:nodetypes="cc" class="st4" d="
		M271.8,108L37.7,9.9"/>
	
		<path id="path4355" inkscape:export-filename="C:\Documents and Settings\kmacphail1f\bookworm.png" inkscape:export-xdpi="90" inkscape:export-ydpi="90" sodipodi:nodetypes="cc" class="st4" d="
		M273.2,111.5L33.7,10.9"/>
	
		<path id="path4357" inkscape:export-filename="C:\Documents and Settings\kmacphail1f\bookworm.png" inkscape:export-xdpi="90" inkscape:export-ydpi="90" sodipodi:nodetypes="cc" class="st4" d="
		M274.2,115L29.6,12"/>
	
		<path id="path4359" inkscape:export-filename="C:\Documents and Settings\kmacphail1f\bookworm.png" inkscape:export-xdpi="90" inkscape:export-ydpi="90" sodipodi:nodetypes="cc" class="st4" d="
		M274.2,118L26,13.7"/>
	
		<path id="path4361" inkscape:export-filename="C:\Documents and Settings\kmacphail1f\bookworm.png" inkscape:export-xdpi="90" inkscape:export-ydpi="90" sodipodi:nodetypes="cc" class="st4" d="
		M269.4,119.3L21.5,14.8"/>
	
		<path id="rect7208" inkscape:transform-center-x="-154.18275" inkscape:transform-center-y="61.738575" sodipodi:nodetypes="cczcccczccc" class="st5" d="
		M10.3,10.8l241.6,102.4c0,0,14.1,5.3,23,5.4c9.4,0.1,23.5-4.5,23.5-4.5L536.9,10.7l6.4,0.7L299.7,115.8c0,0-11,4.6-24.8,4.6
		c-13.6,0-23.9-4.8-23.9-4.8L7.7,11.4L10.3,10.8L10.3,10.8z"/>
</g>
</svg>
