<?xml version="1.0" encoding="UTF-8"?>
<svg id="Layer_2" data-name="Layer 2" xmlns="http://www.w3.org/2000/svg" viewBox="0 0 207.3 230.03">
  <defs>
    <style>
      .cls-1 {
        fill: #fff;
      }

      .cls-2 {
        fill: #d00000;
      }
    </style>
  </defs>
  <g id="svg3118">
    <g id="layer1">
      <path id="path3924" class="cls-1" d="M98.9,.06c-.6,.1-1.3,.4-2.1,.9L5.2,49.56c-.8,.4-.7,.6,.1,.9l100.7,51.3c1.9,1,2.6,1,4.7-.1l90.1-53.5c2.1-1.3,2.2-1.5-.4-2.5L102.5,.86c-1.6-.7-2.6-1-3.6-.8h0ZM.2,56.46c-.2,.1-.2,.4-.2,1l.5,114.4c0,1.2,.1,1.5,1.3,2.2l98.2,54.8c2.3,1.5,2.7,1.3,2.5-1l1.5-116.4c.2-1.6-.5-2.4-1.5-2.9L1.2,56.86c-.5-.3-.8-.5-1-.4H.2Zm206.4-3c-.2,.1-.4,.2-.7,.4l-92.5,55c-1.9,1.3-1.7,1.6-1.7,3.2l-1.5,116.1c.3,1.7-.2,2.5,1.5,1.3l90.6-56.8c1.7-1.3,2.1-1.5,1.9-3.4l3-114.8c0-.9-.1-1.2-.6-1h0Z"/>
    </g>
    <g id="layer1-2" data-name="layer1">
      <path id="path3924-2" data-name="path3924" class="cls-2" d="M99,.06c-.6,.1-1.3,.4-2.1,.9L5.3,49.56c-.8,.4-.7,.6,.1,.9l100.7,51.3c1.9,1,2.6,1,4.7-.1l90.1-53.5c2.1-1.3,2.2-1.5-.4-2.5L102.6,.86c-1.6-.7-2.6-1-3.6-.8h0Zm-9.4,10.7c1.9-.4,4-.6,6.2-.6,8.9,.1,16,4.1,15.8,8.8-.2,4.7-7.5,8.5-16.4,8.3-8.9-.1-16-4-15.8-8.8,.2-3.5,4.3-6.5,10.2-7.7h0Zm-51.5,27.9c1.9-.4,4.1-.6,6.3-.6,8.9,.1,15.9,4,15.7,8.8-.2,4.7-7.5,8.5-16.4,8.4s-15.9-4.1-15.7-8.8c.1-3.6,4.2-6.5,10.1-7.8h0Zm84.1-12.8c1.9-.4,4.1-.6,6.3-.6,8.9,.1,15.9,4,15.7,8.8-.2,4.7-7.5,8.5-16.4,8.3-8.9-.1-15.9-4-15.7-8.8,.1-3.4,4.2-6.4,10.1-7.7ZM.3,56.46c-.2,.1-.2,.4-.2,1l.5,114.4c0,1.2,.1,1.5,1.3,2.2l98.2,54.8c2.3,1.5,2.7,1.3,2.5-1l1.5-116.4c.2-1.6-.5-2.4-1.5-2.9L1.3,56.86c-.5-.3-.8-.5-1-.4H.3Zm70.3-1.4c1.9-.4,4.1-.6,6.3-.6,8.9,.1,15.9,4,15.7,8.8-.2,4.7-7.5,8.5-16.4,8.3-8.9-.1-15.9-4-15.7-8.8,.2-3.5,4.3-6.4,10.1-7.7h0Zm84.9-13.5c1.9-.4,4.1-.6,6.3-.6,8.9,.1,15.9,4,15.7,8.8-.2,4.7-7.5,8.5-16.4,8.4s-15.9-4.1-15.7-8.8c.2-3.6,4.3-6.6,10.1-7.8h0ZM9.9,75.56c.3-.1,.7-.2,1-.2,4-.6,9.1,2.3,12.9,7.7,5,7.3,5.7,16.5,1.6,20.6-4.1,4-11.5,1.4-16.5-5.9s-5.7-16.5-1.6-20.6c.7-.7,1.6-1.3,2.6-1.6h0Zm94.2-4.2c1.9-.4,4.1-.6,6.3-.6,8.9,.1,15.9,4,15.7,8.8-.2,4.7-7.5,8.5-16.4,8.3-8.9-.1-15.9-4-15.7-8.8,.1-3.5,4.3-6.5,10.1-7.7h0Zm102.6-17.9c-.2,.1-.4,.2-.7,.4l-92.5,55c-1.9,1.3-1.7,1.6-1.7,3.2l-1.5,116.1c.3,1.7-.2,2.5,1.5,1.3l90.6-56.8c1.7-1.3,2.1-1.5,1.9-3.4l3-114.8c0-.9-.1-1.2-.6-1h0Zm-12.5,21.4c2.8-.5,5.3,.4,6.8,2.8,3,4.8,1,14-4.6,20.5s-12.5,7.8-15.6,2.9c-3-4.8-1-14,4.6-20.5,2.8-3.2,6-5.2,8.8-5.7h0Zm-118.8,34.3c4.1-.7,9.3,2.2,13.1,7.8,5,7.3,5.8,16.5,1.7,20.6-4.1,4-11.5,1.3-16.5-6s-5.7-16.5-1.6-20.5c.8-.8,1.6-1.3,2.6-1.6,.2-.1,.4-.2,.7-.3h0Zm-32.9,20.2c4.1-.7,9.3,2.2,13.1,7.8,5,7.3,5.8,16.5,1.7,20.6-4.1,4-11.5,1.3-16.5-6s-5.7-16.5-1.6-20.5c.8-.8,1.6-1.3,2.6-1.6,.1-.2,.4-.3,.7-.3h0Zm-32.5,19.9c.3-.1,.7-.2,1-.2,4-.6,9.1,2.3,12.9,7.8,5,7.3,5.8,16.5,1.7,20.5-4.1,4-11.5,1.4-16.5-5.9-5-7.3-5.7-16.5-1.6-20.6,.7-.8,1.6-1.3,2.5-1.6h0Zm156.2-21c2.8-.5,5.2,.4,6.7,2.8,3,4.8,.9,14-4.6,20.5-5.6,6.5-12.5,7.8-15.6,2.9-3-4.8-.9-14,4.6-20.5,2.4-2.8,5.1-4.7,7.7-5.4,.4-.1,.8-.2,1.2-.3h0Zm-92.3,56c.3-.1,.7-.2,1-.2,4-.6,9.1,2.3,12.9,7.7,5,7.3,5.7,16.5,1.6,20.6-4.1,4-11.4,1.4-16.5-6-5-7.3-5.8-16.5-1.7-20.6,.9-.7,1.8-1.2,2.7-1.5h0Zm61.4-.6c2.8-.5,5.3,.3,6.8,2.8,3,4.8,1,14-4.6,20.5s-12.5,7.8-15.5,3-1-14,4.6-20.5c2.7-3.3,5.8-5.2,8.7-5.8h0Z"/>
    </g>
  </g>
</svg>