<?xml version="1.0" encoding="UTF-8"?>
<svg id="Layer_2" data-name="Layer 2" xmlns="http://www.w3.org/2000/svg" viewBox="0 0 231.03 226.58">
  <defs>
    <style>
      .cls-1 {
        fill: none;
        stroke: #000;
        stroke-linecap: round;
        stroke-linejoin: round;
        stroke-width: 2px;
      }
    </style>
  </defs>
  <g id="Layer_1-2" data-name="Layer 1">
    <g>
      <path class="cls-1" d="M140.43,178.15c2.6-1.77,5.23-3.38,8.37-4.15,1.36-.33,2.71-1.03,3.88-2.04,1.87-1.61,4.15-2.21,6.66-2.52,4.01-.5,8-.25,11.99-.4,1.96-.08,4.02,.42,5.41,1.36,1.81,1.22,3.69,2.24,5.62,3.19,10.12,4.99,20.28,9.91,30.41,14.88,4.65,2.28,9.28,4.61,13.89,6.95,1.08,.55,2.2,.91,3.36,1.18"/>
      <path class="cls-1" d="M111.68,53.1c.73,.05,.81-.53,.7-.95-1.17-4.48-1.05-9.15-1.23-13.67-.22-5.55-1.26-10.98-1.59-16.51-.26-4.44-.46-9.05-1.73-13.42-.62-2.13-1.98-3.89-3.13-5.74-1.09-1.75-3.01-2.08-4.75-1.62-2,.53-3.23,2.11-3.62,4.24-.8,4.36-.96,8.77-1.19,13.18"/>
      <path class="cls-1" d="M140.43,49.27c1.89,.92,.82,2.76,1.09,4.09,.52,2.64,.48,5.41,.57,8.12,.16,4.82,.74,9.63-.86,14.4-.67,1.99-.44,4.28-.55,6.44-.19,3.67-.72,7.38-.38,11.01,.38,4.07-.72,8.2,.9,12.3,.47,1.19,.68,3.26,.23,4.97-.13,.48-.08,1.08,.16,1.68,1.82,4.59,3.66,9.27,4.21,14.13,.57,4.98,2.76,9.26,5.35,13.04,3.26,4.75,8.33,7.69,14.44,8.02,2.35,.13,4.69,.38,6.93,1.03,.9,.26,1.75,.41,2.65,.42,3.91,0,7.83-.07,11.74,.04,1.92,.05,3.88,.81,5.74,.59,1.93-.24,3.3,.28,4.84,1.25,1.21,.77,1.56,1.65,1.41,2.93"/>
      <path class="cls-1" d="M13.7,68.19c3.36,1.18,7.26,1.5,8.86,5.51,2.54,1.08,3.67,3.88,6.42,4.91,2.04,.76,2.9,3.38,4.8,4.72,.86,.6,1.59,1.2,2.67,1.14,.56-.03,1.1,.07,1.43,.5,2.62,3.35,6.64,4.83,9.89,7.34,2.85,2.19,5.34,4.74,8.08,7.03,1.93,1.61,4.05,2.89,6.47,3.58,2.6,.74,3.65,.24,4.79-2.14,1.46-3.05,1.93-6.11,1.6-9.6-.31-3.28-.02-6.78-1.25-9.75-1.66-4.02-1.28-8.23-2.25-12.28-1.15-4.8-1.25-9.74-1.91-14.61-.87-6.38-1.64-12.77-2.4-19.16-.44-3.69-.39-7.38,.47-11.02"/>
      <path class="cls-1" d="M137.8,28.66c.95-2.55-.33-4.98-.63-7.41-.22-1.77-1.96-3.2-4.16-3.38-1.96-.17-3.2,.58-4.11,2.39-2.17,4.32-2.91,8.98-3.55,13.67-.62,4.54-1.19,9.1-1.66,13.66-.18,1.74-.02,3.51-.03,5.27-.01,1.73,.21,3.52-.96,5.03"/>
      <path class="cls-1" d="M1,86.16c3.46-.39,5.7,2.35,8.6,3.42,5.22,1.94,10.1,4.7,15.29,6.81,4.48,1.82,9.02,3.88,12.63,7.63,2.81,2.92,5.37,6.1,8.45,8.8,1.89,1.66,3.74,3.87,4.47,6.2,1.09,3.45,2.49,6.84,3.1,10.48,.62,3.68,.42,7.55,2.08,11.03,.97,2.04,1.11,4.36,2.55,6.29,.69,.93,.51,2.59,.9,3.74,1.49,4.41,3.3,8.73,6.85,12.01"/>
      <path class="cls-1" d="M71.19,28.07c.88,2.36,2.11,4.65,2.56,7.08,.82,4.38,2.64,8.47,3.24,12.92,.48,3.56,2.16,6.83,3.14,10.29,1.29,4.56,3.16,8.95,4.7,13.44,1.42,4.13,2.8,8.28,4.05,12.46,.44,1.47,1.17,2.62,2.66,2.31,1.68-.35,1.75-2.14,1.91-3.52,.76-6.77,.16-13.59,.61-20.35,.19-2.82,.14-5.59,.22-8.39,.07-2.63,.92-5.22,.89-7.91-.04-3.91,.28-7.8-.12-11.75-.43-4.17,.23-8.45,.32-12.68,.02-1.16,.49-2.55-.93-3.35"/>
      <path class="cls-1" d="M67.36,159.94c-1.19,2.33-2.16,4.6-1.75,7.44,.61,4.29-1.72,7.89-3.16,11.77-2.94,7.95-7.09,15.17-11.62,22.23"/>
      <path class="cls-1" d="M137.08,28.66c1.29-.01,1.78,.91,1.89,1.92,.69,6.07,2.03,12.07,2.17,18.2,0,.16-.15,.32-.23,.48"/>
      <path class="cls-1" d="M138.75,179.34c-2.99,1.06-5.51,3.02-8.32,4.45-3.02,1.54-4.7,4.85-6.71,7.58-.39,.54-.89,1.17-1.15,1.87"/>
      <path class="cls-1" d="M160.79,130.24c.32-2.1,1.71-3.7,2.6-5.73,2.4,1.15,4.73,2.16,6.97,3.36,3.28,1.75,6.68,3.27,10,4.92,3.05,1.52,6.27,2.84,9.15,4.68,2.14,1.37,4.37,2.41,6.72,3.35,2.55,1.02,4.99,2.32,7.44,3.57,1.5,.76,3.31,.83,4.57,2.13,.47,.49,.67,.88,.22,1.45"/>
      <path class="cls-1" d="M12.5,72.98c1.77,.89,1.7,2.91,2.59,4.34,1.46,2.36,3.04,4.64,4.51,6.98,2.03,3.25,3.63,6.76,6.03,9.81,.32,.41-.1,1.39-.18,2.11"/>
      <path class="cls-1" d="M205.59,166.41c.96-.96,2.12-1.79,2.82-2.91,.65-1.06,1.05-2.4-.16-3.57-.65-.63-1.31-1.34-1.66-2.15-1.11-2.59-3.47-3.02-5.78-3.58"/>
      <path class="cls-1" d="M17.77,53.1c1.03,2.63,.27,4.71-1.62,6.76-1.2,1.3-1.83,3.13-2.68,4.74-.23,.44-.53,.98-.46,1.43,.53,3.25-1.28,5.26-3.29,7.52-1.68,1.89-2.98,4.43-3.54,6.89-.47,2.05-1.56,3.75-2.07,5.72"/>
      <path class="cls-1" d="M205.59,167.13c-.07-.32-.14-.64-.25-1.18-4.64,2.27-9.74,2.07-14.62,3-3.5,.66-7.17,.57-10.76,.49-1.12-.03-1.89,.1-2.64,.81"/>
      <path class="cls-1" d="M179,132.63c-.74,3.18-2.01,6.15-3.35,9.1"/>
      <path class="cls-1" d="M121.98,193.72c-.59,1.28-1.27,2.48-2.14,3.6-3.42,4.36-4.11,9.85-5.94,14.86-.3,.82-.49,1.67-1.03,2.37-1.17,1.51-2.48,3.25-2.9,4.85-.56,2.14-3.01,3.63-2.12,6.18"/>
      <path class="cls-1" d="M200.08,148.44c-.51-1.48-1.58-2.34-3.11-2.11-1.47,.22-1.95,1.43-1.92,2.83"/>
      <path class="cls-1" d="M112.4,53.34c.69,4.07,.33,8.13,.09,12.22-.21,3.59,.04,7.25,1.09,10.78,.28,.92,.4,1.91,.48,2.87,.13,1.61,2.21,4.14,3.85,4.55"/>
      <path class="cls-1" d="M224.52,154.43c-2.39-.97-4.46-2.76-7.19-2.87"/>
      <path class="cls-1" d="M70.72,27.47c-1.13-1.72-1.55-3.75-2.52-5.57-.94-1.77-2.49-1.64-3.74-1.98-1.34-.37-1.99,.94-2.14,2.28-.03,.25-.3,.48-.46,.72"/>
      <path class="cls-1" d="M217.81,155.39c.8,1.24,1.76,2.22,3.35,2.41,1.1,.13,1.88,.76,2.16,1.9"/>
      <path class="cls-1" d="M165.35,131.31c2.24,.37,3.01,2.03,3.62,3.94,.32,.98,.28,1.77-.52,2.39-.71,.56-1.38,1.1-2.42,.29-.79-.61-1.88-.84-2.84-1.24"/>
      <path class="cls-1" d="M122.94,59.33c-.64,5.27-1.35,10.53-1.89,15.81-.31,3.01-.62,5.95-2.66,8.38"/>
      <path class="cls-1" d="M52.75,71.78c-.86-1.12-2.11-1.62-3.34-2.18-1.23-.56-2.2-.49-2.88,.75-.67,1.22-1.46,2.69-.21,3.78,2.27,1.98,2.02,4.06,.64,6.25-.41,.66-.41,1.27-.44,1.94"/>
      <path class="cls-1" d="M224.76,159.46c-1.71,.25-2.74,1.43-3.88,2.59-.81,.83-1.31,2.24-2.83,2.2"/>
      <path class="cls-1" d="M143.55,115.38c.6,0,1.13,.06,1.7,.45,3.21,2.23,6.87,3.78,10.38,5.31,2.56,1.11,4.85,2.82,7.57,3.58"/>
      <path class="cls-1" d="M30.23,66.04c-.88,1.68-1.76,3.35-2.64,5.03"/>
      <path class="cls-1" d="M47.24,69.39c-1.93-2.21-4.69-3.13-7.22-4.25-4.55-2.02-8.93-4.34-13.41-6.48-2.44-1.17-4.82-3.1-7.88-1.97"/>
      <path class="cls-1" d="M29.27,60.53c-.48,1.52-.96,3.03-1.44,4.55"/>
      <path class="cls-1" d="M208.95,147c2.32,1.34,5.05,1.87,7.19,3.59"/>
      <path class="cls-1" d="M23.52,57.89c-.4,1.44-.8,2.87-1.2,4.31"/>
      <path class="cls-1" d="M159.84,123.53c-1.26,.77-.35,2.62-1.68,3.35"/>
      <path class="cls-1" d="M65.44,76.58c-4.13-.27-7.71-1.98-11-4.34-.5-.36-1.02-.66-1.44-.41-.65,.39-1.05,1.06-.5,1.88"/>
      <path class="cls-1" d="M38.37,65.08c-.57,.83-.33,2.1-1.44,2.64"/>
      <path class="cls-1" d="M175.65,131.91c-.4,.96-.8,1.92-1.2,2.87"/>
      <path class="cls-1" d="M117.19,84c-.34,.85-.92,1.64-.72,2.64"/>
      <path class="cls-1" d="M62.09,76.34c.15,.98-.46,1.76-.72,2.64"/>
      <path class="cls-1" d="M31.9,61.72c-.24,.8-.48,1.6-.72,2.4"/>
    </g>
  </g>
</svg>