<?xml version="1.0" encoding="UTF-8"?>
<svg id="Layer_2" data-name="Layer 2" xmlns="http://www.w3.org/2000/svg" viewBox="0 0 840 870">
  <defs>
    <style>
      .cls-1 {
        fill: none;
      }
    </style>
  </defs>
  <g id="Layer_1-2" data-name="Layer 1">
    <g>
      <path class="cls-1" d="M0,0H840V870H0V0ZM349.12,614.7c.62-.17,1.24-.34,1.86-.51,.17-2.34,.96-4.84,.42-7.01-3.56-14.17-3.91-28.58-3.51-43.03,.11-3.89,.96-7.93,2.34-11.57,1.34-3.54,4.04-3.39,6.32-.33,1.36,1.82,3.03,3.4,4.57,5.09,.45-.19,.9-.38,1.35-.57,.25-2.05,.77-4.11,.72-6.15-.31-13.2-1.24-26.41-1.01-39.61,.36-20.84,7.63-39.25,22.57-53.97,11.8-11.62,22.34-6.5,28.94,5.81,4.37,8.15,6.32,17.34,7.16,27.05,1.5,17.21-1.58,33.19-7.67,48.95-3.7,9.57-7.24,19.2-11.08,28.71-1.01,2.51-2.36,5.58-4.48,6.8-4.8,2.78-10.09,4.81-15.35,6.68-5.36,1.91-11,3.1-16.18,8.03,3.3,.92,5.6,1.91,7.97,2.16,7.07,.74,14.17,1.2,21.26,1.76,4.83,.38,6.62,2.66,4.58,7.2-2.12,4.74-4.96,9.22-7.95,13.49-4.08,5.84-11.3,7.52-17.53,3.98-3.95-2.25-7.38-5.39-11.15-7.97-.94-.64-2.29-.69-3.45-1.01-.04,1.36-.5,2.88-.07,4.07,3.39,9.24,11.58,12.6,19.94,15.18,3.41,1.05,7.57,.94,11.08,.1,10.64-2.55,16.58-10.27,20.03-20.15,2.69-7.71,3.59-15.44,.16-23.3-1.17-2.69-1.48-5.77-2.18-8.67,.57-.5,1.14-1.01,1.7-1.51,2.75,1.34,6.4,1.99,8.08,4.16,3.88,5.02,7.54,10.47,9.94,16.3,4.4,10.68,3.33,15.18-3.94,20.59-2.77,2.06-3.88,4.16-3.6,7.44,.69,8.24-4.06,13.33-10.57,17.02-3.58,2.03-7.46,3.69-11.41,4.84-7.36,2.13-12.29,6.39-14.83,13.75-.51,1.48-3.08,3.14-4.72,3.16-4.26,.06-8.53-.78-12.81-1.21-7.2-.72-14.55-1.57-19.41,5.52-3.41,4.98-6.88,10-9.55,15.39-4.01,8.09-3.26,16.21,.79,24.37,1.63,3.28,2.4,7.46,2.13,11.12-.67,9.04-2.55,17.98-3.26,27.02-1.27,16.01,.63,31.88,5.11,47.21,2.19,7.5,5.75,14.93,10.16,21.38,6.81,9.97,18.06,13.52,29,17.37,7.44,2.62,12.81,.95,17.3-5.27,2.45-3.39,1.84-5.95-2.23-6.11-14.03-.57-24.65-7.1-33.49-17.61-8.36-9.94-13.56-21.39-14.46-34.06-1.02-14.37-.79-28.85,1.98-43.2,.96-5,1.16-10.94-.68-15.48-2.4-5.89-2.47-10.74,.49-16.04,1.37-2.45,2.46-5.04,3.8-7.51,4.05-7.45,10.15-12.28,18.69-13.13,3.64-.36,6.58,.86,6.89,5.76,1.36,21.48,3.06,42.94,4.62,64.41,.31,4.26,.89,8.38,4.29,11.45,7.74-5.68,9.48-6.72,17.39-.77,6.67,5.02,9.83,3.69,14.38-3.48,4.07-6.41,8.42-12.67,13.07-18.67,11.48-14.8,24.64-27.97,38.84-40.21,10.91-9.41,22.2-18.13,34.71-25.35,9.34-5.39,18.08-11.87,23.78-21.3,5.26-8.69,7.88-18.42,10.02-28.34,3.08-14.26,2.21-27.94-4.31-41.11-4.75-9.6-9.59-19.16-14.2-28.82-1.12-2.35-1.68-5.02-2.18-7.61-.53-2.74,.2-4.59,3.51-5.32,16.65-3.67,31.29-11.48,44.18-22.5,6.23-5.32,12.43-10.93,14.67-19.23,.54-2-.14-5.1-1.49-6.55-.83-.89-4.28-.18-6.04,.77-6.2,3.35-11.96,7.59-18.3,10.61-10.82,5.15-17.51,3.42-26.08-4.7-14.87-14.08-17.48-31.85-14.81-50.71,.94-6.65,4.62-13.65,12.47-15.17,16.48-3.2,32.23-8.2,47.64-14.98,13.21-5.81,25.46-12.96,36.9-21.52,8.52-6.37,16.73-13.24,24.46-20.54,8.74-8.25,16.9-17.13,25.1-25.92,3.21-3.45,2.02-7.64-2.31-9.77-1.48-.73-3.11-1.21-4.52-2.05-3.55-2.14-3.59-4.2-.4-6.85,2.94-2.43,5.87-4.87,8.66-7.47q7.62-7.1-.38-13.41c-.22-.18-.33-.5-.49-.75,5.28-5.92,10.52-11.85,15.84-17.71,3.52-3.88,6.63-.72,8.95,1.31,5.69,4.99,10.87,10.56,16.32,15.84,14.79,14.31,29.54,28.67,44.45,42.85,17.78,16.91,35.71,33.68,53.61,50.47,3.04,2.85,6.57,4,10.38,1.52,5.66-3.69,8.51-8.98,7.25-13.1-.24-.78-.6-1.58-1.1-2.22-1.86-2.32-3.62-4.74-5.74-6.81-13.11-12.82-26.35-25.49-39.44-38.32-10.1-9.91-20.04-20-30.04-30.02-13.03-13.06-26.09-26.08-39.04-39.22-2.78-2.82-4.24-6.14-2.82-10.42,1.19-3.6,1.42-7.51,2.57-11.12,2.14-6.78-.91-11.24-5.59-15.65-2.21-2.08-3.86-5.25-4.69-8.23-1.88-6.74-4.45-12.17-12.29-13.76-2.47-.5-5.22-2.96-6.51-5.26-2.63-4.7-6.34-7.85-11.25-9.14-4.75-1.24-9.74-1.79-14.66-2.09-4.92-.3-9.86-.3-13.79,3.99-.77,.84-4.66,.2-5.93-1-9.32-8.83-18.32-17.99-27.45-27.03-7-6.93-14.07-13.8-21.05-20.76-9.21-9.19-18.47-18.34-27.51-27.71-6.96-7.21-14.33-14.15-18.51-23.57-2.52-5.7-1.52-13.52,2.25-17.11,4.77-4.56,11.26-5.64,17.55-2.68,3.42,1.61,6.55,3.91,10.04,5.31,3.43,1.37,7.39,3.31,10.69,2.71,8.88-1.63,15.76-13.78,7.9-23.43-2.58-3.16-5.52-6.09-8.64-8.71-10.95-9.19-23.87-12.24-37.27-8.28-15.16,4.47-25.51,15.08-30.65,30.3-7.61,22.53,1.84,40.35,16.02,56.64,4.62,5.31,10.14,9.83,15.21,14.75,11.21,10.88,22.37,21.82,33.61,32.66,12.11,11.68,24.27,23.32,36.49,34.9,3.14,2.98,3.12,5.36,.52,8.97-6.79,9.4-9.88,19.77-5.85,31.32,1.14,3.26,2.29,6.52,3.37,9.81,1.85,5.62-1.52,11.86-7.19,12.22-3.15,.2-3.94,1.37-4.41,4-.72,4.04-.83,8.53-2.75,11.96-7.85,13.96-18.37,25.58-32.1,34.17-10.55,6.6-22.27,9.75-34.36,10.2-10.02,.37-20.16-1.12-30.16-2.42-5.83-.76-6.61-4.13-2.78-9.09,1.9-2.46,3.83-4.9,5.86-7.25,4.99-5.8,7.35-14.55,17.04-15.15,1.01-.06,1.97-1.16,2.93-1.8,9.99-6.71,16.13-16.66,20.72-27.21,3.56-8.2,6.81-17.2,2.94-26.49-.94-2.26-2.72-4.16-4.12-6.23-1.28,1.93-2.53,3.88-3.86,5.77-2.38,3.41-4.52,7.05-7.35,10.05-1.49,1.58-4.22,2-6.38,2.94-.48-2.37-1.31-4.74-1.38-7.12-.43-13.76-1.75-27.41-6.74-40.35-4.64-12.04-10.39-23.46-19.43-33.03-4.23-4.48-7.68-9.69-11.4-14.64-1.85-2.46-2.82-4.82,.61-7.1,4.51-2.99,9.35-5.79,13.01-9.65,3.61-3.8,6.41-8.61,8.56-13.42,.81-1.82-.48-6.35-2.03-7.09-2.92-1.39-6.2-.91-9.3,2.16-6.59,6.54-13.85,12.44-21.16,18.19-2.98,2.34-6.46,2.09-9.19-1.35-6.56-8.24-13.61-16.12-19.77-24.65-5.67-7.85-11.07-16.03-15.42-24.65-4.68-9.27-8.1-19.19-11.9-28.89-1.86-4.75-4.93-7.12-10.17-7.07-12.78,.14-25.57-.08-38.35,.08-16.66,.21-31.82,6.22-45.97,14.08-10.36,5.76-19.77,13.36-29.19,20.67-14.59,11.33-27.63,24.26-36.42,40.76-3.1,5.82-5.72,12.36-1.81,18.9,2.64,4.4,6.09,8.31,9.14,12.47,4.98,6.8,10.17,13.46,14.83,20.47,4.24,6.39,7.9,13.17,12.75,21.36,1.14-2.13,1.55-3.06,2.1-3.89,3.16-4.79,5.92-9.93,9.64-14.25,7.81-9.07,15.39-18.56,24.42-26.3,9.16-7.86,19.4-14.93,30.17-20.31,12.77-6.38,26.51-10.9,40.04-15.61,6.47-2.25,13.41-3.29,20.2-4.49,3.73-.66,7.62-.77,11.41-.59,1.41,.07,2.75,1.69,4.12,2.61-1.2,1.24-2.23,3.28-3.62,3.57-5.12,1.07-10.36,1.56-17.04,2.47,4.76,5.79,8.92,10.81,13.03,15.86,4.69,5.77,10.49,7.17,17.45,4.79,2.17-.74,4.49-1.3,6.77-1.38,2.22-.08,4.47,.56,6.71,.88,.09,.72,.18,1.44,.27,2.15-5.24,2.14-10.31,5.39-15.75,6.21-13.22,2-26.71,2.28-39.92,4.37-14.48,2.29-29.32,4.28-42.97,9.23-16.06,5.82-31.35,14.1-46.37,22.41-12.38,6.84-22.79,16.32-29.16,29.47-4.44,9.17-7.88,18.81-5.78,28.96,2.51,12.1,9.19,21.73,21.41,25.98,8.23,2.86,14.88,7.29,20.5,14.04,3.86,4.65,8.9,8.44,15.59,8.85,1.47,.09,4.15,1.27,4.1,1.69-.22,1.82-.81,3.99-2.06,5.22-2.5,2.46-5.74,2.69-8.69,.62-10.24-7.17-20.44-14.4-30.59-21.7-9.74-7-19.02-14.72-29.17-21.04-16.38-10.2-33.15-19.81-50.12-29.01-4.29-2.33-9.48-6.64-15.08-1.7-2.93,2.59-5.64,1.75-8.27-.55-1.62-1.42-3.15-3.02-4.98-4.1-3.57-2.1-6.58-5.75-11.66-4.19-.88,.27-3.08-1.3-3.52-2.47-2.84-7.38-5.92-14.75-7.76-22.41-.99-4.11,.34-8.79,.66-13.21,.2-2.68,1.57-6.96,.48-7.7-2.44-1.68-6.17-2.41-9.23-2.09-12.02,1.25-18.47,10.12-23.03,19.73-4,8.41-10.38,11.27-18.55,13.52-13.63,3.75-27.3,7.76-40.33,13.15-10.74,4.44-20.71,10.81-30.76,16.77-4.33,2.57-8.52,5.8-11.86,9.54-6.77,7.58-10.75,16.57-11.45,26.92-.46,6.77,4.55,16.82,10.63,19.79,1.64,.8,3.9,1.14,5.66,.74,5.95-1.33,11.79-3.15,17.71-4.65,13.12-3.32,26.13-7.41,39.44-9.59,11.89-1.95,24.12-1.88,36.21-2.41,2.71-.12,6.4,.04,8.03,1.67,4.66,4.69,10.56,4.47,16.14,5.28,5.84,.85,6.47,1.62,3.74,7.12-1.5,3.03-1.61,4.99,2.55,6.17,9.86,2.79,19.62,5.94,29.29,9.34,5.58,1.96,10.8,4.89,16.33,7,13.04,4.96,25.03,11.92,36.02,20.28,8.21,6.24,15.6,13.66,22.88,21.02,14.15,14.29,20.11,31.25,16.14,51.45-2.76,14.03-8.24,26.71-17.38,37.62-6.77,8.08-15.3,14.46-25.23,17.76-10.01,3.33-20.57,4.68-31.32,3.14-15.93-2.29-28.97-9.22-36.08-24.05-3.66-7.63-5.23-16.26-7.73-24.45-.59-1.95-1.13-3.91-1.69-5.86-.56-.02-1.11-.04-1.67-.06-.49,1.89-1.35,3.77-1.42,5.67-.86,22.36,4.12,43.43,15.23,62.8,4.12,7.19,9.14,14.1,14.86,20.08,13.52,14.12,30.69,21.76,49.48,26.57,8.12,2.08,9.34-.14,9.19,11.41-.02,1.65,.12,3.33,.48,4.94,3.5,15.58,8.88,30.21,20.06,42.22,9.85,10.59,20.54,19.62,35.45,21.65,8.99,1.22,17.69,.37,24.17-7.03,1.12-1.28,1.8-4.12,1.16-5.56-1.67-3.73-4.09-7.15-6.39-10.57-6.83-10.19-13.86-20.25-20.54-30.54-1.24-1.91-1.62-4.61-1.71-6.97-.06-1.59,1.09-3.22,1.7-4.83,1.64,.8,3.86,1.18,4.81,2.48,4.65,6.33,9.27,12.72,13.32,19.45,7.48,12.41,14.46,25.12,21.85,37.59,1.9,3.2,4.53,5.96,6.83,8.92Zm-36.67-428.14c13.2-5.86,25.83-11.3,38.27-17.14,2.3-1.08,5.69-4.25,5.35-5.67-.87-3.56-2.98-7.46-5.81-9.65-1.48-1.14-5.96,.34-8.31,1.85-4.41,2.83-8.52,6.28-12.27,9.96-5.47,5.36-10.56,11.12-15.69,16.82-.81,.9-.97,2.38-1.52,3.84Z"/>
      <path d="M349.12,614.7c-2.3-2.96-4.93-5.72-6.83-8.92-7.39-12.47-14.37-25.18-21.85-37.59-4.05-6.72-8.67-13.11-13.32-19.45-.96-1.3-3.18-1.68-4.81-2.48-.61,1.61-1.76,3.25-1.7,4.83,.09,2.36,.47,5.06,1.71,6.97,6.68,10.28,13.71,20.35,20.54,30.54,2.3,3.42,4.72,6.84,6.39,10.57,.64,1.44-.04,4.28-1.16,5.56-6.48,7.39-15.18,8.25-24.17,7.03-14.91-2.03-25.6-11.06-35.45-21.65-11.18-12.02-16.56-26.64-20.06-42.22-.36-1.6-.5-3.29-.48-4.94,.15-11.55-1.06-9.34-9.19-11.41-18.79-4.81-35.96-12.45-49.48-26.57-5.72-5.98-10.74-12.89-14.86-20.08-11.11-19.37-16.09-40.44-15.23-62.8,.07-1.91,.93-3.78,1.42-5.67,.56,.02,1.11,.04,1.67,.06,.56,1.96,1.09,3.92,1.69,5.86,2.5,8.18,4.07,16.82,7.73,24.45,7.11,14.83,20.14,21.76,36.08,24.05,10.75,1.55,21.32,.19,31.32-3.14,9.93-3.3,18.45-9.68,25.23-17.76,9.14-10.91,14.62-23.59,17.38-37.62,3.97-20.2-1.98-37.16-16.14-51.45-7.29-7.36-14.67-14.78-22.88-21.02-11-8.36-22.99-15.32-36.02-20.28-5.53-2.11-10.76-5.04-16.33-7-9.67-3.39-19.43-6.55-29.29-9.34-4.16-1.18-4.06-3.14-2.55-6.17,2.73-5.5,2.1-6.27-3.74-7.12-5.59-.81-11.49-.59-16.14-5.28-1.62-1.64-5.32-1.79-8.03-1.67-12.09,.53-24.32,.46-36.21,2.41-13.31,2.18-26.32,6.27-39.44,9.59-5.92,1.5-11.75,3.32-17.71,4.65-1.76,.39-4.02,.06-5.66-.74-6.08-2.98-11.08-13.02-10.63-19.79,.7-10.35,4.68-19.34,11.45-26.92,3.34-3.74,7.53-6.97,11.86-9.54,10.05-5.96,20.02-12.33,30.76-16.77,13.04-5.39,26.7-9.39,40.33-13.15,8.17-2.25,14.55-5.11,18.55-13.52,4.56-9.6,11-18.48,23.03-19.73,3.06-.32,6.79,.42,9.23,2.09,1.09,.75-.29,5.02-.48,7.7-.32,4.42-1.65,9.09-.66,13.21,1.83,7.66,4.92,15.03,7.76,22.41,.45,1.16,2.64,2.74,3.52,2.47,5.08-1.56,8.09,2.09,11.66,4.19,1.83,1.07,3.36,2.68,4.98,4.1,2.63,2.29,5.34,3.13,8.27,.55,5.6-4.94,10.8-.62,15.08,1.7,16.96,9.2,33.74,18.81,50.12,29.01,10.15,6.32,19.44,14.04,29.17,21.04,10.15,7.3,20.35,14.53,30.59,21.7,2.95,2.07,6.19,1.84,8.69-.62,1.25-1.23,1.84-3.4,2.06-5.22,.05-.42-2.63-1.6-4.1-1.69-6.69-.41-11.73-4.21-15.59-8.85-5.62-6.75-12.27-11.18-20.5-14.04-12.22-4.25-18.91-13.88-21.41-25.98-2.1-10.16,1.34-19.8,5.78-28.96,6.37-13.15,16.79-22.63,29.16-29.47,15.02-8.3,30.31-16.58,46.37-22.41,13.66-4.95,28.5-6.94,42.97-9.23,13.21-2.09,26.69-2.37,39.92-4.37,5.44-.82,10.51-4.07,15.75-6.21-.09-.72-.18-1.44-.27-2.15-2.24-.32-4.49-.96-6.71-.88-2.27,.08-4.6,.63-6.77,1.38-6.96,2.38-12.76,.98-17.45-4.79-4.11-5.05-8.27-10.07-13.03-15.86,6.68-.91,11.92-1.4,17.04-2.47,1.39-.29,2.42-2.33,3.62-3.57-1.37-.91-2.71-2.54-4.12-2.61-3.79-.19-7.68-.07-11.41,.59-6.79,1.2-13.72,2.24-20.2,4.49-13.53,4.71-27.28,9.23-40.04,15.61-10.78,5.39-21.01,12.46-30.17,20.31-9.03,7.74-16.62,17.22-24.42,26.3-3.71,4.32-6.48,9.46-9.64,14.25-.55,.83-.96,1.76-2.1,3.89-4.86-8.2-8.51-14.98-12.75-21.36-4.66-7.01-9.85-13.67-14.83-20.47-3.05-4.16-6.5-8.07-9.14-12.47-3.92-6.54-1.29-13.08,1.81-18.9,8.79-16.5,21.82-29.43,36.42-40.76,9.42-7.31,18.83-14.91,29.19-20.67,14.16-7.86,29.31-13.88,45.97-14.08,12.78-.16,25.57,.06,38.35-.08,5.24-.06,8.31,2.32,10.17,7.07,3.8,9.7,7.21,19.62,11.9,28.89,4.36,8.62,9.76,16.8,15.42,24.65,6.16,8.53,13.21,16.41,19.77,24.65,2.74,3.44,6.21,3.69,9.19,1.35,7.31-5.75,14.57-11.66,21.16-18.19,3.1-3.07,6.38-3.55,9.3-2.16,1.55,.74,2.84,5.26,2.03,7.09-2.15,4.81-4.96,9.62-8.56,13.42-3.67,3.86-8.51,6.66-13.01,9.65-3.43,2.28-2.46,4.64-.61,7.1,3.72,4.95,7.17,10.16,11.4,14.64,9.04,9.57,14.79,21,19.43,33.03,4.99,12.94,6.31,26.58,6.74,40.35,.08,2.39,.9,4.75,1.38,7.12,2.17-.94,4.89-1.36,6.38-2.94,2.83-3,4.96-6.64,7.35-10.05,1.33-1.9,2.58-3.85,3.86-5.77,1.39,2.07,3.18,3.97,4.12,6.23,3.87,9.29,.62,18.29-2.94,26.49-4.58,10.55-10.72,20.5-20.72,27.21-.96,.65-1.92,1.74-2.93,1.8-9.69,.6-12.05,9.36-17.04,15.15-2.03,2.35-3.96,4.79-5.86,7.25-3.83,4.96-3.05,8.33,2.78,9.09,10,1.3,20.14,2.79,30.16,2.42,12.09-.45,23.81-3.6,34.36-10.2,13.73-8.59,24.25-20.21,32.1-34.17,1.93-3.42,2.03-7.92,2.75-11.96,.47-2.63,1.26-3.8,4.41-4,5.67-.37,9.04-6.61,7.19-12.22-1.08-3.28-2.23-6.54-3.37-9.81-4.03-11.56-.94-21.92,5.85-31.32,2.6-3.6,2.62-5.99-.52-8.97-12.22-11.57-24.38-23.21-36.49-34.9-11.25-10.84-22.4-21.78-33.61-32.66-5.07-4.92-10.59-9.44-15.21-14.75-14.18-16.29-23.63-34.11-16.02-56.64,5.14-15.22,15.49-25.82,30.65-30.3,13.4-3.95,26.32-.91,37.27,8.28,3.12,2.62,6.07,5.55,8.64,8.71,7.86,9.64,.99,21.8-7.9,23.43-3.31,.61-7.27-1.34-10.69-2.71-3.49-1.4-6.62-3.69-10.04-5.31-6.28-2.96-12.77-1.87-17.55,2.68-3.77,3.6-4.77,11.41-2.25,17.11,4.17,9.43,11.55,16.36,18.51,23.57,9.04,9.37,18.29,18.52,27.51,27.71,6.98,6.96,14.05,13.83,21.05,20.76,9.13,9.04,18.13,18.2,27.45,27.03,1.27,1.2,5.16,1.85,5.93,1,3.93-4.29,8.86-4.28,13.79-3.99,4.92,.3,9.91,.84,14.66,2.09,4.92,1.29,8.62,4.44,11.25,9.14,1.29,2.31,4.04,4.76,6.51,5.26,7.84,1.59,10.41,7.02,12.29,13.76,.83,2.98,2.48,6.14,4.69,8.23,4.68,4.41,7.74,8.87,5.59,15.65-1.14,3.62-1.38,7.53-2.57,11.12-1.42,4.28,.04,7.6,2.82,10.42,12.95,13.14,26.01,26.16,39.04,39.22,10,10.02,19.94,20.1,30.04,30.02,13.08,12.84,26.33,25.51,39.44,38.32,2.11,2.07,3.88,4.49,5.74,6.81,.51,.63,.86,1.43,1.1,2.22,1.27,4.12-1.59,9.42-7.25,13.1-3.81,2.48-7.33,1.33-10.38-1.52-17.9-16.79-35.83-33.55-53.61-50.47-14.91-14.18-29.66-28.54-44.45-42.85-5.45-5.27-10.63-10.84-16.32-15.84-2.32-2.04-5.43-5.19-8.95-1.31-5.32,5.86-10.56,11.8-15.84,17.71,.16,.25,.27,.57,.49,.75q7.97,6.27,.38,13.41c-2.79,2.6-5.73,5.04-8.66,7.47-3.2,2.65-3.15,4.71,.4,6.85,1.41,.85,3.03,1.32,4.52,2.05,4.33,2.14,5.52,6.32,2.31,9.77-8.2,8.8-16.36,17.68-25.1,25.92-7.73,7.3-15.94,14.17-24.46,20.54-11.44,8.55-23.69,15.7-36.9,21.52-15.41,6.78-31.16,11.78-47.64,14.98-7.85,1.52-11.53,8.52-12.47,15.17-2.67,18.86-.05,36.62,14.81,50.71,8.57,8.12,15.26,9.85,26.08,4.7,6.34-3.02,12.1-7.26,18.3-10.61,1.76-.95,5.22-1.66,6.04-.77,1.35,1.46,2.03,4.56,1.49,6.55-2.24,8.3-8.44,13.91-14.67,19.23-12.9,11.01-27.54,18.83-44.18,22.5-3.31,.73-4.04,2.58-3.51,5.32,.5,2.59,1.06,5.26,2.18,7.61,4.61,9.67,9.45,19.22,14.2,28.82,6.52,13.17,7.39,26.84,4.31,41.11-2.14,9.92-4.77,19.65-10.02,28.34-5.7,9.43-14.44,15.91-23.78,21.3-12.51,7.22-23.8,15.94-34.71,25.35-14.2,12.24-27.36,25.41-38.84,40.21-4.65,6-9,12.26-13.07,18.67-4.55,7.17-7.71,8.5-14.38,3.48-7.91-5.95-9.65-4.91-17.39,.77-3.4-3.07-3.98-7.19-4.29-11.45-1.56-21.47-3.26-42.93-4.62-64.41-.31-4.9-3.24-6.13-6.89-5.76-8.54,.85-14.63,5.67-18.69,13.13-1.34,2.46-2.43,5.06-3.8,7.51-2.96,5.3-2.89,10.14-.49,16.04,1.85,4.54,1.65,10.48,.68,15.48-2.77,14.36-3.01,28.83-1.98,43.2,.9,12.67,6.1,24.12,14.46,34.06,8.84,10.51,19.46,17.04,33.49,17.61,4.07,.16,4.68,2.72,2.23,6.11-4.48,6.22-9.85,7.89-17.3,5.27-10.94-3.85-22.18-7.4-29-17.37-4.41-6.45-7.97-13.88-10.16-21.38-4.48-15.33-6.38-31.19-5.11-47.21,.72-9.04,2.59-17.98,3.26-27.02,.27-3.66-.5-7.84-2.13-11.12-4.05-8.16-4.79-16.28-.79-24.37,2.67-5.39,6.13-10.41,9.55-15.39,4.87-7.1,12.22-6.24,19.41-5.52,4.27,.43,8.54,1.27,12.81,1.21,1.64-.02,4.21-1.68,4.72-3.16,2.54-7.35,7.47-11.61,14.83-13.75,3.95-1.14,7.83-2.81,11.41-4.84,6.51-3.68,11.26-8.78,10.57-17.02-.28-3.28,.83-5.38,3.6-7.44,7.28-5.41,8.34-9.91,3.94-20.59-2.4-5.83-6.07-11.28-9.94-16.3-1.68-2.17-5.33-2.82-8.08-4.16-.57,.5-1.14,1.01-1.7,1.51,.7,2.9,1,5.97,2.18,8.67,3.43,7.86,2.53,15.59-.16,23.3-3.45,9.88-9.38,17.6-20.03,20.15-3.51,.84-7.68,.95-11.08-.1-8.36-2.58-16.55-5.94-19.94-15.18-.44-1.19,.02-2.7,.07-4.07,1.16,.32,2.51,.37,3.45,1.01,3.77,2.59,7.2,5.73,11.15,7.97,6.23,3.55,13.45,1.87,17.53-3.98,2.98-4.28,5.82-8.76,7.95-13.49,2.03-4.54,.24-6.82-4.58-7.2-7.09-.56-14.19-1.02-21.26-1.76-2.37-.25-4.67-1.24-7.97-2.16,5.18-4.93,10.82-6.11,16.18-8.03,5.25-1.88,10.54-3.91,15.35-6.68,2.11-1.22,3.46-4.29,4.48-6.8,3.84-9.51,7.39-19.14,11.08-28.71,6.09-15.76,9.17-31.74,7.67-48.95-.84-9.71-2.79-18.9-7.16-27.05-6.6-12.31-17.14-17.43-28.94-5.81-14.94,14.71-22.21,33.13-22.57,53.97-.23,13.19,.7,26.4,1.01,39.61,.05,2.04-.47,4.1-.72,6.15-.45,.19-.9,.38-1.35,.57-1.53-1.69-3.21-3.27-4.57-5.09-2.28-3.05-4.98-3.21-6.32,.33-1.38,3.64-2.24,7.68-2.34,11.57-.4,14.45-.04,28.86,3.51,43.03,.54,2.16-.24,4.66-.42,7.01-.62,.17-1.24,.34-1.86,.51Zm140.47-308.11c-4.25-.53-7.82-1.18-11.41-1.32-1.41-.05-3.15,.73-4.25,1.69-2.91,2.53-5.49,5.33-9.96,3.21-.75-.36-2.22,.41-3.18,.96-3.58,2.05-6.88,4.74-10.65,6.26-8.83,3.55-17.35,8.01-27.39,7.92-9.08-.08-17.94-.34-26.03-5.1-3.67-2.16-7.77-3.72-11.07-6.32-9.46-7.44-17.83-15.86-21.3-27.95-.85-2.96-1.07-6.23,2.11-7.22,1.47-.46,4.21,1.76,5.79,3.35,4.59,4.62,9.32,9.38,16.16,9.3,4.49-.05,9.95-.82,13.25-3.44,7.36-5.86,13.15-13.68,20.51-19.55,5.57-4.44,12.07-8.5,19.94-7.71,1.59,.16,4.24,1.26,4.36,2.2,.27,2.05-.1,4.95-1.44,6.25-1.74,1.7-4.67,2.14-7.06,3.19-3.52,1.55-7.61,2.48-10.4,4.9-4.85,4.18-9.57,8.83-13.12,14.11-5.29,7.88-12.28,11.36-21.42,11.64-1.48,.04-2.94,.88-4.4,1.36,1.04,1.33,1.84,2.97,3.15,3.94,11.68,8.74,25.28,8.26,38.04,5.14,11.49-2.81,21.57-9.85,29.23-19.5,4.94-6.23,6.68-6.03,13.98-2.86,5.14,2.23,11.08,3.87,16.59,3.7,11.62-.35,22.14-4.39,29.41-14.17,3.41-4.58,8.72-8.14,9.17-14.82-.89-.12-1.38-.31-1.81-.22-9.45,2.14-18.97,3.25-28.27-.24-11.79-4.42-23.48-7.26-35.56-1.16-1.01,.51-2.26,.89-3.37,.82-1.74-.11-4.22-.11-4.98-1.16-.95-1.31-.8-3.72-.49-5.54,.23-1.36,1.38-2.62,2.27-3.81,4.58-6.15,4.41-7.46-.59-13.11-1.35-1.52-1.75-3.89-2.59-5.88,2.61-.5,5.35-1.77,7.79-1.34,5.18,.91,9.05,4.5,10.99,9.17,1.93,4.66,5.35,6.3,9.66,7.39,3.36,.85,6.6,2.19,9.98,2.89,3.53,.73,7.19,1.37,10.76,1.19,1.4-.07,3.91-2.54,3.83-3.78-.7-10.72-1.1-21.56-3.1-32.07-2.31-12.11-8.19-22.83-15.94-32.62-4.63-5.84-8.94-10.28-17.17-7.6-2.72,.88-3.9-1.42-3.3-3.98,.33-1.4,1.24-2.71,2.08-3.94,2.58-3.78,1.88-6.48-2.49-7.57-1.74-.43-3.86,.28-5.71,.8-7.92,2.26-15.67,5.52-23.74,6.81-18.26,2.91-36.78,4.2-54.96,7.46-11.26,2.02-22.17,6.22-33.07,9.92-4.77,1.62-9.3,4.15-13.64,6.77-7.69,4.63-15.56,9.12-22.57,14.66-5.58,4.4-10.62,9.82-14.78,15.59-5.1,7.08-9.5,14.79-8.92,24.2,.44,7.13,6.28,16.8,12.43,18.9-.52-2.78-.65-5.21-1.44-7.39-3.82-10.51,.9-28.58,9.36-35.98,5.36-4.69,10.15-10.08,15.79-14.36,7.31-5.55,14.93-10.85,22.97-15.25,7.35-4.01,15.46-6.61,23.19-9.95,11.01-4.76,21.51-2.44,31.67,2.43,1.78,.85,2.68,3.51,3.99,5.34-2,.6-3.98,1.66-6,1.73-5.39,.18-10.39,1-12.66,6.64-1.02,2.54-1,5.48-1.8,8.14-.46,1.55-1.61,2.89-2.44,4.32-1.77-1.05-4.01-1.74-5.17-3.25-.92-1.21-1.06-3.59-.59-5.17,1.63-5.56,3.67-10.99,5.7-16.88-2.16,.7-4.66,1.08-6.72,2.25-10.47,5.99-20.85,12.13-31.2,18.31-12.12,7.25-19.83,18.08-24.88,31.02-3.46,8.86-2.32,11.08,6.29,14.15,1.63,.58,3.44,2.78,3.69,4.46,.2,1.3-1.62,3.34-3.05,4.33-1.57,1.09-3.73,1.33-5.61,1.99-4.09,1.43-6.87,5.97-5.73,10.15,1.85,6.75,9.18,16.43,18.6,15.63,3.95-.34,7.94-.52,11.82-1.23,3.14-.57,5.19,.62,5.46,3.38,.69,7.03,5.19,11.6,9.66,16.24,14.55,15.13,32.48,24.64,52.44,30.14,10.48,2.89,21.29,2.34,32.03-.23,12.05-2.88,22.05-9.48,31.47-16.92,5.03-3.97,10.32-8.36,11.83-15.8Zm-116.62,26.59c-.3,1.61-.48,2.39-.59,3.18-1.26,9.17,3.61,16.78,6.89,24.58,8.32,19.82,17.68,39.21,18.04,61.37,.06,3.7,1.93,6.77,5.49,8.85,3.51,2.05,7.05,4.4,9.8,7.35,6.04,6.48,11.39,13.43,13.6,22.44,1.38,5.62,3.94,10.94,5.97,16.4,.5,.03,.99,.06,1.49,.1,1.47-2.46,3.16-4.82,4.37-7.41,1.94-4.15,4.86-5.15,7.76-1.68,3.67,4.39,6.84,9.24,9.81,14.15,2.46,4.08,4.35,4.56,7.51,1.07,5.72-6.32,6.39-15.07,1.87-22.49-1.19-1.96-2.66-4.13-2.8-6.29-.8-12.4-1.93-24.84-1.56-37.22,.23-7.77,2.81-15.49,4.53-23.19,.53-2.36,2.05-4.51,2.53-6.88,2.22-10.98,4.6-21.94,6.11-33.02,.47-3.42-.94-7.68-2.91-10.58-.81-1.2-5.7-.62-8.18,.45-12.74,5.53-25.81,7.02-39.64,5.83-14.56-1.26-28.26-4.39-40.81-12.06-2.79-1.7-5.77-3.09-9.28-4.95ZM153.52,195.35c-5.35-.35-8.77,2.12-11.1,8.41-1.47,3.96-1.41,8.61-3.34,12.26-2.7,5.11-2.32,10.27-2.21,15.55,.07,3.31,.67,6.65,.39,9.92-.16,1.85-1.62,3.59-2.49,5.37-1.71-1.03-4.4-1.7-4.95-3.17-1.64-4.4-2.96-9.06-3.43-13.71-.53-5.18-3.48-6.21-7.46-5.27-8.99,2.1-18.04,4.15-26.77,7.1-15.73,5.31-30.38,12.93-44.75,21.33-10.25,5.99-16.22,13.76-17.03,25.63-.54,7.85,5.16,13.26,12.41,11.08,6.8-2.04,13.42-4.69,20.21-6.76,10.24-3.13,20.43-6.7,30.89-8.82,16.02-3.25,32.31-2.23,48.55-1.36,2.19,.12,5.18-1.12,6.61-2.77,3.76-4.35,6.34-9.79,10.34-13.86,8.85-9,6.2-18.72,2.82-28.63-2.43-7.12-5.45-14.05-7.62-21.24-1.06-3.51-.76-7.42-1.07-11.05Zm244.8-77.45c-1.61-4.1-2.73-7.55-4.29-10.8-5.29-11.02-10.85-21.92-16.06-32.97-2-4.25-4.99-6.09-9.48-5.25-4.22,.79-8.61,1.33-12.53,2.95-13.73,5.65-27.3,11.71-40.92,17.61-3.51,1.52-3.85,4.05-1.69,6.75,4.22,5.27,8.85,10.2,13.01,15.52,5.38,6.88,10.76,13.8,15.53,21.1,2.25,3.43,4.04,4.71,7.94,2.91,15.38-7.08,30.47-14.96,48.5-17.82Zm270.49,157.81c.56,.54,1.12,1.09,1.68,1.63,1.57-.26,3.37-.11,4.68-.84,10.96-6.11,20.16-13.69,20.12-27.69-.01-4.2,.5-10.17-1.9-12.25-5.68-4.92-7.66-10.86-9.29-17.54-.44-1.8-2.37-4.67-3.52-4.63-6.54,.26-9.74-3.9-12.85-8.48-.93-1.37-1.65-3.41-2.94-3.89-2.74-1.02-5.78-1.21-8.7-1.74-.16,2.11-1.09,4.55-.35,6.28,1.98,4.61,1.39,8.74-1,12.8-3.84,6.52-7.85,12.95-11.69,19.47-3.78,6.42-6.2,13.26-4.74,20.81,.33,1.7,1.86,4.09,3.22,4.39,1.28,.28,3.49-1.46,4.57-2.86,2.61-3.36,4.34-7.5,7.29-10.45,2.51-2.5,4.72-6.52,9.77-5.81-.14,1-.09,1.67-.34,2.22-2.7,6.11-5.73,12.09-8.02,18.35-.76,2.06,.36,4.81,.63,7.25,2.15-.5,4.97-.32,6.31-1.64,3.23-3.2,5.74-7.12,8.6-10.7,2.41-3.02,4.89-5.97,8.27-10.07,.77,2.88,1.84,4.58,1.4,5.66-1.52,3.65-3.48,7.14-5.46,10.59-1.79,3.12-3.82,6.1-5.75,9.14Zm-21.58-61.77c-.56-3.06-.72-6.28-1.8-9.14-.8-2.1-2.82-3.73-4.29-5.57-1.4,1.81-3.42,3.42-4.08,5.47-2.7,8.29-7.35,13.91-16.71,14.49-1.29,.08-2.56,1.39-3.72,2.28-4.77,3.69-4.47,9.58-6.56,14.42-3.01,6.99-1.27,12.89,1.44,18.48,6.95,14.39,18.01,25.5,30.9,34.7,3.14,2.24,7.12,3.44,10.85,4.71,3.5,1.19,9.18-1.91,9.54-5.11,.48-4.25-2.76-4.87-5.93-5.88-2.22-.71-4.07-2.5-6.13-3.74-2.33-1.4-4.66-2.8-7.07-4.06-3.56-1.86-8.1-2.57-9.31-7.26-1.17-4.55-2.53-9.16-2.81-13.8-.31-5.02-.81-9.2-6.57-10.78-1.01-.28-2.36-2.16-2.21-3.09,.2-1.29,1.43-2.84,2.64-3.48,2.17-1.14,4.68-1.6,7-2.48,10.11-3.87,14.38-9.85,14.83-20.15Zm-370.5,243.75c.85,1.65,1.24,3.57,2.24,3.97,.89,.36,2.83-.65,3.66-1.61,4.4-5.13,8.38-10.64,12.92-15.64,6.77-7.45,13.25-15.36,21.01-21.65,10.39-8.42,22.89-10.75,35.1-1.18,4.53,3.55,8.62,7.66,13.13,11.22,1.26,1,3.33,.99,5.02,1.44-.35-2.08,.02-4.86-1.19-6.11-4.23-4.35-8.67-8.66-13.66-12.05-6.17-4.19-13.25-7.38-20.85-6.83-11.24,.81-20.71,6.33-28.73,13.95-7.28,6.92-14.25,14.23-20.84,21.81-3.18,3.65-5.19,8.32-7.81,12.66Zm367.71-136.66c3.08-2.76,5.8-5.2,8.53-7.64-1.84-1.94-3.44-4.21-5.57-5.76-11.51-8.41-24.02-15.54-32.62-27.5-1.06-1.47-4.79-2.34-6.58-1.66-2.96,1.13-2.71,3.94-1.01,6.67,7.58,12.21,17.71,21.98,29.07,30.56,2.3,1.74,4.85,3.17,8.17,5.32ZM191.42,246.83c-.85-1.42-1.34-2.69-2.21-3.63-4-4.3-7.28-3.89-11.03,1.35-4.3,6-8.55,12.04-12.78,18.1-2.83,4.05-5.56,8.15-8.36,12.22-2.16,3.15-.45,5.36,1.95,7.11,3.55,2.59,6.84,2.01,9.42-1.58,6.28-8.76,12.53-17.54,18.71-26.37,1.59-2.27,2.86-4.76,4.31-7.21Zm101.8-62.36c.72-.22,1.44-.44,2.16-.66-.13-1.85,.29-3.99-.5-5.51-2.34-4.53-4.88-9-7.84-13.14-5.07-7.1-10.45-13.98-15.86-20.83-.98-1.25-3.17-2.93-4.04-2.57-1.61,.67-3.55,2.61-3.71,4.18-.18,1.85,1.01,4.17,2.26,5.78,6.28,8.09,12.7,16.06,19.22,23.95,2.56,3.1,5.52,5.87,8.3,8.8Z"/>
      <path d="M312.45,186.56c.55-1.46,.71-2.94,1.52-3.84,5.13-5.7,10.22-11.45,15.69-16.82,3.75-3.68,7.86-7.12,12.27-9.96,2.35-1.51,6.83-2.99,8.31-1.85,2.83,2.19,4.94,6.08,5.81,9.65,.35,1.42-3.05,4.59-5.35,5.67-12.44,5.84-25.06,11.28-38.27,17.14Z"/>
      <path class="cls-1" d="M489.59,306.59c-1.52,7.44-6.81,11.83-11.83,15.8-9.42,7.44-19.42,14.04-31.47,16.92-10.73,2.57-21.55,3.11-32.03,.23-19.96-5.5-37.89-15.01-52.44-30.14-4.47-4.64-8.97-9.21-9.66-16.24-.27-2.76-2.32-3.95-5.46-3.38-3.89,.71-7.87,.89-11.82,1.23-9.42,.81-16.75-8.88-18.6-15.63-1.15-4.18,1.63-8.72,5.73-10.15,1.88-.66,4.04-.89,5.61-1.99,1.43-.99,3.25-3.04,3.05-4.33-.26-1.68-2.06-3.88-3.69-4.46-8.61-3.07-9.75-5.28-6.29-14.15,5.05-12.94,12.76-23.78,24.88-31.02,10.35-6.19,20.73-12.33,31.2-18.31,2.05-1.17,4.56-1.55,6.72-2.25-2.03,5.88-4.07,11.32-5.7,16.88-.46,1.58-.33,3.96,.59,5.17,1.15,1.52,3.39,2.21,5.17,3.25,.84-1.43,1.98-2.77,2.44-4.32,.8-2.66,.78-5.6,1.8-8.14,2.27-5.64,7.27-6.46,12.66-6.64,2.02-.07,4-1.12,6-1.73-1.31-1.83-2.22-4.49-3.99-5.34-10.17-4.87-20.67-7.19-31.67-2.43-7.72,3.34-15.84,5.94-23.19,9.95-8.04,4.39-15.65,9.7-22.97,15.25-5.65,4.28-10.44,9.67-15.79,14.36-8.46,7.4-13.18,25.47-9.36,35.98,.79,2.18,.92,4.61,1.44,7.39-6.15-2.1-11.99-11.77-12.43-18.9-.58-9.41,3.82-17.12,8.92-24.2,4.16-5.77,9.2-11.19,14.78-15.59,7.02-5.53,14.89-10.03,22.57-14.66,4.34-2.61,8.87-5.15,13.64-6.77,10.9-3.7,21.81-7.9,33.07-9.92,18.18-3.27,36.71-4.55,54.96-7.46,8.07-1.29,15.82-4.55,23.74-6.81,1.85-.53,3.97-1.24,5.71-.8,4.37,1.09,5.07,3.79,2.49,7.57-.84,1.22-1.75,2.54-2.08,3.94-.6,2.55,.58,4.86,3.3,3.98,8.24-2.68,12.55,1.76,17.17,7.6,7.75,9.79,13.63,20.51,15.94,32.62,2.01,10.51,2.41,21.35,3.1,32.07,.08,1.24-2.43,3.72-3.83,3.78-3.56,.18-7.22-.46-10.76-1.19-3.38-.7-6.62-2.04-9.98-2.89-4.31-1.09-7.73-2.73-9.66-7.39-1.94-4.67-5.81-8.26-10.99-9.17-2.44-.43-5.18,.84-7.79,1.34,.84,1.98,1.23,4.35,2.59,5.88,5,5.64,5.18,6.95,.59,13.11-.89,1.19-2.04,2.45-2.27,3.81-.31,1.82-.45,4.22,.49,5.54,.76,1.06,3.24,1.05,4.98,1.16,1.11,.07,2.35-.31,3.37-.82,12.08-6.1,23.77-3.26,35.56,1.16,9.3,3.49,18.82,2.37,28.27,.24,.43-.1,.92,.1,1.81,.22-.46,6.69-5.77,10.24-9.17,14.82-7.27,9.78-17.79,13.81-29.41,14.17-5.52,.17-11.46-1.47-16.59-3.7-7.3-3.17-9.04-3.37-13.98,2.86-7.66,9.65-17.74,16.69-29.23,19.5-12.76,3.12-26.36,3.6-38.04-5.14-1.3-.98-2.11-2.61-3.15-3.94,1.47-.47,2.92-1.31,4.4-1.36,9.14-.28,16.13-3.76,21.42-11.64,3.55-5.28,8.27-9.93,13.12-14.11,2.8-2.41,6.88-3.35,10.4-4.9,2.39-1.05,5.33-1.5,7.06-3.19,1.33-1.3,1.7-4.2,1.44-6.25-.12-.94-2.77-2.04-4.36-2.2-7.87-.8-14.38,3.27-19.94,7.71-7.35,5.87-13.15,13.69-20.51,19.55-3.29,2.62-8.75,3.39-13.25,3.44-6.84,.08-11.57-4.69-16.16-9.3-1.58-1.59-4.32-3.81-5.79-3.35-3.18,.99-2.96,4.27-2.11,7.22,3.47,12.09,11.85,20.5,21.3,27.95,3.3,2.6,7.41,4.16,11.07,6.32,8.1,4.77,16.95,5.02,26.03,5.1,10.04,.09,18.56-4.37,27.39-7.92,3.78-1.52,7.08-4.21,10.65-6.26,.96-.55,2.43-1.32,3.18-.96,4.47,2.12,7.05-.68,9.96-3.21,1.11-.96,2.84-1.74,4.25-1.69,3.59,.14,7.16,.79,11.41,1.32Zm-155.86-64.68c-.69,.81-1.51,1.36-1.68,2.07-.49,2.01-.71,4.08-1.04,6.13,2.24,.2,4.74,1.13,6.67,.44,3.37-1.2,6.6-3.09,9.49-5.23,4.95-3.67,4.62-5.22-1.09-8.06-.39-.2-.73-.52,.05,.05-.26-3.11,.26-5.72-.81-7.03-1.01-1.24-3.76-1.73-5.62-1.49-5.41,.69-9.03,4.17-12.13,9.15,2.05,1.32,3.93,2.54,6.15,3.97Zm74.23-18.03c-4.94,.03-8.89,3.54-8.93,7.94-.05,4.65,4.7,9.47,9.17,9.3,4.31-.17,8.18-4.41,8.16-8.97-.02-5.1-3.27-8.3-8.4-8.27Zm82.35-13.43c.06-3-4.1-7.24-7.24-7.39-3.13-.15-7.34,3.88-7.41,7.08-.07,3.32,3.71,7.66,6.84,7.87,3.3,.22,7.74-4.08,7.81-7.57Z"/>
      <path class="cls-1" d="M372.98,333.18c3.5,1.86,6.49,3.24,9.28,4.95,12.54,7.67,26.25,10.8,40.81,12.06,13.84,1.19,26.9-.29,39.64-5.83,2.47-1.07,7.36-1.65,8.18-.45,1.97,2.91,3.38,7.16,2.91,10.58-1.51,11.08-3.88,22.05-6.11,33.02-.48,2.37-2,4.51-2.53,6.88-1.72,7.7-4.3,15.42-4.53,23.19-.37,12.38,.75,24.82,1.56,37.22,.14,2.15,1.61,4.33,2.8,6.29,4.52,7.43,3.86,16.17-1.87,22.49-3.16,3.49-5.05,3-7.51-1.07-2.97-4.91-6.14-9.76-9.81-14.15-2.9-3.47-5.82-2.47-7.76,1.68-1.21,2.59-2.9,4.95-4.37,7.41-.5-.03-.99-.06-1.49-.1-2.03-5.46-4.59-10.78-5.97-16.4-2.21-9.01-7.56-15.96-13.6-22.44-2.75-2.95-6.29-5.3-9.8-7.35-3.56-2.08-5.43-5.15-5.49-8.85-.36-22.16-9.72-41.56-18.04-61.37-3.28-7.8-8.15-15.41-6.89-24.58,.11-.79,.29-1.57,.59-3.18Zm34.47,37.63c.4-5.39,.91-8.84,.84-12.27-.08-3.67-1.88-6.52-5.9-6.71-4.24-.21-3.77,3.53-4.21,6.06-.78,4.54-1.42,9.15-1.62,13.75-.27,6.05-.07,12.12-.07,18.98,2.52-1.16,4.04-1.73,5.44-2.52,8.02-4.54,15.83-9.49,24.1-13.51,2.93-1.43,7.32-1.72,10.36-.63,4.87,1.75,9.44,4.71,13.65,7.82,6.87,5.07,9.83,4.93,12.65-2.67,2.68-7.22,4.61-14.77,6.13-22.33,.35-1.76-2.26-4.12-3.5-6.2-1.38,1.22-3.33,2.18-4.03,3.71-2.05,4.51-3.94,9.15-5.24,13.92-1.09,4.02-3.3,3.71-5.87,2.22-3.13-1.81-6.17-3.84-8.99-6.09-8.98-7.14-11.56-5.49-20.25-.03-3.79,2.38-8.1,3.95-13.48,6.5Z"/>
      <path class="cls-1" d="M153.52,195.35c.31,3.63,0,7.55,1.07,11.05,2.17,7.19,5.19,14.12,7.62,21.24,3.39,9.91,6.04,19.63-2.82,28.63-4,4.07-6.58,9.51-10.34,13.86-1.42,1.65-4.41,2.89-6.61,2.77-16.24-.88-32.53-1.9-48.55,1.36-10.46,2.13-20.65,5.69-30.89,8.82-6.79,2.08-13.41,4.72-20.21,6.76-7.26,2.18-12.95-3.23-12.41-11.08,.81-11.87,6.78-19.64,17.03-25.63,14.36-8.39,29.02-16.01,44.75-21.33,8.73-2.95,17.78-4.99,26.77-7.1,3.98-.93,6.94,.09,7.46,5.27,.48,4.66,1.79,9.31,3.43,13.71,.55,1.47,3.24,2.14,4.95,3.17,.87-1.79,2.33-3.53,2.49-5.37,.28-3.27-.32-6.61-.39-9.92-.11-5.28-.49-10.43,2.21-15.55,1.93-3.65,1.87-8.3,3.34-12.26,2.33-6.29,5.75-8.76,11.1-8.41Zm-64.53,49.76c-2.53-1.54-4.25-3.3-6.17-3.54-2.13-.27-4.7,.37-6.63,1.43-10.65,5.82-21.22,11.8-31.68,17.95-1.88,1.1-3.3,3.14-4.63,4.96-.53,.72-.67,2.36-.2,3.01,.53,.72,2.01,1.18,2.97,1.03,1.41-.21,2.78-.98,4.09-1.65,5.56-2.85,11.06-5.83,16.65-8.62,6.77-3.38,13.66-6.52,20.39-9.98,1.65-.85,2.88-2.5,5.2-4.59Zm-39.16,35.27c2.18-.81,4.17-1.42,6.05-2.28,3.9-1.78,7.66-3.94,11.64-5.5,5.98-2.35,12.11-4.31,18.16-6.48,3.4-1.22,4.79-3.44,3.11-6.94-1.68-3.51-4.14-3.84-7.27-1.79-1.48,.97-3.08,1.81-4.71,2.5-6.61,2.79-13.33,5.32-19.84,8.32-3.27,1.51-6.31,3.64-9.16,5.87-1.18,.93-1.59,2.84-2.35,4.31,1.39,.63,2.79,1.27,4.38,1.99Z"/>
      <path class="cls-1" d="M398.32,117.9c-18.02,2.86-33.12,10.74-48.5,17.82-3.89,1.79-5.69,.52-7.94-2.91-4.78-7.3-10.15-14.22-15.53-21.1-4.15-5.31-8.79-10.25-13.01-15.52-2.16-2.7-1.82-5.23,1.69-6.75,13.63-5.9,27.19-11.97,40.92-17.61,3.92-1.61,8.31-2.16,12.53-2.95,4.49-.84,7.48,1,9.48,5.25,5.21,11.06,10.77,21.95,16.06,32.97,1.56,3.24,2.68,6.7,4.29,10.8Z"/>
      <path class="cls-1" d="M668.81,275.71c1.93-3.04,3.96-6.02,5.75-9.14,1.98-3.45,3.94-6.93,5.46-10.59,.45-1.07-.63-2.77-1.4-5.66-3.38,4.11-5.86,7.06-8.27,10.07-2.86,3.58-5.37,7.51-8.6,10.7-1.34,1.32-4.16,1.14-6.31,1.64-.26-2.44-1.38-5.18-.63-7.25,2.29-6.26,5.32-12.24,8.02-18.35,.24-.55,.19-1.22,.34-2.22-5.05-.7-7.27,3.32-9.77,5.81-2.96,2.95-4.69,7.09-7.29,10.45-1.09,1.4-3.29,3.14-4.57,2.86-1.37-.3-2.9-2.69-3.22-4.39-1.46-7.55,.96-14.39,4.74-20.81,3.84-6.52,7.85-12.94,11.69-19.47,2.39-4.06,2.98-8.19,1-12.8-.74-1.72,.18-4.17,.35-6.28,2.92,.53,5.96,.72,8.7,1.74,1.28,.48,2.01,2.52,2.94,3.89,3.11,4.58,6.3,8.74,12.85,8.48,1.15-.05,3.08,2.83,3.52,4.63,1.63,6.67,3.61,12.61,9.29,17.54,2.4,2.08,1.89,8.05,1.9,12.25,.04,14-9.16,21.58-20.12,27.69-1.31,.73-3.11,.58-4.68,.84-.56-.54-1.12-1.09-1.68-1.63Z"/>
      <path class="cls-1" d="M647.23,213.94c-.45,10.3-4.72,16.28-14.83,20.15-2.32,.89-4.83,1.34-7,2.48-1.21,.64-2.44,2.18-2.64,3.48-.14,.93,1.21,2.82,2.21,3.09,5.75,1.57,6.26,5.75,6.57,10.78,.28,4.64,1.64,9.25,2.81,13.8,1.21,4.68,5.75,5.39,9.31,7.26,2.41,1.26,4.74,2.66,7.07,4.06,2.06,1.24,3.92,3.04,6.13,3.74,3.17,1.01,6.41,1.63,5.93,5.88-.36,3.2-6.04,6.3-9.54,5.11-3.73-1.27-7.71-2.47-10.85-4.71-12.89-9.2-23.94-20.31-30.9-34.7-2.7-5.59-4.45-11.49-1.44-18.48,2.09-4.84,1.78-10.73,6.56-14.42,1.16-.9,2.43-2.2,3.72-2.28,9.36-.58,14.01-6.2,16.71-14.49,.67-2.05,2.68-3.66,4.08-5.47,1.47,1.84,3.49,3.47,4.29,5.57,1.09,2.86,1.25,6.08,1.8,9.14Z"/>
      <path class="cls-1" d="M276.73,457.69c2.62-4.34,4.63-9.01,7.81-12.66,6.6-7.58,13.56-14.89,20.84-21.81,8.02-7.62,17.49-13.14,28.73-13.95,7.6-.55,14.67,2.64,20.85,6.83,4.99,3.39,9.43,7.7,13.66,12.05,1.21,1.24,.84,4.03,1.19,6.11-1.7-.45-3.76-.44-5.02-1.44-4.51-3.57-8.6-7.67-13.13-11.22-12.21-9.57-24.72-7.24-35.1,1.18-7.76,6.29-14.24,14.2-21.01,21.65-4.54,5-8.52,10.51-12.92,15.64-.83,.96-2.77,1.97-3.66,1.61-1-.4-1.38-2.32-2.24-3.97Z"/>
      <path class="cls-1" d="M644.44,321.03c-3.33-2.15-5.87-3.58-8.17-5.32-11.36-8.59-21.49-18.35-29.07-30.56-1.69-2.73-1.95-5.54,1.01-6.67,1.79-.68,5.52,.19,6.58,1.66,8.6,11.96,21.11,19.09,32.62,27.5,2.13,1.55,3.73,3.82,5.57,5.76-2.72,2.44-5.45,4.88-8.53,7.64Z"/>
      <path class="cls-1" d="M191.42,246.83c-1.45,2.45-2.73,4.94-4.31,7.21-6.18,8.83-12.44,17.61-18.71,26.37-2.57,3.59-5.87,4.16-9.42,1.58-2.4-1.75-4.11-3.96-1.95-7.11,2.8-4.07,5.53-8.17,8.36-12.22,4.23-6.05,8.48-12.09,12.78-18.1,3.76-5.25,7.03-5.65,11.03-1.35,.87,.93,1.37,2.21,2.21,3.63Z"/>
      <path class="cls-1" d="M293.22,184.47c-2.78-2.92-5.74-5.7-8.3-8.8-6.52-7.89-12.94-15.87-19.22-23.95-1.25-1.61-2.44-3.93-2.26-5.78,.16-1.57,2.1-3.51,3.71-4.18,.87-.36,3.06,1.33,4.04,2.57,5.41,6.85,10.79,13.73,15.86,20.83,2.96,4.14,5.5,8.61,7.84,13.14,.78,1.52,.37,3.66,.5,5.51-.72,.22-1.44,.44-2.16,.66Z"/>
      <path d="M333.74,241.92c-2.22-1.43-4.1-2.65-6.15-3.97,3.1-4.97,6.71-8.45,12.13-9.15,1.85-.24,4.61,.25,5.62,1.49,1.07,1.31,.55,3.92,.81,7.03-.78-.57-.45-.25-.05-.05,5.71,2.84,6.04,4.39,1.09,8.06-2.89,2.14-6.12,4.03-9.49,5.23-1.93,.69-4.43-.24-6.67-.44,.33-2.05,.55-4.12,1.04-6.13,.17-.71,.99-1.25,1.68-2.07Z"/>
      <path d="M407.97,223.88c5.13-.03,8.38,3.17,8.4,8.27,.02,4.55-3.85,8.8-8.16,8.97-4.46,.17-9.21-4.65-9.17-9.3,.04-4.4,3.99-7.9,8.93-7.94Z"/>
      <path d="M490.31,210.45c-.07,3.49-4.51,7.79-7.81,7.57-3.13-.21-6.9-4.56-6.84-7.87,.06-3.21,4.27-7.23,7.41-7.08,3.14,.15,7.3,4.39,7.24,7.39Z"/>
      <path d="M407.45,370.82c5.38-2.55,9.69-4.12,13.48-6.5,8.69-5.46,11.27-7.11,20.25,.03,2.83,2.25,5.86,4.28,8.99,6.09,2.57,1.48,4.77,1.79,5.87-2.22,1.3-4.77,3.19-9.41,5.24-13.92,.7-1.53,2.65-2.49,4.03-3.71,1.25,2.08,3.86,4.44,3.5,6.2-1.52,7.55-3.45,15.11-6.13,22.33-2.82,7.59-5.78,7.74-12.65,2.67-4.21-3.11-8.78-6.08-13.65-7.82-3.04-1.09-7.43-.79-10.36,.63-8.27,4.02-16.08,8.97-24.1,13.51-1.4,.79-2.93,1.37-5.44,2.52,0-6.85-.2-12.93,.07-18.98,.21-4.6,.84-9.2,1.62-13.75,.44-2.53-.03-6.27,4.21-6.06,4.03,.2,5.82,3.05,5.9,6.71,.08,3.43-.44,6.87-.84,12.27Z"/>
      <path d="M88.99,245.11c-2.32,2.09-3.55,3.74-5.2,4.59-6.73,3.45-13.62,6.6-20.39,9.98-5.59,2.79-11.09,5.77-16.65,8.62-1.31,.67-2.67,1.44-4.09,1.65-.96,.14-2.44-.31-2.97-1.03-.47-.64-.33-2.29,.2-3.01,1.33-1.82,2.75-3.86,4.63-4.96,10.46-6.15,21.03-12.13,31.68-17.95,1.93-1.06,4.5-1.7,6.63-1.43,1.91,.24,3.63,2.01,6.17,3.54Z"/>
      <path d="M49.83,280.38c-1.59-.72-2.98-1.36-4.38-1.99,.76-1.47,1.17-3.38,2.35-4.31,2.85-2.23,5.89-4.36,9.16-5.87,6.51-3,13.23-5.53,19.84-8.32,1.63-.69,3.23-1.53,4.71-2.5,3.13-2.05,5.59-1.72,7.27,1.79,1.68,3.5,.29,5.72-3.11,6.94-6.05,2.17-12.18,4.13-18.16,6.48-3.98,1.57-7.74,3.72-11.64,5.5-1.88,.86-3.87,1.47-6.05,2.28Z"/>
    </g>
  </g>
</svg>