<?xml version="1.0" encoding="utf-8"?>
<!-- Generator: Adobe Illustrator 26.5.0, SVG Export Plug-In . SVG Version: 6.00 Build 0)  -->
<svg version="1.1" id="Layer_2_00000178204026065842376530000005753628633274966663_"
	 xmlns="http://www.w3.org/2000/svg" xmlns:xlink="http://www.w3.org/1999/xlink" x="0px" y="0px" viewBox="0 0 425.6 268.3"
	 style="enable-background:new 0 0 425.6 268.3;" xml:space="preserve">
<style type="text/css">
	.st0{fill:#FFFFFF;}
	.st1{fill:#D00000;}
	.st2{fill:#334199;}
</style>
<g id="svg3118">
	<g id="layer1">
		<path id="path3924" class="st0" d="M317.2,34c-0.6,0.1-1.3,0.4-2.1,0.9l-91.6,48.6c-0.8,0.4-0.7,0.6,0.1,0.9l100.7,51.3
			c1.9,1,2.6,1,4.7-0.1l90.1-53.5c2.1-1.3,2.2-1.5-0.4-2.5l-97.9-44.8C319.2,34.1,318.2,33.8,317.2,34C317.2,34,317.2,34,317.2,34z
			 M218.5,90.4c-0.2,0.1-0.2,0.4-0.2,1l0.5,114.4c0,1.2,0.1,1.5,1.3,2.2l98.2,54.8c2.3,1.5,2.7,1.3,2.5-1l1.5-116.4
			c0.2-1.6-0.5-2.4-1.5-2.9L219.5,90.8C219,90.5,218.7,90.3,218.5,90.4L218.5,90.4z M424.9,87.4c-0.2,0.1-0.4,0.2-0.7,0.4l-92.5,55
			c-1.9,1.3-1.7,1.6-1.7,3.2l-1.5,116.1c0.3,1.7-0.2,2.5,1.5,1.3l90.6-56.8c1.7-1.3,2.1-1.5,1.9-3.4l3-114.8
			C425.5,87.5,425.4,87.2,424.9,87.4L424.9,87.4L424.9,87.4z"/>
	</g>
	<g id="layer1-2">
		<path id="path3924-2" class="st1" d="M317.3,34c-0.6,0.1-1.3,0.4-2.1,0.9l-91.6,48.6c-0.8,0.4-0.7,0.6,0.1,0.9l100.7,51.3
			c1.9,1,2.6,1,4.7-0.1l90.1-53.5c2.1-1.3,2.2-1.5-0.4-2.5l-97.9-44.8C319.3,34.1,318.3,33.8,317.3,34C317.3,34,317.3,34,317.3,34z
			 M307.9,44.7c1.9-0.4,4-0.6,6.2-0.6c8.9,0.1,16,4.1,15.8,8.8c-0.2,4.7-7.5,8.5-16.4,8.3c-8.9-0.1-16-4-15.8-8.8
			C297.9,48.9,302,45.9,307.9,44.7C307.9,44.7,307.9,44.7,307.9,44.7z M256.4,72.6c1.9-0.4,4.1-0.6,6.3-0.6c8.9,0.1,15.9,4,15.7,8.8
			c-0.2,4.7-7.5,8.5-16.4,8.4c-8.9-0.1-15.9-4.1-15.7-8.8C246.4,76.8,250.5,73.9,256.4,72.6C256.4,72.6,256.4,72.6,256.4,72.6z
			 M340.5,59.8c1.9-0.4,4.1-0.6,6.3-0.6c8.9,0.1,15.9,4,15.7,8.8c-0.2,4.7-7.5,8.5-16.4,8.3c-8.9-0.1-15.9-4-15.7-8.8
			C330.5,64.1,334.6,61.1,340.5,59.8z M218.6,90.4c-0.2,0.1-0.2,0.4-0.2,1l0.5,114.4c0,1.2,0.1,1.5,1.3,2.2l98.2,54.8
			c2.3,1.5,2.7,1.3,2.5-1l1.5-116.4c0.2-1.6-0.5-2.4-1.5-2.9L219.6,90.8C219.1,90.5,218.8,90.3,218.6,90.4L218.6,90.4z M288.9,89
			c1.9-0.4,4.1-0.6,6.3-0.6c8.9,0.1,15.9,4,15.7,8.8c-0.2,4.7-7.5,8.5-16.4,8.3c-8.9-0.1-15.9-4-15.7-8.8
			C279,93.2,283.1,90.3,288.9,89L288.9,89z M373.8,75.5c1.9-0.4,4.1-0.6,6.3-0.6c8.9,0.1,15.9,4,15.7,8.8c-0.2,4.7-7.5,8.5-16.4,8.4
			c-8.9-0.1-15.9-4.1-15.7-8.8C363.9,79.7,368,76.7,373.8,75.5L373.8,75.5L373.8,75.5z M228.2,109.5c0.3-0.1,0.7-0.2,1-0.2
			c4-0.6,9.1,2.3,12.9,7.7c5,7.3,5.7,16.5,1.6,20.6c-4.1,4-11.5,1.4-16.5-5.9s-5.7-16.5-1.6-20.6
			C226.3,110.4,227.2,109.8,228.2,109.5L228.2,109.5z M322.4,105.3c1.9-0.4,4.1-0.6,6.3-0.6c8.9,0.1,15.9,4,15.7,8.8
			c-0.2,4.7-7.5,8.5-16.4,8.3c-8.9-0.1-15.9-4-15.7-8.8C312.4,109.5,316.6,106.5,322.4,105.3C322.4,105.3,322.4,105.3,322.4,105.3z
			 M425,87.4c-0.2,0.1-0.4,0.2-0.7,0.4l-92.5,55c-1.9,1.3-1.7,1.6-1.7,3.2l-1.5,116.1c0.3,1.7-0.2,2.5,1.5,1.3l90.6-56.8
			c1.7-1.3,2.1-1.5,1.9-3.4l3-114.8C425.6,87.5,425.5,87.2,425,87.4L425,87.4L425,87.4z M412.5,108.8c2.8-0.5,5.3,0.4,6.8,2.8
			c3,4.8,1,14-4.6,20.5s-12.5,7.8-15.6,2.9c-3-4.8-1-14,4.6-20.5C406.5,111.3,409.7,109.3,412.5,108.8
			C412.5,108.8,412.5,108.8,412.5,108.8z M293.7,143.1c4.1-0.7,9.3,2.2,13.1,7.8c5,7.3,5.8,16.5,1.7,20.6c-4.1,4-11.5,1.3-16.5-6
			s-5.7-16.5-1.6-20.5c0.8-0.8,1.6-1.3,2.6-1.6C293.2,143.3,293.4,143.2,293.7,143.1C293.7,143.1,293.7,143.1,293.7,143.1z
			 M260.8,163.3c4.1-0.7,9.3,2.2,13.1,7.8c5,7.3,5.8,16.5,1.7,20.6c-4.1,4-11.5,1.3-16.5-6s-5.7-16.5-1.6-20.5
			c0.8-0.8,1.6-1.3,2.6-1.6C260.2,163.4,260.5,163.3,260.8,163.3L260.8,163.3z M228.3,183.2c0.3-0.1,0.7-0.2,1-0.2
			c4-0.6,9.1,2.3,12.9,7.8c5,7.3,5.8,16.5,1.7,20.5c-4.1,4-11.5,1.4-16.5-5.9c-5-7.3-5.7-16.5-1.6-20.6
			C226.5,184,227.4,183.5,228.3,183.2L228.3,183.2z M384.5,162.2c2.8-0.5,5.2,0.4,6.7,2.8c3,4.8,0.9,14-4.6,20.5
			c-5.6,6.5-12.5,7.8-15.6,2.9c-3-4.8-0.9-14,4.6-20.5c2.4-2.8,5.1-4.7,7.7-5.4C383.7,162.4,384.1,162.3,384.5,162.2L384.5,162.2
			L384.5,162.2z M292.2,218.2c0.3-0.1,0.7-0.2,1-0.2c4-0.6,9.1,2.3,12.9,7.7c5,7.3,5.7,16.5,1.6,20.6c-4.1,4-11.4,1.4-16.5-6
			c-5-7.3-5.8-16.5-1.7-20.6C290.4,219,291.3,218.5,292.2,218.2L292.2,218.2z M353.6,217.6c2.8-0.5,5.3,0.3,6.8,2.8
			c3,4.8,1,14-4.6,20.5c-5.6,6.5-12.5,7.8-15.5,3s-1-14,4.6-20.5C347.6,220.1,350.7,218.2,353.6,217.6L353.6,217.6z"/>
	</g>
	<g id="layer1-3">
		<path id="path3924-3" class="st0" d="M104.4,6.9c-0.6,0.1-1.3,0.4-2.1,0.9L10.7,56.4c-0.8,0.4-0.7,0.6,0.1,0.9l100.7,51.3
			c1.9,1,2.6,1,4.7-0.1L206.3,55c2.1-1.3,2.2-1.5-0.4-2.5L108,7.7C106.4,7,105.4,6.7,104.4,6.9C104.4,6.9,104.4,6.9,104.4,6.9z
			 M5.7,63.3c-0.2,0.1-0.2,0.4-0.2,1L6,178.7c0,1.2,0.1,1.5,1.3,2.2l98.2,54.8c2.3,1.5,2.7,1.3,2.5-1l1.5-116.4
			c0.2-1.6-0.5-2.4-1.5-2.9L6.7,63.7C6.2,63.4,5.9,63.2,5.7,63.3L5.7,63.3L5.7,63.3z M212.1,60.3c-0.2,0.1-0.4,0.2-0.7,0.4l-92.5,55
			c-1.9,1.3-1.7,1.6-1.7,3.2L115.7,235c0.3,1.7-0.2,2.5,1.5,1.3l90.6-56.8c1.7-1.3,2.1-1.5,1.9-3.4l3-114.8
			C212.7,60.4,212.6,60.1,212.1,60.3L212.1,60.3L212.1,60.3z"/>
	</g>
	<g id="layer1-4">
		<path id="path3924-4" class="st2" d="M104.5,6.9c-0.6,0.1-1.3,0.4-2.1,0.9L10.8,56.4c-0.8,0.4-0.7,0.6,0.1,0.9l100.7,51.3
			c1.9,1,2.6,1,4.7-0.1L206.4,55c2.1-1.3,2.2-1.5-0.4-2.5L108.1,7.7C106.5,7,105.5,6.7,104.5,6.9C104.5,6.9,104.5,6.9,104.5,6.9z
			 M95.1,17.6c1.9-0.4,4-0.6,6.2-0.6c8.9,0.1,16,4.1,15.8,8.8s-7.5,8.5-16.4,8.3c-8.9-0.1-16-4-15.8-8.8
			C85.1,21.8,89.2,18.8,95.1,17.6L95.1,17.6L95.1,17.6z M43.6,45.5c1.9-0.4,4.1-0.6,6.3-0.6c8.9,0.1,15.9,4,15.7,8.8
			c-0.2,4.7-7.5,8.5-16.4,8.4S33.3,58,33.5,53.3C33.6,49.7,37.7,46.8,43.6,45.5L43.6,45.5z M127.7,32.7c1.9-0.4,4.1-0.6,6.3-0.6
			c8.9,0.1,15.9,4,15.7,8.8c-0.2,4.7-7.5,8.5-16.4,8.3c-8.9-0.1-15.9-4-15.7-8.8C117.7,37,121.8,34,127.7,32.7z M5.8,63.3
			c-0.2,0.1-0.2,0.4-0.2,1l0.5,114.4c0,1.2,0.1,1.5,1.3,2.2l98.2,54.8c2.3,1.5,2.7,1.3,2.5-1l1.5-116.4c0.2-1.6-0.5-2.4-1.5-2.9
			L6.8,63.7C6.3,63.4,6,63.2,5.8,63.3L5.8,63.3L5.8,63.3z M76.1,61.9c1.9-0.4,4.1-0.6,6.3-0.6c8.9,0.1,15.9,4,15.7,8.8
			c-0.2,4.7-7.5,8.5-16.4,8.3c-8.9-0.1-15.9-4-15.7-8.8C66.2,66.1,70.3,63.2,76.1,61.9C76.1,61.9,76.1,61.9,76.1,61.9z M161,48.4
			c1.9-0.4,4.1-0.6,6.3-0.6c8.9,0.1,15.9,4,15.7,8.8c-0.2,4.7-7.5,8.5-16.4,8.4s-15.9-4.1-15.7-8.8C151.1,52.6,155.2,49.6,161,48.4
			L161,48.4z M15.4,82.4c0.3-0.1,0.7-0.2,1-0.2c4-0.6,9.1,2.3,12.9,7.7c5,7.3,5.7,16.5,1.6,20.6c-4.1,4-11.5,1.4-16.5-5.9
			S8.7,88.1,12.8,84C13.5,83.3,14.4,82.7,15.4,82.4C15.4,82.4,15.4,82.4,15.4,82.4z M109.6,78.2c1.9-0.4,4.1-0.6,6.3-0.6
			c8.9,0.1,15.9,4,15.7,8.8c-0.2,4.7-7.5,8.5-16.4,8.3c-8.9-0.1-15.9-4-15.7-8.8C99.6,82.4,103.8,79.4,109.6,78.2
			C109.6,78.2,109.6,78.2,109.6,78.2z M212.2,60.3c-0.2,0.1-0.4,0.2-0.7,0.4l-92.5,55c-1.9,1.3-1.7,1.6-1.7,3.2L115.8,235
			c0.3,1.7-0.2,2.5,1.5,1.3l90.6-56.8c1.7-1.3,2.1-1.5,1.9-3.4l3-114.8C212.8,60.4,212.7,60.1,212.2,60.3L212.2,60.3L212.2,60.3z
			 M199.7,81.7c2.8-0.5,5.3,0.4,6.8,2.8c3,4.8,1,14-4.6,20.5s-12.5,7.8-15.6,2.9c-3-4.8-1-14,4.6-20.5
			C193.7,84.2,196.9,82.2,199.7,81.7L199.7,81.7L199.7,81.7z M80.9,116c4.1-0.7,9.3,2.2,13.1,7.8c5,7.3,5.8,16.5,1.7,20.6
			c-4.1,4-11.5,1.3-16.5-6s-5.7-16.5-1.6-20.5c0.8-0.8,1.6-1.3,2.6-1.6C80.4,116.2,80.6,116.1,80.9,116L80.9,116L80.9,116z
			 M48,136.2c4.1-0.7,9.3,2.2,13.1,7.8c5,7.3,5.8,16.5,1.7,20.6c-4.1,4-11.5,1.3-16.5-6s-5.7-16.5-1.6-20.5c0.8-0.8,1.6-1.3,2.6-1.6
			C47.4,136.3,47.7,136.2,48,136.2L48,136.2L48,136.2z M15.5,156.1c0.3-0.1,0.7-0.2,1-0.2c4-0.6,9.1,2.3,12.9,7.8
			c5,7.3,5.8,16.5,1.7,20.5s-11.5,1.4-16.5-5.9c-5-7.3-5.7-16.5-1.6-20.6C13.7,156.9,14.6,156.4,15.5,156.1L15.5,156.1L15.5,156.1z
			 M171.7,135.1c2.8-0.5,5.2,0.4,6.7,2.8c3,4.8,0.9,14-4.6,20.5c-5.6,6.5-12.5,7.8-15.6,2.9c-3-4.8-0.9-14,4.6-20.5
			c2.4-2.8,5.1-4.7,7.7-5.4C170.9,135.3,171.3,135.2,171.7,135.1L171.7,135.1L171.7,135.1z M79.4,191.1c0.3-0.1,0.7-0.2,1-0.2
			c4-0.6,9.1,2.3,12.9,7.7c5,7.3,5.7,16.5,1.6,20.6c-4.1,4-11.4,1.4-16.5-6c-5-7.3-5.8-16.5-1.7-20.6
			C77.6,191.9,78.5,191.4,79.4,191.1L79.4,191.1z M140.8,190.5c2.8-0.5,5.3,0.3,6.8,2.8c3,4.8,1,14-4.6,20.5s-12.5,7.8-15.5,3
			s-1-14,4.6-20.5C134.8,193,137.9,191.1,140.8,190.5L140.8,190.5z"/>
	</g>
</g>
</svg>
