<?xml version="1.0" encoding="utf-8"?>
<!-- Generator: Adobe Illustrator 26.5.0, SVG Export Plug-In . SVG Version: 6.00 Build 0)  -->
<svg version="1.1" id="Layer_1" xmlns="http://www.w3.org/2000/svg" xmlns:xlink="http://www.w3.org/1999/xlink" x="0px" y="0px" height="1080px" width="2160px"
	 viewBox="0 0 2160 1080" style="enable-background:new 0 0 2160 1080;" xml:space="preserve">
<style type="text/css">
	.st0{fill:none;stroke:#000000;stroke-width:2;stroke-miterlimit:10;}
	.st1{fill:#FD473E; stroke: #FD473E;}
	.st2{fill:#73422D; stroke: #73422D;}
	.st3{fill:#17962A; stroke: #17962A;}
	.st4{fill:#FE8888; stroke: #FE8888;}
	.st5{fill:#18972B; stroke: #18972B;}
	.st6{fill:#FDA03B; stroke: #FDA03B;}
	.st7{fill:#75442D; stroke: #75442D;}
	.st8{fill:#FEC18F; stroke: #FEC18F;}

	@media (prefers-color-scheme: dark) {
		.st0{stroke: white; stroke-width:3}
		.axis-text{fill: white;}
	}
</style>
<polyline class="st0" points="217.6,63.8 217.6,963.9 1936.8,963.9 "/>
<g>
	<path class="axis-text" d="M1072.3,990.5c1.1,1.2,2,2.4,2.6,3.7c0.4,0.8,1.1,3.1,2.1,6.6l3.1-4.6c0.8-1.1,1.8-2.2,3-3.2s2.2-1.7,3.1-2.1
		c0.6-0.2,1.2-0.4,1.9-0.4c1,0,1.8,0.3,2.4,0.8s0.9,1.2,0.9,2c0,0.9-0.2,1.5-0.5,1.8c-0.7,0.6-1.4,0.9-2.2,0.9c-0.5,0-1-0.1-1.6-0.3
		c-1.1-0.4-1.8-0.6-2.2-0.6c-0.6,0-1.2,0.3-2,1c-1.5,1.2-3.2,3.6-5.2,7.1l2.9,12.1c0.4,1.9,0.8,3,1.1,3.3s0.6,0.5,0.9,0.5
		c0.5,0,1.1-0.3,1.7-0.8c1.3-1.1,2.4-2.5,3.3-4.2l1.2,0.6c-1.5,2.8-3.4,5.1-5.6,6.9c-1.3,1-2.4,1.5-3.3,1.5c-1.3,0-2.4-0.7-3.1-2.2
		c-0.5-0.9-1.5-4.9-3.1-11.8c-3.7,6.4-6.6,10.4-8.8,12.3c-1.4,1.2-2.8,1.8-4.1,1.8c-0.9,0-1.8-0.3-2.6-1c-0.6-0.5-0.8-1.2-0.8-2.1
		c0-0.8,0.3-1.4,0.8-1.9s1.1-0.8,1.9-0.8s1.5,0.4,2.4,1.1c0.6,0.5,1.1,0.8,1.4,0.8s0.6-0.2,1.1-0.6c1.1-0.9,2.6-2.8,4.5-5.8
		s3.1-5.1,3.7-6.4c-1.5-5.7-2.2-8.7-2.4-9c-0.5-1.5-1.2-2.6-2.1-3.2s-2.1-0.9-3.8-0.9c-0.5,0-1.2,0-1.9,0.1v-1.3L1072.3,990.5z"/>
</g>
<g>
	<path class="axis-text" d="M176.1,481.1c0.8,1.4,1.3,2.6,1.7,3.8c0.3,1.2,0.6,3.5,0.9,7l1.5,17.3c1.4-1.7,3.4-4.4,6.1-8c1.3-1.8,2.9-4.2,4.8-7.3
		c1.1-1.9,1.9-3.2,2.1-3.9c0.1-0.4,0.2-0.8,0.2-1.2c0-0.3-0.1-0.5-0.2-0.6c-0.2-0.2-0.6-0.4-1.3-0.6s-1.3-0.6-1.7-1.2
		s-0.7-1.3-0.7-2.1c0-1,0.3-1.7,0.8-2.3s1.3-0.9,2.1-0.9c1,0,1.9,0.4,2.6,1.3c0.7,0.9,1.1,2,1.1,3.5c0,1.9-0.6,4-1.9,6.3
		s-3.7,6-7.3,11c-3.6,4.9-8,10.3-13.1,16.1c-3.5,4-6.2,6.5-7.9,7.6s-3.2,1.6-4.4,1.6c-0.7,0-1.4-0.3-1.9-0.8
		c-0.6-0.6-0.8-1.2-0.8-1.9c0-0.9,0.4-1.7,1.1-2.5c0.8-0.8,1.6-1.1,2.5-1.1c0.5,0,0.9,0.1,1.2,0.3c0.2,0.1,0.4,0.5,0.6,1
		c0.2,0.6,0.4,0.9,0.6,1.1c0.1,0.1,0.3,0.2,0.4,0.2c0.1,0,0.4-0.1,0.7-0.4c1.3-0.8,2.8-2.1,4.5-3.8c2.2-2.3,3.9-4.2,5-5.6l-2-22.3
		c-0.3-3.7-0.8-5.9-1.5-6.7c-0.7-0.8-1.8-1.2-3.3-1.2c-0.5,0-1.4,0.1-2.6,0.2l-0.3-1.3L176.1,481.1z"/>
</g>
<g>
	<path class="st1" d="M759.1,954.7c-16.5,0-48.4-3.2-49-3.5c-47.4-22.4-68.7-65.6-86.9-110.6c-19.3-47.9-30.5-97.6-23.1-149.8
		c8.3-58.4,52.4-99.9,114.6-93.8c20.5,2,40.1,6.6,59.7,12.3c-0.2,8.2-1,16.4-0.6,24.6c0.4,7.3,5,12.2,12.5,12.5
		c8.1,0.3,12.9-4.6,13.9-12.5c0.7-6,0.4-12.1,0.6-18.1c29.8,6,56.3-1.9,80.6-19c54,9.9,87.4,46.1,91.1,102.6
		c5.2,79.1-18.1,150.4-64.3,214.3c-11.5,15.9-26,29-44.7,36.6c-1.5,0.6-35.8,4.5-52.3,4.5C798.9,944.6,771.9,944.6,759.1,954.7z
		 M675.2,628.8c-5.5,0-9.6,0.6-13.4,4c-19.1,17.2-31.2,38.3-32.9,64.2c-0.7,11.2,7.5,20.3,18.3,21.7c11.4,1.5,20.2-3.7,23.3-14.4
		c4.5-15.8,11.2-29.7,22.2-42.1c5.5-6.2,5.5-14.5,1.6-22.1C690.2,632.6,683.9,628.6,675.2,628.8z"/>
	<path class="st2" d="M777.4,538.1c5.3,14.9,18.6,25.7,21.6,41.8c-1.9,3.4-3.9,6.7-5.8,10.1c-9.5,16.6-9.1,17.9,7.7,25.7
		c-0.2,6,0.1,12.1-0.6,18.1c-0.9,7.9-5.8,12.8-13.9,12.5c-7.5-0.2-12.1-5.1-12.5-12.5c-0.4-8.2,0.3-16.4,0.6-24.6
		c0.7-16.9-2.9-32.5-14.3-45.4c-8.3-9.5-0.4-17.3,1.6-25.8C767,538.1,772.2,538.1,777.4,538.1z"/>
	<path class="st3" d="M800.8,615.7c-16.7-7.8-17.1-9.2-7.7-25.7c1.9-3.4,3.9-6.7,5.8-10.1c27.5-29.3,61.3-39.1,100.3-32.2
		c15,2.7,16,5.8,8.5,18.8c-6.8,11.8-16.6,20.9-26.3,30.2C857.1,613.9,830.6,621.7,800.8,615.7z"/>
	<path class="st4" d="M675.2,628.8c8.7-0.2,15,3.8,18.9,11.4c3.9,7.6,4,15.8-1.6,22.1c-11,12.3-17.7,26.3-22.2,42.1
		c-3,10.7-11.8,15.9-23.3,14.4c-10.8-1.4-19-10.5-18.3-21.7c1.7-26,13.9-47,32.9-64.2C665.5,629.4,669.7,628.8,675.2,628.8z"/>
</g>
<g>
	<path class="st5" d="M1463.3,504.8c3.3,17.3-8.4,29.8-14.2,44.3c-27.7,32.9-60,56.5-105.8,53.8c-21.8-4.5-21.8-4.5-15.4-26
		c0.4-1.4,0.6-2.8,0.9-4.2c6.7-10,13.4-20,20.1-30c16.8-14.4,35.3-25.6,56.7-31.9C1408.4,509.9,1446,504.8,1463.3,504.8z"/>
	<path class="st6" d="M1343.3,602.9c45.8,2.7,78.1-20.9,105.8-53.8c87.9,25.6,148.8,112.1,145.9,207c-2.8,92.9-70,174.9-160.8,196.1
		c-99.4,23.2-200.6-27.4-240.8-120.3c-40.7-94.1-8.4-201.9,77.5-258.9c2.8-1.8,5.6-3.7,8.3-5.6c9.9,3.9,16.1,11.7,20.8,20.5
		c6,11.3,11.3,23,16.8,34.5c4.8,9.9,12.2,15.3,22.8,10.2c10-4.8,10.4-13.7,6.1-23.2C1344.9,607.4,1344.2,605.1,1343.3,602.9z
		 M1208.1,709.8c-0.4,18.6,8.4,30.1,22.6,31.9c12.9,1.6,25.7-7.2,27.7-21.4c2.5-17.9,8.5-33.8,18.3-48.9c7.7-11.9,3.8-26.7-7-34.3
		c-11.1-7.8-25-6-34.4,5.5C1218.8,662.7,1209.9,686,1208.1,709.8z"/>
	<path class="st7" d="M1343.3,602.9c0.8,2.2,1.6,4.5,2.5,6.6c4.3,9.4,3.9,18.3-6.1,23.2c-10.6,5.1-18.1-0.3-22.8-10.2
		c-5.5-11.5-10.8-23.2-16.8-34.5c-4.7-8.9-10.9-16.7-20.8-20.5c-4.4-2.8-8.8-5.6-13.2-8.5c-7.7-5.1-11.4-11.9-7-20.7
		s12.1-10,20.8-7.2c12.9,4.3,22.5,14.2,34.5,20.1c4.8,7.2,9.5,14.3,14.3,21.5c-0.3,1.4-0.5,2.8-0.9,4.2
		C1321.5,598.4,1321.5,598.4,1343.3,602.9z"/>
	<path class="st6" d="M1328.8,572.7c-4.8-7.2-9.5-14.3-14.3-21.5c11.3-3.7,22.4-7.8,34.4-8.6
		C1342.1,552.7,1335.4,562.7,1328.8,572.7z"/>
	<path class="st8" d="M1208.1,709.8c1.7-23.9,10.7-47.1,27.1-67.3c9.4-11.6,23.3-13.3,34.4-5.5c10.8,7.6,14.7,22.4,7,34.3
		c-9.8,15.1-15.8,31-18.3,48.9c-2,14.2-14.8,23-27.7,21.4C1216.5,739.9,1207.7,728.4,1208.1,709.8z"/>
</g>
</svg>
