<?xml version="1.0" encoding="utf-8"?>
<!-- Generator: Adobe Illustrator 26.5.0, SVG Export Plug-In . SVG Version: 6.00 Build 0)  -->
<svg version="1.1"
	 id="svg3118" xmlns:sodipodi="http://sodipodi.sourceforge.net/DTD/sodipodi-0.dtd" xmlns:cc="http://creativecommons.org/ns#" xmlns:rdf="http://www.w3.org/1999/02/22-rdf-syntax-ns#" xmlns:inkscape="http://www.inkscape.org/namespaces/inkscape" xmlns:svg="http://www.w3.org/2000/svg" xmlns:ns1="http://sozi.baierouge.fr" xmlns:dc="http://purl.org/dc/elements/1.1/" sodipodi:docname="New document 1"
	 xmlns="http://www.w3.org/2000/svg" xmlns:xlink="http://www.w3.org/1999/xlink" x="0px" y="0px" viewBox="0 0 1000 500"
	 style="enable-background:new 0 0 1000 500;" xml:space="preserve">
<style type="text/css">
	.st0{fill:#FFFFFF;}
	.st1{fill:#D00000;}
	.st2{fill:#334199;}
</style>
<g id="layer1_00000096768196742320336910000016671559352954813337_" transform="translate(-117.15 -272.36)" inkscape:groupmode="layer" inkscape:label="Layer 1">
	
		<path id="path3924_00000127027457704995385540000000064051880248661399_" sodipodi:nodetypes="cccccccccccssssccssssccssssccccccccccccssssccssssccsssssccssssccccccccccccssssccsssssccsssssccsssssccsssssccsssssccssssc" class="st0" d="
		M501.6,382.7c-0.6,0.1-1.3,0.4-2.1,0.9l-91.6,48.6c-0.8,0.4-0.7,0.6,0.1,0.9l100.7,51.3c1.9,1,2.6,1,4.7-0.1l90.1-53.5
		c2.1-1.3,2.2-1.5-0.4-2.5l-97.9-44.8C503.6,382.8,502.6,382.5,501.6,382.7L501.6,382.7z M402.9,439.1c-0.2,0.1-0.2,0.4-0.2,1
		l0.5,114.4c0,1.2,0.1,1.5,1.3,2.2l98.2,54.8c2.3,1.5,2.7,1.3,2.5-1l1.5-116.4c0.2-1.6-0.5-2.4-1.5-2.9l-101.3-51.7
		C403.4,439.2,403.1,439,402.9,439.1L402.9,439.1z M609.3,436.1c-0.2,0.1-0.4,0.2-0.7,0.4l-92.5,55c-1.9,1.3-1.7,1.6-1.7,3.2
		l-1.5,116.1c0.3,1.7-0.2,2.5,1.5,1.3l90.6-56.8c1.7-1.3,2.1-1.5,1.9-3.4l3-114.8C609.9,436.2,609.8,435.9,609.3,436.1L609.3,436.1z
		"/>
</g>
<sodipodi:namedview  bordercolor="#666666" borderopacity="1.0" id="base" inkscape:current-layer="layer1" inkscape:cx="3.5685987" inkscape:cy="150.59426" inkscape:document-units="px" inkscape:pageopacity="0.0" inkscape:pageshadow="2" inkscape:window-height="950" inkscape:window-maximized="1" inkscape:window-width="1280" inkscape:window-x="0" inkscape:window-y="25" inkscape:zoom="0.35" pagecolor="#ffffff" showgrid="false">
	</sodipodi:namedview>
<g id="layer1" transform="translate(-117.15 -272.36)" inkscape:groupmode="layer" inkscape:label="Layer 1">
	
		<path id="path3924" sodipodi:nodetypes="cccccccccccssssccssssccssssccccccccccccssssccssssccsssssccssssccccccccccccssssccsssssccsssssccsssssccsssssccsssssccssssc" class="st1" d="
		M501.7,382.7c-0.6,0.1-1.3,0.4-2.1,0.9L408,432.2c-0.8,0.4-0.7,0.6,0.1,0.9l100.7,51.3c1.9,1,2.6,1,4.7-0.1l90.1-53.5
		c2.1-1.3,2.2-1.5-0.4-2.5l-97.9-44.8C503.7,382.8,502.7,382.5,501.7,382.7L501.7,382.7z M492.3,393.4c1.9-0.4,4-0.6,6.2-0.6
		c8.9,0.1,16,4.1,15.8,8.8c-0.2,4.7-7.5,8.5-16.4,8.3c-8.9-0.1-16-4-15.8-8.8C482.3,397.6,486.4,394.6,492.3,393.4L492.3,393.4z
		 M440.8,421.3c1.9-0.4,4.1-0.6,6.3-0.6c8.9,0.1,15.9,4,15.7,8.8c-0.2,4.7-7.5,8.5-16.4,8.4s-15.9-4.1-15.7-8.8
		C430.8,425.5,434.9,422.6,440.8,421.3L440.8,421.3z M524.9,408.5c1.9-0.4,4.1-0.6,6.3-0.6c8.9,0.1,15.9,4,15.7,8.8
		c-0.2,4.7-7.5,8.5-16.4,8.3c-8.9-0.1-15.9-4-15.7-8.8C514.9,412.8,519,409.8,524.9,408.5z M403,439.1c-0.2,0.1-0.2,0.4-0.2,1
		l0.5,114.4c0,1.2,0.1,1.5,1.3,2.2l98.2,54.8c2.3,1.5,2.7,1.3,2.5-1l1.5-116.4c0.2-1.6-0.5-2.4-1.5-2.9L404,439.5
		C403.5,439.2,403.2,439,403,439.1L403,439.1z M473.3,437.7c1.9-0.4,4.1-0.6,6.3-0.6c8.9,0.1,15.9,4,15.7,8.8
		c-0.2,4.7-7.5,8.5-16.4,8.3c-8.9-0.1-15.9-4-15.7-8.8C463.4,441.9,467.5,439,473.3,437.7L473.3,437.7z M558.2,424.2
		c1.9-0.4,4.1-0.6,6.3-0.6c8.9,0.1,15.9,4,15.7,8.8c-0.2,4.7-7.5,8.5-16.4,8.4s-15.9-4.1-15.7-8.8
		C548.3,428.4,552.4,425.4,558.2,424.2L558.2,424.2z M412.6,458.2c0.3-0.1,0.7-0.2,1-0.2c4-0.6,9.1,2.3,12.9,7.7
		c5,7.3,5.7,16.5,1.6,20.6c-4.1,4-11.5,1.4-16.5-5.9s-5.7-16.5-1.6-20.6C410.7,459.1,411.6,458.5,412.6,458.2L412.6,458.2z
		 M506.8,454c1.9-0.4,4.1-0.6,6.3-0.6c8.9,0.1,15.9,4,15.7,8.8c-0.2,4.7-7.5,8.5-16.4,8.3c-8.9-0.1-15.9-4-15.7-8.8
		C496.8,458.2,501,455.2,506.8,454L506.8,454z M609.4,436.1c-0.2,0.1-0.4,0.2-0.7,0.4l-92.5,55c-1.9,1.3-1.7,1.6-1.7,3.2L513,610.8
		c0.3,1.7-0.2,2.5,1.5,1.3l90.6-56.8c1.7-1.3,2.1-1.5,1.9-3.4l3-114.8C610,436.2,609.9,435.9,609.4,436.1L609.4,436.1z M596.9,457.5
		c2.8-0.5,5.3,0.4,6.8,2.8c3,4.8,1,14-4.6,20.5s-12.5,7.8-15.6,2.9c-3-4.8-1-14,4.6-20.5C590.9,460,594.1,458,596.9,457.5
		L596.9,457.5z M478.1,491.8c4.1-0.7,9.3,2.2,13.1,7.8c5,7.3,5.8,16.5,1.7,20.6c-4.1,4-11.5,1.3-16.5-6s-5.7-16.5-1.6-20.5
		c0.8-0.8,1.6-1.3,2.6-1.6C477.6,492,477.8,491.9,478.1,491.8L478.1,491.8z M445.2,512c4.1-0.7,9.3,2.2,13.1,7.8
		c5,7.3,5.8,16.5,1.7,20.6c-4.1,4-11.5,1.3-16.5-6s-5.7-16.5-1.6-20.5c0.8-0.8,1.6-1.3,2.6-1.6C444.6,512.1,444.9,512,445.2,512
		L445.2,512z M412.7,531.9c0.3-0.1,0.7-0.2,1-0.2c4-0.6,9.1,2.3,12.9,7.8c5,7.3,5.8,16.5,1.7,20.5c-4.1,4-11.5,1.4-16.5-5.9
		c-5-7.3-5.7-16.5-1.6-20.6C410.9,532.7,411.8,532.2,412.7,531.9L412.7,531.9z M568.9,510.9c2.8-0.5,5.2,0.4,6.7,2.8
		c3,4.8,0.9,14-4.6,20.5c-5.6,6.5-12.5,7.8-15.6,2.9c-3-4.8-0.9-14,4.6-20.5c2.4-2.8,5.1-4.7,7.7-5.4
		C568.1,511.1,568.5,511,568.9,510.9L568.9,510.9z M476.6,566.9c0.3-0.1,0.7-0.2,1-0.2c4-0.6,9.1,2.3,12.9,7.7
		c5,7.3,5.7,16.5,1.6,20.6c-4.1,4-11.4,1.4-16.5-6c-5-7.3-5.8-16.5-1.7-20.6C474.8,567.7,475.7,567.2,476.6,566.9L476.6,566.9z
		 M538,566.3c2.8-0.5,5.3,0.3,6.8,2.8c3,4.8,1,14-4.6,20.5s-12.5,7.8-15.5,3s-1-14,4.6-20.5C532,568.8,535.1,566.9,538,566.3
		L538,566.3z"/>
</g>
<sodipodi:namedview  bordercolor="#666666" borderopacity="1.0" id="base" inkscape:current-layer="layer1" inkscape:cx="3.5685987" inkscape:cy="150.59426" inkscape:document-units="px" inkscape:pageopacity="0.0" inkscape:pageshadow="2" inkscape:window-height="950" inkscape:window-maximized="1" inkscape:window-width="1280" inkscape:window-x="0" inkscape:window-y="25" inkscape:zoom="0.35" pagecolor="#ffffff" showgrid="false">
	</sodipodi:namedview>
<g id="layer1_00000131353571007529001030000004238533846007566511_" transform="translate(-117.15 -272.36)" inkscape:groupmode="layer" inkscape:label="Layer 1">
	
		<path id="path3924_00000015345311347528920070000014361942834515899049_" sodipodi:nodetypes="cccccccccccssssccssssccssssccccccccccccssssccssssccsssssccssssccccccccccccssssccsssssccsssssccsssssccsssssccsssssccssssc" class="st0" d="
		M719.9,421c-0.6,0.1-1.3,0.4-2.1,0.9l-91.6,48.6c-0.8,0.4-0.7,0.6,0.1,0.9L727,522.7c1.9,1,2.6,1,4.7-0.1l90.1-53.5
		c2.1-1.3,2.2-1.5-0.4-2.5l-97.9-44.8C721.9,421.1,720.9,420.8,719.9,421L719.9,421z M621.2,477.4c-0.2,0.1-0.2,0.4-0.2,1l0.5,114.4
		c0,1.2,0.1,1.5,1.3,2.2l98.2,54.8c2.3,1.5,2.7,1.3,2.5-1l1.5-116.4c0.2-1.6-0.5-2.4-1.5-2.9l-101.3-51.7
		C621.7,477.5,621.4,477.3,621.2,477.4L621.2,477.4z M827.6,474.4c-0.2,0.1-0.4,0.2-0.7,0.4l-92.5,55c-1.9,1.3-1.7,1.6-1.7,3.2
		l-1.5,116.1c0.3,1.7-0.2,2.5,1.5,1.3l90.6-56.8c1.7-1.3,2.1-1.5,1.9-3.4l3-114.8C828.2,474.5,828.1,474.2,827.6,474.4L827.6,474.4z
		"/>
</g>
<g id="layer1_00000158001203584424289400000001440456996102096811_" transform="translate(-117.15 -272.36)" inkscape:groupmode="layer" inkscape:label="Layer 1">
	
		<path id="path3924_00000040539787634533732930000002795686698946801025_" sodipodi:nodetypes="cccccccccccssssccssssccssssccccccccccccssssccssssccsssssccssssccccccccccccssssccsssssccsssssccsssssccsssssccsssssccssssc" class="st2" d="
		M720,421c-0.6,0.1-1.3,0.4-2.1,0.9l-91.6,48.6c-0.8,0.4-0.7,0.6,0.1,0.9l100.7,51.3c1.9,1,2.6,1,4.7-0.1l90.1-53.5
		c2.1-1.3,2.2-1.5-0.4-2.5l-97.9-44.8C722,421.1,721,420.8,720,421L720,421z M710.6,431.7c1.9-0.4,4-0.6,6.2-0.6
		c8.9,0.1,16,4.1,15.8,8.8c-0.2,4.7-7.5,8.5-16.4,8.3c-8.9-0.1-16-4-15.8-8.8C700.6,435.9,704.7,432.9,710.6,431.7L710.6,431.7z
		 M659.1,459.6c1.9-0.4,4.1-0.6,6.3-0.6c8.9,0.1,15.9,4,15.7,8.8c-0.2,4.7-7.5,8.5-16.4,8.4c-8.9-0.1-15.9-4.1-15.7-8.8
		C649.1,463.8,653.2,460.9,659.1,459.6L659.1,459.6z M743.2,446.8c1.9-0.4,4.1-0.6,6.3-0.6c8.9,0.1,15.9,4,15.7,8.8
		c-0.2,4.7-7.5,8.5-16.4,8.3c-8.9-0.1-15.9-4-15.7-8.8C733.2,451.1,737.3,448.1,743.2,446.8z M621.3,477.4c-0.2,0.1-0.2,0.4-0.2,1
		l0.5,114.4c0,1.2,0.1,1.5,1.3,2.2l98.2,54.8c2.3,1.5,2.7,1.3,2.5-1l1.5-116.4c0.2-1.6-0.5-2.4-1.5-2.9l-101.3-51.7
		C621.8,477.5,621.5,477.3,621.3,477.4L621.3,477.4z M691.6,476c1.9-0.4,4.1-0.6,6.3-0.6c8.9,0.1,15.9,4,15.7,8.8
		c-0.2,4.7-7.5,8.5-16.4,8.3c-8.9-0.1-15.9-4-15.7-8.8C681.7,480.2,685.8,477.3,691.6,476L691.6,476z M776.5,462.5
		c1.9-0.4,4.1-0.6,6.3-0.6c8.9,0.1,15.9,4,15.7,8.8c-0.2,4.7-7.5,8.5-16.4,8.4s-15.9-4.1-15.7-8.8
		C766.6,466.7,770.7,463.7,776.5,462.5L776.5,462.5z M630.9,496.5c0.3-0.1,0.7-0.2,1-0.2c4-0.6,9.1,2.3,12.9,7.7
		c5,7.3,5.7,16.5,1.6,20.6c-4.1,4-11.5,1.4-16.5-5.9s-5.7-16.5-1.6-20.6C629,497.4,629.9,496.8,630.9,496.5L630.9,496.5z
		 M725.1,492.3c1.9-0.4,4.1-0.6,6.3-0.6c8.9,0.1,15.9,4,15.7,8.8c-0.2,4.7-7.5,8.5-16.4,8.3c-8.9-0.1-15.9-4-15.7-8.8
		C715.1,496.5,719.3,493.5,725.1,492.3L725.1,492.3z M827.7,474.4c-0.2,0.1-0.4,0.2-0.7,0.4l-92.5,55c-1.9,1.3-1.7,1.6-1.7,3.2
		l-1.5,116.1c0.3,1.7-0.2,2.5,1.5,1.3l90.6-56.8c1.7-1.3,2.1-1.5,1.9-3.4l3-114.8C828.3,474.5,828.2,474.2,827.7,474.4L827.7,474.4z
		 M815.2,495.8c2.8-0.5,5.3,0.4,6.8,2.8c3,4.8,1,14-4.6,20.5s-12.5,7.8-15.6,2.9c-3-4.8-1-14,4.6-20.5
		C809.2,498.3,812.4,496.3,815.2,495.8L815.2,495.8z M696.4,530.1c4.1-0.7,9.3,2.2,13.1,7.8c5,7.3,5.8,16.5,1.7,20.6
		c-4.1,4-11.5,1.3-16.5-6S689,536,693.1,532c0.8-0.8,1.6-1.3,2.6-1.6C695.9,530.3,696.1,530.2,696.4,530.1L696.4,530.1z
		 M663.5,550.3c4.1-0.7,9.3,2.2,13.1,7.8c5,7.3,5.8,16.5,1.7,20.6c-4.1,4-11.5,1.3-16.5-6s-5.7-16.5-1.6-20.5
		c0.8-0.8,1.6-1.3,2.6-1.6C662.9,550.4,663.2,550.3,663.5,550.3L663.5,550.3z M631,570.2c0.3-0.1,0.7-0.2,1-0.2
		c4-0.6,9.1,2.3,12.9,7.8c5,7.3,5.8,16.5,1.7,20.5c-4.1,4-11.5,1.4-16.5-5.9c-5-7.3-5.7-16.5-1.6-20.6
		C629.2,571,630.1,570.5,631,570.2L631,570.2z M787.2,549.2c2.8-0.5,5.2,0.4,6.7,2.8c3,4.8,0.9,14-4.6,20.5
		c-5.6,6.5-12.5,7.8-15.6,2.9c-3-4.8-0.9-14,4.6-20.5c2.4-2.8,5.1-4.7,7.7-5.4C786.4,549.4,786.8,549.3,787.2,549.2L787.2,549.2z
		 M694.9,605.2c0.3-0.1,0.7-0.2,1-0.2c4-0.6,9.1,2.3,12.9,7.7c5,7.3,5.7,16.5,1.6,20.6c-4.1,4-11.4,1.4-16.5-6
		c-5-7.3-5.8-16.5-1.7-20.6C693.1,606,694,605.5,694.9,605.2L694.9,605.2z M756.3,604.6c2.8-0.5,5.3,0.3,6.8,2.8
		c3,4.8,1,14-4.6,20.5s-12.5,7.8-15.5,3s-1-14,4.6-20.5C750.3,607.1,753.4,605.2,756.3,604.6L756.3,604.6z"/>
</g>
<sodipodi:namedview  bordercolor="#666666" borderopacity="1.0" id="base" inkscape:current-layer="layer1" inkscape:cx="3.5685987" inkscape:cy="150.59426" inkscape:document-units="px" inkscape:pageopacity="0.0" inkscape:pageshadow="2" inkscape:window-height="950" inkscape:window-maximized="1" inkscape:window-width="1280" inkscape:window-x="0" inkscape:window-y="25" inkscape:zoom="0.35" pagecolor="#ffffff" showgrid="false">
	</sodipodi:namedview>
</svg>
