<?xml version="1.0" encoding="utf-8"?>
<!-- Generator: Adobe Illustrator 26.5.0, SVG Export Plug-In . SVG Version: 6.00 Build 0)  -->
<svg version="1.1"
	 id="svg3118" xmlns:sodipodi="http://sodipodi.sourceforge.net/DTD/sodipodi-0.dtd" xmlns:rdf="http://www.w3.org/1999/02/22-rdf-syntax-ns#" xmlns:inkscape="http://www.inkscape.org/namespaces/inkscape" xmlns:cc="http://creativecommons.org/ns#" xmlns:ns1="http://sozi.baierouge.fr" xmlns:svg="http://www.w3.org/2000/svg" xmlns:dc="http://purl.org/dc/elements/1.1/" inkscape:version="0.47pre4 r22446" sodipodi:docname="New document 1"
	 xmlns="http://www.w3.org/2000/svg" xmlns:xlink="http://www.w3.org/1999/xlink" x="0px" y="0px" viewBox="0 0 1000 500"
	 style="enable-background:new 0 0 1000 500;" xml:space="preserve">
<style type="text/css">
	.st0{fill:#D00000;}
	.st1{fill:#2B3B97;}
</style>
<sodipodi:namedview  bordercolor="#666666" borderopacity="1.0" id="base" inkscape:current-layer="layer1" inkscape:cx="3.5685987" inkscape:cy="150.59426" inkscape:document-units="px" inkscape:pageopacity="0.0" inkscape:pageshadow="2" inkscape:window-height="950" inkscape:window-maximized="1" inkscape:window-width="1280" inkscape:window-x="0" inkscape:window-y="25" inkscape:zoom="0.35" pagecolor="#ffffff" showgrid="false">
	</sodipodi:namedview>
<g id="layer1" transform="translate(-117.15 -272.36)" inkscape:groupmode="layer" inkscape:label="Layer 1">
	
		<path id="path3924" sodipodi:nodetypes="cccccccccccssssccssssccssssccccccccccccssssccssssccsssssccssssccccccccccccssssccsssssccsssssccsssssccsssssccsssssccssssc" class="st0" d="
		M501.7,382.7c-0.6,0.1-1.3,0.4-2.1,0.9L408,432.2c-0.8,0.4-0.7,0.6,0.1,0.9l100.7,51.3c1.9,1,2.6,1,4.7-0.1l90.1-53.5
		c2.1-1.3,2.2-1.5-0.4-2.5l-97.9-44.8C503.7,382.8,502.7,382.5,501.7,382.7L501.7,382.7z M492.3,393.4c1.9-0.4,4-0.6,6.2-0.6
		c8.9,0.1,16,4.1,15.8,8.8c-0.2,4.7-7.5,8.5-16.4,8.3c-8.9-0.1-16-4-15.8-8.8C482.3,397.6,486.4,394.6,492.3,393.4L492.3,393.4z
		 M440.8,421.3c1.9-0.4,4.1-0.6,6.3-0.6c8.9,0.1,15.9,4,15.7,8.8c-0.2,4.7-7.5,8.5-16.4,8.4c-8.9-0.1-15.9-4.1-15.7-8.8
		C430.8,425.5,434.9,422.6,440.8,421.3L440.8,421.3z M524.9,408.5c1.9-0.4,4.1-0.6,6.3-0.6c8.9,0.1,15.9,4,15.7,8.8
		c-0.2,4.7-7.5,8.5-16.4,8.3c-8.9-0.1-15.9-4-15.7-8.8C514.9,412.8,519,409.8,524.9,408.5z M403,439.1c-0.2,0.1-0.2,0.4-0.2,1
		l0.5,114.4c0,1.2,0.1,1.5,1.3,2.2l98.2,54.8c2.3,1.5,2.7,1.3,2.5-1l1.5-116.4c0.2-1.6-0.5-2.4-1.5-2.9L404,439.5
		C403.5,439.2,403.2,439,403,439.1L403,439.1z M473.3,437.7c1.9-0.4,4.1-0.6,6.3-0.6c8.9,0.1,15.9,4,15.7,8.8
		c-0.2,4.7-7.5,8.5-16.4,8.3c-8.9-0.1-15.9-4-15.7-8.8C463.4,441.9,467.5,439,473.3,437.7L473.3,437.7z M558.2,424.2
		c1.9-0.4,4.1-0.6,6.3-0.6c8.9,0.1,15.9,4,15.7,8.8c-0.2,4.7-7.5,8.5-16.4,8.4c-8.9-0.1-15.9-4.1-15.7-8.8
		C548.3,428.4,552.4,425.4,558.2,424.2L558.2,424.2z M412.6,458.2c0.3-0.1,0.7-0.2,1-0.2c4-0.6,9.1,2.3,12.9,7.7
		c5,7.3,5.7,16.5,1.6,20.6c-4.1,4-11.5,1.4-16.5-5.9c-5-7.3-5.7-16.5-1.6-20.6C410.7,459.1,411.6,458.5,412.6,458.2L412.6,458.2z
		 M506.8,454c1.9-0.4,4.1-0.6,6.3-0.6c8.9,0.1,15.9,4,15.7,8.8c-0.2,4.7-7.5,8.5-16.4,8.3c-8.9-0.1-15.9-4-15.7-8.8
		C496.8,458.2,501,455.2,506.8,454L506.8,454z M609.4,436.1c-0.2,0.1-0.4,0.2-0.7,0.4l-92.5,55c-1.9,1.3-1.7,1.6-1.7,3.2l-1.5,116.1
		c0.3,1.7-0.2,2.5,1.5,1.3l90.6-56.8c1.7-1.3,2.1-1.5,1.9-3.4l3-114.8C610,436.2,609.9,435.9,609.4,436.1L609.4,436.1z M596.9,457.5
		c2.8-0.5,5.3,0.4,6.8,2.8c3,4.8,1,14-4.6,20.5c-5.6,6.5-12.5,7.8-15.6,2.9c-3-4.8-1-14,4.6-20.5C590.9,460,594.1,458,596.9,457.5
		L596.9,457.5z M478.1,491.8c4.1-0.7,9.3,2.2,13.1,7.8c5,7.3,5.8,16.5,1.7,20.6c-4.1,4-11.5,1.3-16.5-6c-5-7.3-5.7-16.5-1.6-20.5
		c0.8-0.8,1.6-1.3,2.6-1.6C477.6,492,477.8,491.9,478.1,491.8L478.1,491.8z M445.2,512c4.1-0.7,9.3,2.2,13.1,7.8
		c5,7.3,5.8,16.5,1.7,20.6c-4.1,4-11.5,1.3-16.5-6c-5-7.3-5.7-16.5-1.6-20.5c0.8-0.8,1.6-1.3,2.6-1.6
		C444.6,512.1,444.9,512,445.2,512L445.2,512z M412.7,531.9c0.3-0.1,0.7-0.2,1-0.2c4-0.6,9.1,2.3,12.9,7.8c5,7.3,5.8,16.5,1.7,20.5
		c-4.1,4-11.5,1.4-16.5-5.9c-5-7.3-5.7-16.5-1.6-20.6C410.9,532.7,411.8,532.2,412.7,531.9L412.7,531.9z M568.9,510.9
		c2.8-0.5,5.2,0.4,6.7,2.8c3,4.8,0.9,14-4.6,20.5c-5.6,6.5-12.5,7.8-15.6,2.9c-3-4.8-0.9-14,4.6-20.5c2.4-2.8,5.1-4.7,7.7-5.4
		C568.1,511.1,568.5,511,568.9,510.9L568.9,510.9z M476.6,566.9c0.3-0.1,0.7-0.2,1-0.2c4-0.6,9.1,2.3,12.9,7.7
		c5,7.3,5.7,16.5,1.6,20.6c-4.1,4-11.4,1.4-16.5-6c-5-7.3-5.8-16.5-1.7-20.6C474.8,567.7,475.7,567.2,476.6,566.9L476.6,566.9z
		 M538,566.3c2.8-0.5,5.3,0.3,6.8,2.8c3,4.8,1,14-4.6,20.5c-5.6,6.5-12.5,7.8-15.5,3c-3-4.8-1-14,4.6-20.5
		C532,568.8,535.1,566.9,538,566.3L538,566.3z"/>
</g>
<sodipodi:namedview  bordercolor="#666666" borderopacity="1.0" id="base" inkscape:current-layer="layer1" inkscape:cx="3.5685987" inkscape:cy="150.59426" inkscape:document-units="px" inkscape:pageopacity="0.0" inkscape:pageshadow="2" inkscape:window-height="950" inkscape:window-maximized="1" inkscape:window-width="1280" inkscape:window-x="0" inkscape:window-y="25" inkscape:zoom="0.35" pagecolor="#ffffff" showgrid="false">
	</sodipodi:namedview>
<g id="layer1_00000178183377215530332260000009675218912784182404_" transform="translate(-117.15 -272.36)" inkscape:groupmode="layer" inkscape:label="Layer 1">
	
		<path id="path3924_00000037671792012125451640000000293877539778446255_" sodipodi:nodetypes="cccccccccccssssccssssccssssccccccccccccssssccssssccsssssccssssccccccccccccssssccsssssccsssssccsssssccsssssccsssssccssssc" class="st1" d="
		M717.5,421c-0.6,0.1-1.3,0.4-2.1,0.9l-92.2,47.4c-0.8,0.3-0.7,0.6,0.1,0.9l100,52.6c1.9,1,2.6,1,4.7-0.1l90.8-52.3
		c2.1-1.2,2.2-1.5-0.4-2.5L721,421.8C719.5,421.1,718.5,420.8,717.5,421L717.5,421z M707.9,431.5c1.9-0.4,4-0.6,6.3-0.5
		c8.9,0.2,15.9,4.3,15.7,9c-0.2,4.7-7.6,8.4-16.5,8.1c-8.9-0.2-15.9-4.2-15.7-9C697.9,435.7,702.1,432.7,707.9,431.5L707.9,431.5z
		 M656.1,458.8c1.9-0.4,4.1-0.6,6.3-0.5c8.9,0.2,15.9,4.2,15.6,9c-0.2,4.7-7.6,8.4-16.5,8.2c-8.9-0.2-15.9-4.3-15.6-9
		C646.1,462.9,650.2,460,656.1,458.8L656.1,458.8z M740.3,447.1c1.9-0.4,4.1-0.5,6.3-0.5c8.9,0.2,15.9,4.2,15.6,9
		c-0.2,4.7-7.6,8.4-16.5,8.1c-8.9-0.2-15.9-4.2-15.6-9C730.3,451.2,734.5,448.2,740.3,447.1z M618.1,476.1c-0.2,0.1-0.2,0.4-0.2,1
		L617,591.4c0,1.2,0.1,1.5,1.3,2.2l97.5,56.1c2.3,1.5,2.7,1.4,2.5-0.9l3-116.4c0.2-1.6-0.5-2.4-1.5-2.9l-100.7-53
		C618.5,476.2,618.3,476,618.1,476.1L618.1,476.1z M688.4,475.6c1.9-0.4,4.1-0.6,6.3-0.5c8.9,0.2,15.9,4.2,15.6,9
		c-0.2,4.7-7.6,8.4-16.5,8.1c-8.9-0.2-15.9-4.2-15.6-9C678.4,479.7,682.6,476.8,688.4,475.6L688.4,475.6z M773.5,463.2
		c1.9-0.4,4.1-0.6,6.3-0.5c8.9,0.2,15.9,4.2,15.6,9c-0.2,4.7-7.6,8.4-16.5,8.2c-8.9-0.2-15.9-4.3-15.6-9
		C763.5,467.2,767.6,464.3,773.5,463.2L773.5,463.2z M627.4,495.4c0.3-0.1,0.7-0.1,1-0.2c4-0.6,9.1,2.4,12.8,7.9
		c4.9,7.4,5.5,16.6,1.4,20.6c-4.1,4-11.5,1.2-16.4-6.2c-4.9-7.4-5.5-16.6-1.4-20.6C625.6,496.2,626.4,495.6,627.4,495.4L627.4,495.4
		z M721.7,492.3c1.9-0.4,4.1-0.6,6.3-0.5c8.9,0.2,15.9,4.2,15.6,9c-0.2,4.7-7.6,8.4-16.5,8.1c-8.9-0.2-15.9-4.2-15.6-9
		C711.7,496.4,715.9,493.4,721.7,492.3L721.7,492.3z M824.5,475.8c-0.2,0.1-0.4,0.2-0.7,0.4l-93.2,53.8c-1.9,1.2-1.7,1.6-1.8,3.2
		l-3,116c0.2,1.7-0.2,2.5,1.5,1.3l91.4-55.6c1.7-1.3,2.1-1.5,1.9-3.4l4.5-114.7C825.1,475.8,825,475.6,824.5,475.8L824.5,475.8z
		 M811.7,497c2.8-0.5,5.3,0.5,6.8,2.9c3,4.9,0.8,14-4.8,20.4c-5.6,6.4-12.6,7.6-15.6,2.7c-3-4.9-0.8-14,4.8-20.4
		C805.7,499.4,808.9,497.4,811.7,497L811.7,497z M692.5,529.8c4.1-0.7,9.2,2.3,13,7.9c4.9,7.4,5.6,16.6,1.4,20.6
		c-4.1,4-11.5,1.2-16.4-6.2c-4.9-7.4-5.5-16.6-1.4-20.5c0.8-0.7,1.6-1.3,2.6-1.6C692,529.9,692.2,529.8,692.5,529.8L692.5,529.8z
		 M659.3,549.5c4.1-0.7,9.2,2.3,13,7.9c4.9,7.4,5.6,16.6,1.4,20.6s-11.5,1.2-16.4-6.2c-4.9-7.4-5.5-16.6-1.4-20.5
		c0.8-0.7,1.6-1.3,2.6-1.6C658.8,549.6,659,549.5,659.3,549.5L659.3,549.5z M626.6,569c0.3-0.1,0.7-0.1,1-0.2c4-0.6,9.1,2.4,12.8,8
		c4.9,7.4,5.6,16.6,1.4,20.5c-4.1,4-11.5,1.2-16.4-6.2c-4.9-7.4-5.5-16.6-1.4-20.6C624.8,569.8,625.7,569.3,626.6,569L626.6,569z
		 M783,550.1c2.8-0.4,5.2,0.5,6.7,2.9c3,4.9,0.8,14-4.9,20.4c-5.6,6.4-12.6,7.6-15.6,2.7c-3-4.9-0.8-14,4.9-20.4
		c2.5-2.8,5.2-4.6,7.7-5.3C782.3,550.2,782.6,550.1,783,550.1L783,550.1z M690.1,604.8c0.3-0.1,0.7-0.1,1-0.2
		c4-0.6,9.1,2.4,12.8,7.9c4.9,7.4,5.5,16.6,1.4,20.6c-4.1,4-11.5,1.2-16.4-6.2c-4.9-7.4-5.6-16.6-1.4-20.6
		C688.3,605.6,689.1,605.1,690.1,604.8L690.1,604.8z M751.4,605.1c2.8-0.5,5.3,0.4,6.8,2.8c3,4.9,0.8,14-4.8,20.4
		c-5.6,6.4-12.6,7.6-15.6,2.8c-3-4.9-0.8-14,4.8-20.4C745.4,607.5,748.6,605.5,751.4,605.1L751.4,605.1z"/>
</g>
</svg>
